<svg width="32" height="32" fill="none" xmlns="http://www.w3.org/2000/svg"><path d="M11.333 25.333h-.667c-5.333 0-8-1.333-8-8v-6.666c0-5.334 2.667-8 8-8h10.667c5.334 0 8 2.666 8 8v6.666c0 5.334-2.666 8-8 8h-.666c-.414 0-.814.2-1.067.534l-2 2.666c-.88 1.174-2.32 1.174-3.2 0l-2-2.666c-.213-.294-.707-.534-1.067-.534Z" stroke="url(#a)" stroke-width="2" stroke-miterlimit="10" stroke-linecap="round" stroke-linejoin="round"/><path d="M21.329 14.667h.012" stroke="url(#b)" stroke-width="2" stroke-linecap="round" stroke-linejoin="round"/><path d="M15.994 14.667h.012" stroke="url(#c)" stroke-width="2" stroke-linecap="round" stroke-linejoin="round"/><path d="M10.66 14.667h.011" stroke="url(#d)" stroke-width="2" stroke-linecap="round" stroke-linejoin="round"/><defs><linearGradient id="a" x1="27.666" y1="8.96" x2="2.205" y2="16.364" gradientUnits="userSpaceOnUse"><stop stop-color="#5CBEDF"/><stop offset=".521" stop-color="#6BA2F3"/><stop offset="1" stop-color="#7593FA"/></linearGradient><linearGradient id="b" x1="21.917" y1="14.314" x2="20.647" y2="14.684" gradientUnits="userSpaceOnUse"><stop stop-color="#5CBEDF"/><stop offset=".521" stop-color="#6BA2F3"/><stop offset="1" stop-color="#7593FA"/></linearGradient><linearGradient id="c" x1="16.582" y1="14.314" x2="15.312" y2="14.684" gradientUnits="userSpaceOnUse"><stop stop-color="#5CBEDF"/><stop offset=".521" stop-color="#6BA2F3"/><stop offset="1" stop-color="#7593FA"/></linearGradient><linearGradient id="d" x1="11.248" y1="14.314" x2="9.977" y2="14.684" gradientUnits="userSpaceOnUse"><stop stop-color="#5CBEDF"/><stop offset=".521" stop-color="#6BA2F3"/><stop offset="1" stop-color="#7593FA"/></linearGradient></defs></svg>