<svg width="171" height="95" fill="none" xmlns="http://www.w3.org/2000/svg"><g clip-path="url(#a)"><path d="m170.868 27.48-1.442-2.487-.918.916-40.521-23.292-39.471 32.975 42.356 24.47c6.295 3.533 43.012-26.956 39.996-32.583Z" fill="url(#b)"/><path d="M136.905 71.446v-8.374l-25.047-6.805-24.784-14.132-42.095-24.208c-3.803-2.224-9.573-2.486-12.85-.523L11.67 29.18 0 26.04v12.038c.131 1.44 1.18 2.88 3.147 3.926l39.865 23.03 51.012 29.443c6.688 3.925 41.701-15.572 42.75-22.376.131-.262.131-.393.131-.655Z" fill="url(#c)"/><path d="M168.902 24.47c6.426 3.664-32.914 36.77-39.471 32.975l-42.357-24.47L126.546 0l42.356 24.47Z" fill="url(#d)"/><path d="M130.741 56.79c-.394 0-.656 0-.918-.13L88.646 32.844l38.03-31.797 41.832 24.077c.131.13.393.262.131 1.178-.918 3.271-7.737 10.73-16.785 18.058-9.18 7.458-17.704 12.43-21.113 12.43Z" fill="url(#e)"/><path d="M130.742 56.398h-.394L90.09 33.237l36.587-30.62 41.176 23.685v.261c-.656 2.617-6.557 9.553-16.523 17.535-8.917 7.328-17.441 12.3-20.588 12.3Z" fill="url(#f)"/><path d="M87.073 29.704 45.241 53.912 3.147 29.704c-3.803-2.225-4.196-5.627-.918-7.459L32.128 4.972c3.278-1.962 9.048-1.7 12.851.524l42.094 24.208Z" fill="url(#g)"/><path d="M64.518 25.124c0-.523-.263-1.178-1.05-1.57L38.816 9.29c-1.311-.785-3.278-.785-4.458-.131L12.326 21.853c-.525.261-.787.654-.787 1.046v1.963l1.836.131 23.998 13.87c1.311.786 3.278.786 4.458.132l20.85-12.04 1.837.132v-1.963Z" fill="url(#h)"/><path d="M135.988 61.24c7.474 4.318-34.489 28.395-41.832 24.077L45.242 57.183l41.832-24.077 48.914 28.134Z" fill="url(#i)"/><path d="M63.863 27.872 41.832 40.565c-1.18.654-3.147.523-4.459-.131L12.59 26.17c-1.312-.785-1.443-1.963-.262-2.617l22.03-12.693c1.18-.654 3.148-.524 4.459.13L63.6 25.256c1.18.785 1.312 1.963.263 2.617Z" fill="url(#j)"/><path d="M121.956 56.136 85.37 77.204 47.865 55.613l36.587-21.068 37.504 21.591Z" fill="url(#k)"/><path d="m121.956 56.136-12.196 7.066-37.504-21.721 12.195-6.936 37.505 21.591Z" fill="url(#l)"/><path d="M47.996 16.357 21.769 31.405l-.525-.262L47.34 15.964l.656.393Z" fill="#647E62"/><path d="m52.453 34.415-.524.261L33.7 24.208l.525-.262 18.227 10.469Zm8.524-4.842-.655.262-18.228-10.469.655-.261 18.228 10.468Z" fill="#647E62"/><path d="m25.308 26.956-1.704.916-6.557-3.664 1.705-1.047 6.556 3.795Z" fill="url(#m)"/><path d="m28.588 24.993-1.705 1.047-6.557-3.795 1.705-1.047 6.557 3.795Z" fill="url(#n)"/><path d="m32.127 23.03-1.705.916-6.557-3.664 1.705-1.046 6.557 3.794Z" fill="url(#o)"/><path d="m39.734 18.581-1.705 1.047-6.556-3.795 1.836-1.046 6.425 3.794Z" fill="url(#p)"/><path d="m43.011 16.619-1.705 1.046-6.425-3.794 1.705-.916 6.425 3.664Z" fill="url(#q)"/><path d="m37.767 30.358-4.983 2.879-4.983-2.879 4.983-3.01 4.983 3.01Z" fill="url(#r)"/><path d="M87.074 29.704v3.271L45.242 57.183v-3.271l41.832-24.208Z" fill="url(#s)"/><path d="M73.961 32.844v-1.832l-.787.262c-.262-.262-.524-.392-.787-.523h-.13c-1.968-1.178-4.984-1.309-6.689-.262l-16.13 9.29-4.327 1.57v1.963c0 .786.525 1.57 1.574 2.094h.131c1.967 1.178 4.983 1.309 6.688.262l19.277-11.123c.787-.392 1.18-1.046 1.18-1.7Z" fill="url(#t)"/><path d="M46.947 43.574c-2.098-1.177-2.23-2.878-.525-3.925l19.146-11.123c1.705-1.047 4.721-.916 6.688.262h.131c1.967 1.178 2.23 2.879.525 3.795L53.635 43.705c-1.705 1.047-4.721.916-6.688-.13Z" fill="url(#u)"/><path d="m65.305 52.472-2.36.393-.656-.393c-.525-.261-1.312-.392-1.705-.13l-1.705.916-3.934.523v1.963c0 .261.131.392.394.523l2.622 1.44c.525.261 1.312.392 1.705.13l5.377-3.14c.262-.13.262-.262.262-.393v-1.832Z" fill="url(#v)"/><path d="m64.912 52.996-5.376 3.14c-.394.262-1.18.262-1.705-.13l-2.623-1.44c-.524-.262-.524-.785-.13-1.047l5.376-3.14c.393-.262 1.18-.262 1.705.13l2.622 1.44c.525.262.656.785.131 1.047Z" fill="url(#w)"/><path d="m89.695 38.471-2.36.262-.656-.393c-.524-.261-1.311-.392-1.705-.13l-1.704 1.046-5.64 1.701v1.963c0 .262.132.393.394.524l2.623 1.439c.524.262 1.311.392 1.705.13l7.081-4.186c.262-.131.262-.262.262-.393V38.47Z" fill="url(#x)"/><path d="m89.434 38.864-7.082 4.187c-.393.262-1.18.262-1.705-.13l-2.622-1.44c-.525-.262-.525-.785-.131-1.047l7.081-4.187c.393-.262 1.18-.262 1.705.13l2.622 1.44c.525.392.525.785.132 1.047Z" fill="url(#y)"/><path d="m97.696 43.051-2.36.262-.657-.393c-.524-.262-1.31-.392-1.704-.13l-1.705.915-5.77 1.701v1.963c0 .262.131.393.393.524l2.623 1.439c.525.262 1.311.392 1.705.13l7.081-4.187c.262-.13.262-.261.262-.392V43.05h.132Z" fill="url(#z)"/><path d="m97.434 43.444-7.082 4.187c-.393.262-1.18.262-1.705-.131l-2.622-1.44c-.525-.261-.525-.785-.131-1.046l7.081-4.188c.393-.261 1.18-.261 1.705.131l2.622 1.44c.525.261.525.785.132 1.047Z" fill="url(#A)"/><path d="m105.693 47.63-2.36.263-.656-.393c-.524-.262-1.311-.392-1.705-.13l-1.704 1.046-5.64 1.701v1.963c0 .262.132.392.394.523l2.623 1.44c.525.261 1.311.392 1.705.13l7.081-4.187c.262-.13.262-.261.262-.392V47.63Z" fill="url(#B)"/><path d="m105.432 48.023-7.082 4.188c-.393.261-1.18.261-1.704-.131l-2.623-1.44c-.525-.261-.525-.785-.131-1.046l7.081-4.188c.393-.261 1.18-.261 1.705.131l2.623 1.44c.524.261.524.785.131 1.047Z" fill="url(#C)"/><path d="m113.693 52.08-2.36.262-.656-.393c-.524-.262-1.311-.392-1.705-.13l-1.704.915-5.639 1.701v1.963c0 .262.131.393.393.523l2.623 1.44c.525.262 1.311.393 1.705.13l7.081-4.187c.262-.13.262-.261.262-.392V52.08Z" fill="url(#D)"/><path d="m113.432 52.472-7.082 4.188c-.393.262-1.18.262-1.704-.131l-2.623-1.44c-.525-.261-.525-.785-.131-1.046l7.081-4.188c.393-.261 1.18-.261 1.705.131l2.622 1.44c.525.392.525.916.132 1.046Z" fill="url(#E)"/><path d="m73.303 57.183-2.36.262-.656-.393c-.525-.261-1.311-.392-1.705-.13l-1.705 1.046-3.934.524v1.963c0 .261.132.392.394.523l2.623 1.44c.524.261 1.31.392 1.704.13l5.377-3.14c.262-.131.262-.262.262-.393v-1.832Z" fill="url(#F)"/><path d="m72.91 57.576-5.376 3.14c-.394.262-1.18.262-1.705-.13l-2.622-1.44c-.525-.262-.525-.785-.132-1.047l5.377-3.14c.393-.262 1.18-.262 1.705.13l2.622 1.44c.525.262.656.785.132 1.047Z" fill="url(#G)"/><path d="m81.303 61.763-2.36.262-.656-.393c-.525-.261-1.311-.392-1.705-.13l-1.705.915-3.934.524v1.963c0 .261.132.392.394.523l2.623 1.44c.524.261 1.31.392 1.704.13l5.377-3.14c.262-.131.262-.262.262-.393v-1.7Z" fill="url(#H)"/><path d="m80.91 62.156-5.376 3.14c-.394.262-1.18.262-1.705-.13l-2.622-1.44c-.525-.262-.525-.785-.132-1.047l5.377-3.14c.393-.262 1.18-.262 1.705.13l2.622 1.44c.525.262.656.785.132 1.047Z" fill="url(#I)"/><path d="m89.172 66.343-2.36.262-.656-.393c-.525-.262-1.311-.392-1.705-.13l-1.704.915-3.934.524v1.963c0 .261.13.392.393.523l2.623 1.44c.524.261 1.311.392 1.704.13l5.377-3.14c.262-.131.262-.262.262-.393v-1.701Z" fill="url(#J)"/><path d="m88.91 66.736-5.376 3.14c-.394.262-1.18.262-1.705-.13l-2.622-1.44c-.525-.262-.525-.785-.132-1.047l5.377-3.14c.393-.262 1.18-.262 1.705.13l2.622 1.44c.525.392.656.785.132 1.047Z" fill="url(#K)"/><path d="m99.794 60.062-3.934-.785-6.163-3.533c-.787-.524-2.099-.524-2.754-.131l-2.36 1.309-1.968-.393v1.963c0 .262.263.654.656.916l9.442 5.365c.786.523 2.098.523 2.754.13l3.802-2.224c.263-.13.525-.393.525-.654v-1.963Z" fill="url(#L)"/><path d="m92.712 62.94-9.442-5.364c-.787-.524-.918-1.178-.262-1.57l3.803-2.225c.655-.392 1.967-.392 2.753.13l9.442 5.366c.787.523.918 1.178.262 1.57l-3.802 2.225c-.787.392-1.967.261-2.754-.131Z" fill="url(#M)"/><path d="m74.485 46.191-6.688 1.44v1.832c0 .13 0 .262.262.392l1.18.655c.263.13.787.261 1.05 0l3.933-2.225c.132-.13.132-.13.132-.261V46.19h.13Z" fill="url(#N)"/><path d="m74.353 46.453-3.934 2.225c-.262.13-.786.13-1.049 0l-1.18-.655c-.262-.13-.393-.392-.131-.654l3.934-2.224c.262-.131.787-.131 1.05 0l1.18.654c.393.13.393.392.13.654Z" fill="url(#O)"/><path d="M136.905 68.698c-1.049 6.936-35.931 26.302-42.75 22.376l-51.143-29.31L3.147 38.732C1.18 37.555.131 36.116 0 34.807v1.178c.131 1.44 1.18 2.879 3.147 3.925l39.865 22.9 51.012 29.442c6.688 3.926 41.701-15.572 42.75-22.376v-.523l.131-.655Z" fill="url(#P)"/></g><defs><linearGradient id="b" x1="121.989" y1="31.419" x2="170.135" y2="31.419" gradientUnits="userSpaceOnUse"><stop stop-color="#9CA0A7"/><stop offset=".064" stop-color="#ACB0B6"/><stop offset=".192" stop-color="#C6C9CE"/><stop offset=".333" stop-color="#DBDCE1"/><stop offset=".492" stop-color="#E9EAEF"/><stop offset=".684" stop-color="#F1F3F7"/><stop offset="1" stop-color="#F4F5F9"/></linearGradient><linearGradient id="c" x1="137.144" y1="55.502" x2="1.109" y2="55.502" gradientUnits="userSpaceOnUse"><stop stop-color="#FBFBFB"/><stop offset=".096" stop-color="#F4F4F4"/><stop offset=".154" stop-color="#F0F0F0"/><stop offset=".203" stop-color="#DFDFDF"/><stop offset=".246" stop-color="#D0D0D0"/><stop offset=".284" stop-color="#B9B9B9"/><stop offset=".304" stop-color="#D0D0D0"/><stop offset=".488" stop-color="#C8C8C8"/><stop offset=".68" stop-color="#CACACA"/><stop offset=".873" stop-color="#CECECE"/><stop offset="1" stop-color="#DBDBDB"/></linearGradient><linearGradient id="d" x1="110.679" y1="46.606" x2="134.779" y2="4.776" gradientUnits="userSpaceOnUse"><stop stop-color="#ECECEC"/><stop offset="1" stop-color="#D7D7D7"/></linearGradient><linearGradient id="e" x1="88.885" y1="28.951" x2="168.319" y2="28.951" gradientUnits="userSpaceOnUse"><stop stop-color="#9DA4AC"/><stop offset=".06" stop-color="#99A0A7"/><stop offset=".38" stop-color="#888D93"/><stop offset=".695" stop-color="#7E8286"/><stop offset="1" stop-color="#7B7E82"/></linearGradient><linearGradient id="f" x1="112.099" y1="45.865" x2="134.462" y2="7.049" gradientUnits="userSpaceOnUse"><stop stop-color="#F2F2F2"/><stop offset="1" stop-color="#E6E6E6"/></linearGradient><linearGradient id="g" x1="20.723" y1="39.776" x2="41.596" y2="3.549" gradientUnits="userSpaceOnUse"><stop stop-color="#F0F0F0"/><stop offset="1" stop-color="#E8E8E8"/></linearGradient><linearGradient id="h" x1="11.509" y1="23.997" x2="64.941" y2="23.997" gradientUnits="userSpaceOnUse"><stop stop-color="#A4A4A4"/><stop offset=".249" stop-color="#ACACAC"/><stop offset=".34" stop-color="#AEAEAE"/><stop offset=".405" stop-color="#9B9B9B"/><stop offset=".458" stop-color="#999"/><stop offset=".487" stop-color="#848484"/></linearGradient><linearGradient id="i" x1="72.457" y1="72.837" x2="93.33" y2="36.609" gradientUnits="userSpaceOnUse"><stop stop-color="#EAEAEA"/><stop offset="1" stop-color="#DDD"/></linearGradient><linearGradient id="j" x1="24.968" y1="33.238" x2="38.006" y2="10.609" gradientUnits="userSpaceOnUse"><stop stop-color="#A3C79B"/><stop offset="1" stop-color="#85C7A3"/></linearGradient><linearGradient id="k" x1="66.626" y1="66.413" x2="84.849" y2="34.786" gradientUnits="userSpaceOnUse"><stop stop-color="#222431"/><stop offset="1" stop-color="#64666F"/></linearGradient><linearGradient id="l" x1="91.033" y1="52.352" x2="97.09" y2="41.839" gradientUnits="userSpaceOnUse"><stop stop-color="#AEAEAE"/><stop offset="1" stop-color="#979797"/></linearGradient><linearGradient id="m" x1="20.314" y1="26.035" x2="21.176" y2="24.538" gradientUnits="userSpaceOnUse"><stop stop-color="#647E62"/><stop offset="1" stop-color="#538067"/></linearGradient><linearGradient id="n" x1="23.616" y1="24.133" x2="24.478" y2="22.637" gradientUnits="userSpaceOnUse"><stop stop-color="#647E62"/><stop offset="1" stop-color="#538067"/></linearGradient><linearGradient id="o" x1="27.104" y1="22.122" x2="27.966" y2="20.626" gradientUnits="userSpaceOnUse"><stop stop-color="#647E62"/><stop offset="1" stop-color="#538067"/></linearGradient><linearGradient id="p" x1="34.783" y1="17.7" x2="35.645" y2="16.203" gradientUnits="userSpaceOnUse"><stop stop-color="#647E62"/><stop offset="1" stop-color="#538067"/></linearGradient><linearGradient id="q" x1="38.082" y1="15.798" x2="38.944" y2="14.302" gradientUnits="userSpaceOnUse"><stop stop-color="#647E62"/><stop offset="1" stop-color="#538067"/></linearGradient><linearGradient id="r" x1="30.252" y1="31.759" x2="32.759" y2="27.407" gradientUnits="userSpaceOnUse"><stop stop-color="#647E62"/><stop offset="1" stop-color="#538067"/></linearGradient><linearGradient id="s" x1="45.195" y1="43.439" x2="87.071" y2="43.439" gradientUnits="userSpaceOnUse"><stop stop-color="#F2F3F6"/><stop offset="1" stop-color="#D7DFE8"/></linearGradient><linearGradient id="t" x1="67.728" y1="29.681" x2="50.752" y2="45.946" gradientUnits="userSpaceOnUse"><stop stop-color="#5D5D61"/><stop offset="1" stop-color="#1E2021"/></linearGradient><linearGradient id="u" x1="67.535" y1="28.635" x2="51.016" y2="44.464" gradientUnits="userSpaceOnUse"><stop stop-color="#222431"/><stop offset="1" stop-color="#64666F"/></linearGradient><linearGradient id="v" x1="55.035" y1="55.27" x2="65.324" y2="55.27" gradientUnits="userSpaceOnUse"><stop offset=".117" stop-color="#848484"/><stop offset=".197" stop-color="#939393"/><stop offset=".332" stop-color="#AAA"/><stop offset=".503" stop-color="#CACACA"/><stop offset=".595" stop-color="#DBDBDB"/></linearGradient><linearGradient id="w" x1="56.605" y1="55.196" x2="60.068" y2="49.185" gradientUnits="userSpaceOnUse"><stop stop-color="#B9B9B9"/><stop offset="1" stop-color="#9D9D9D"/></linearGradient><linearGradient id="x" x1="77.735" y1="41.833" x2="89.717" y2="41.833" gradientUnits="userSpaceOnUse"><stop offset=".117" stop-color="#848484"/><stop offset=".197" stop-color="#939393"/><stop offset=".332" stop-color="#AAA"/><stop offset=".503" stop-color="#CACACA"/><stop offset=".595" stop-color="#DBDBDB"/></linearGradient><linearGradient id="y" x1="79.248" y1="42.226" x2="83.638" y2="34.608" gradientUnits="userSpaceOnUse"><stop stop-color="#E1E1E1"/><stop offset="1" stop-color="#CACACA"/></linearGradient><linearGradient id="z" x1="85.605" y1="46.344" x2="97.718" y2="46.344" gradientUnits="userSpaceOnUse"><stop offset=".117" stop-color="#848484"/><stop offset=".197" stop-color="#939393"/><stop offset=".332" stop-color="#AAA"/><stop offset=".503" stop-color="#CACACA"/><stop offset=".595" stop-color="#DBDBDB"/></linearGradient><linearGradient id="A" x1="87.256" y1="46.784" x2="91.646" y2="39.165" gradientUnits="userSpaceOnUse"><stop stop-color="#E2E2E2"/><stop offset="1" stop-color="#CACACA"/></linearGradient><linearGradient id="B" x1="93.733" y1="50.993" x2="105.715" y2="50.993" gradientUnits="userSpaceOnUse"><stop offset=".117" stop-color="#848484"/><stop offset=".197" stop-color="#939393"/><stop offset=".332" stop-color="#AAA"/><stop offset=".503" stop-color="#CACACA"/><stop offset=".595" stop-color="#DBDBDB"/></linearGradient><linearGradient id="C" x1="95.262" y1="51.342" x2="99.651" y2="43.723" gradientUnits="userSpaceOnUse"><stop stop-color="#E2E2E2"/><stop offset="1" stop-color="#CBCBCB"/></linearGradient><linearGradient id="D" x1="101.733" y1="55.373" x2="113.715" y2="55.373" gradientUnits="userSpaceOnUse"><stop offset=".117" stop-color="#848484"/><stop offset=".197" stop-color="#939393"/><stop offset=".332" stop-color="#AAA"/><stop offset=".503" stop-color="#CACACA"/><stop offset=".595" stop-color="#DBDBDB"/></linearGradient><linearGradient id="E" x1="103.269" y1="55.899" x2="107.659" y2="48.28" gradientUnits="userSpaceOnUse"><stop stop-color="#E6E6E6"/><stop offset="1" stop-color="#C8C8C8"/></linearGradient><linearGradient id="F" x1="63.033" y1="59.92" x2="73.322" y2="59.92" gradientUnits="userSpaceOnUse"><stop offset=".117" stop-color="#848484"/><stop offset=".197" stop-color="#939393"/><stop offset=".332" stop-color="#AAA"/><stop offset=".503" stop-color="#CACACA"/><stop offset=".595" stop-color="#DBDBDB"/></linearGradient><linearGradient id="G" x1="64.591" y1="59.797" x2="68.054" y2="53.787" gradientUnits="userSpaceOnUse"><stop stop-color="#BDBDBD"/><stop offset="1" stop-color="#A4A4A4"/></linearGradient><linearGradient id="H" x1="71.033" y1="64.43" x2="81.322" y2="64.43" gradientUnits="userSpaceOnUse"><stop offset=".117" stop-color="#848484"/><stop offset=".197" stop-color="#939393"/><stop offset=".332" stop-color="#AAA"/><stop offset=".503" stop-color="#CACACA"/><stop offset=".595" stop-color="#DBDBDB"/></linearGradient><linearGradient id="I" x1="72.579" y1="64.399" x2="76.042" y2="58.388" gradientUnits="userSpaceOnUse"><stop stop-color="#BFBFBF"/><stop offset="1" stop-color="#A6A6A6"/></linearGradient><linearGradient id="J" x1="78.902" y1="69.01" x2="89.191" y2="69.01" gradientUnits="userSpaceOnUse"><stop offset=".117" stop-color="#848484"/><stop offset=".197" stop-color="#939393"/><stop offset=".332" stop-color="#AAA"/><stop offset=".503" stop-color="#CACACA"/><stop offset=".595" stop-color="#DBDBDB"/></linearGradient><linearGradient id="K" x1="80.567" y1="69.001" x2="84.03" y2="62.99" gradientUnits="userSpaceOnUse"><stop stop-color="#BDBDBD"/><stop offset="1" stop-color="#A4A4A4"/></linearGradient><linearGradient id="L" x1="82.551" y1="60.297" x2="99.8" y2="60.297" gradientUnits="userSpaceOnUse"><stop offset=".597" stop-color="#848484"/><stop offset=".623" stop-color="#959595"/><stop offset=".666" stop-color="#A8A8A8"/><stop offset=".723" stop-color="#BAC2CC"/><stop offset=".729" stop-color="#CECECE"/></linearGradient><linearGradient id="M" x1="84.965" y1="54.753" x2="91.155" y2="65.498" gradientUnits="userSpaceOnUse"><stop stop-color="#BFBFBF"/><stop offset="1" stop-color="#B0B0B0"/></linearGradient><linearGradient id="N" x1="67.855" y1="48.566" x2="74.497" y2="48.566" gradientUnits="userSpaceOnUse"><stop offset=".117" stop-color="#848484"/><stop offset=".197" stop-color="#939393"/><stop offset=".332" stop-color="#AAA"/><stop offset=".503" stop-color="#CACACA"/><stop offset=".595" stop-color="#DBDBDB"/></linearGradient><linearGradient id="O" x1="68.731" y1="48.306" x2="71.199" y2="44.022" gradientUnits="userSpaceOnUse"><stop stop-color="#BBB"/><stop offset="1" stop-color="#999"/></linearGradient><linearGradient id="P" x1="0" y1="63.783" x2="136.89" y2="63.783" gradientUnits="userSpaceOnUse"><stop stop-color="#3C3F40"/><stop offset="1" stop-color="#5D5D61"/></linearGradient><clipPath id="a"><path fill="#fff" d="M0 0h171v95H0z"/></clipPath></defs></svg>