<svg width="89" height="137" fill="none" xmlns="http://www.w3.org/2000/svg"><path d="m58.514 35.248-30.858-17.51c-.457-.228-1.143-.228-1.6 0L12.57 25.47l32.458 18.42 13.486-7.732c.228-.228.228-.683 0-.91Z" fill="#C8C8CA"/><path d="m47.086 30.927-11.657-6.595H35.2l-3.429 2.047v.228L43.43 33.2h.228l3.429-2.274Z" fill="#64666F"/><path d="M44.343 29.79c.228 0 .228.228 0 0L41.6 31.61h-.229l-7.314-4.094v-.227l2.742-1.592h.23l7.313 4.093Zm44.572-.227v85.733l-10.286 6.14V35.703l10.286-6.14Z" fill="#222431"/><path d="m88.915 29.563-10.286 6.14-5.029-2.956L31.542 8.869l-4.8-2.729L37.257 0l51.658 29.563Z" fill="#64666F"/><path d="m24 27.061-4.57-2.501h-.23l-2.971 1.82v.227l4.571 2.501h.229L24 27.061c.229.228.229.228 0 0Z" fill="url(#a)"/><path d="m31.543 31.382-4.572-2.501h-.228L23.772 30.7v.227l4.571 2.502h.229l2.971-2.047c0 .227 0 0 0 0Z" fill="url(#b)"/><path d="M39.086 35.703 34.514 33.2h-.228l-2.972 1.592v.228l4.572 2.501h.228l2.972-1.82c0 .228 0 0 0 0Z" fill="url(#c)"/><path d="m46.629 40.024-4.572-2.502h-.228l-2.972 1.82v.227l4.572 2.501h.228l2.972-2.046Z" fill="url(#d)"/><path d="M2.97 20.012v85.732l51.887 29.563V49.575L2.971 20.012Z" fill="#E3E4E4"/><path d="M2.97 20.467v84.823l51.43 29.335V49.802L2.97 20.467Z" fill="#9A9B9D"/><path d="M78.63 35.703v85.733l-23.773 13.871V49.575L78.63 35.703Z" fill="url(#e)"/><path d="m73.6 32.747 4.8 2.729-23.77 13.871-4.8-2.729-4.8-2.728 13.485-7.732c.457-.228.457-.682 0-.91l-30.857-17.51c-.457-.228-1.143-.228-1.6 0L12.57 25.47l-4.8-2.73-4.8-2.728L26.742 6.14l4.8 2.729L73.6 32.747Z" fill="url(#f)"/><path d="m5.943 68.45-2.514 42.525L0 107.336V65.039l5.943 3.41Z" fill="#EDEDED"/><path d="M51.887 94.602v42.297l-6.4-1.819-2.514-45.482 8.914 5.004Z" fill="#E3E4E4"/><path d="M45.486 92.555v42.525L3.428 110.975V68.677l42.058 23.878Z" fill="url(#g)"/><path d="M53.944 93.237v42.298l-2.057 1.364V94.602l2.057-1.365Z" fill="url(#h)"/><path d="m53.944 93.237-2.058 1.365-6.4-2.047L3.43 68.677 0 65.038l2.286-1.364 4.8 2.729 42.058 24.105 4.8 2.729Z" fill="url(#i)"/><path d="m53.486 93.01-1.6.91-6.4-1.82L3.43 67.995.457 65.038l2.057-1.136L53.486 93.01Z" fill="#B6B6B8"/><path d="M5.943 25.015 3.429 67.54 0 63.901V21.605l5.943 3.41Z" fill="#EDEDED"/><path d="M51.887 51.167v42.297l-6.4-1.819-2.514-45.481 8.914 5.003Z" fill="#E3E4E4"/><path d="M45.486 49.347v42.298L3.428 67.54V25.242l42.058 24.105Z" fill="url(#j)"/><path d="M53.944 50.03v42.297l-2.057 1.137V51.167l2.057-1.137Z" fill="url(#k)"/><path d="m53.944 50.03-2.058 1.137-6.4-1.82L3.43 25.242 0 21.604l2.286-1.365 4.8 2.957 42.058 23.877 4.8 2.957Z" fill="url(#l)"/><defs><linearGradient id="a" x1="16.188" y1="26.796" x2="24.097" y2="26.796" gradientUnits="userSpaceOnUse"><stop offset=".2" stop-color="#F5F5F5"/><stop offset=".677" stop-color="#ECECED"/><stop offset="1" stop-color="#E3E3E4"/></linearGradient><linearGradient id="b" x1="23.7" y1="31.083" x2="31.604" y2="31.083" gradientUnits="userSpaceOnUse"><stop offset=".2" stop-color="#F5F5F5"/><stop offset=".677" stop-color="#ECECED"/><stop offset="1" stop-color="#E3E3E4"/></linearGradient><linearGradient id="c" x1="31.215" y1="35.367" x2="39.115" y2="35.367" gradientUnits="userSpaceOnUse"><stop offset=".2" stop-color="#F5F5F5"/><stop offset=".677" stop-color="#ECECED"/><stop offset="1" stop-color="#E3E3E4"/></linearGradient><linearGradient id="d" x1="38.72" y1="39.655" x2="46.631" y2="39.655" gradientUnits="userSpaceOnUse"><stop offset=".2" stop-color="#F5F5F5"/><stop offset=".677" stop-color="#ECECED"/><stop offset="1" stop-color="#E3E3E4"/></linearGradient><linearGradient id="e" x1="85.423" y1="117.496" x2="48.243" y2="53.185" gradientUnits="userSpaceOnUse"><stop stop-color="#E3E3E4"/><stop offset=".356" stop-color="#DFDFE0"/><stop offset=".725" stop-color="#D2D3D4"/><stop offset="1" stop-color="#C4C5C6"/></linearGradient><linearGradient id="f" x1="36.414" y1="35.349" x2="47.769" y2="15.452" gradientUnits="userSpaceOnUse"><stop offset=".2" stop-color="#F5F5F5"/><stop offset=".677" stop-color="#ECECED"/><stop offset="1" stop-color="#E3E3E4"/></linearGradient><linearGradient id="g" x1="-1.687" y1="97.233" x2="50.497" y2="106.481" gradientUnits="userSpaceOnUse"><stop stop-color="#E3E4E4"/><stop offset=".358" stop-color="#EAEBEB"/><stop offset="1" stop-color="#EDEDED"/></linearGradient><linearGradient id="h" x1="52.75" y1="50.483" x2="52.987" y2="135.899" gradientUnits="userSpaceOnUse"><stop stop-color="#C4C5C6"/><stop offset=".276" stop-color="#D2D3D4"/><stop offset=".644" stop-color="#DFDFE0"/><stop offset="1" stop-color="#E3E3E4"/></linearGradient><linearGradient id="i" x1="26.346" y1="80.264" x2="29.458" y2="74.812" gradientUnits="userSpaceOnUse"><stop offset=".2" stop-color="#F5F5F5"/><stop offset=".677" stop-color="#ECECED"/><stop offset="1" stop-color="#E3E3E4"/></linearGradient><linearGradient id="j" x1="-1.678" y1="53.877" x2="50.489" y2="63.123" gradientUnits="userSpaceOnUse"><stop stop-color="#E3E4E4"/><stop offset=".358" stop-color="#EAEBEB"/><stop offset="1" stop-color="#EDEDED"/></linearGradient><linearGradient id="k" x1="52.872" y1="50.487" x2="53.11" y2="135.89" gradientUnits="userSpaceOnUse"><stop stop-color="#C4C5C6"/><stop offset=".276" stop-color="#D2D3D4"/><stop offset=".644" stop-color="#DFDFE0"/><stop offset="1" stop-color="#E3E3E4"/></linearGradient><linearGradient id="l" x1="26.347" y1="36.952" x2="29.459" y2="31.499" gradientUnits="userSpaceOnUse"><stop offset=".2" stop-color="#F5F5F5"/><stop offset=".677" stop-color="#ECECED"/><stop offset="1" stop-color="#E3E3E4"/></linearGradient></defs></svg>