<svg width="42" height="48" fill="none" xmlns="http://www.w3.org/2000/svg"><path d="m15.36.96.856-.517a1 1 0 0 0-1.71-.004l.854.521Z" fill="url(#a)"/><path d="m15.36.96.856-.517.017.028.048.08a128.122 128.122 0 0 1 .877 1.48 279.61 279.61 0 0 1 2.385 4.15c1.925 3.418 4.386 7.951 6.511 12.396l-1.804.862c-2.099-4.387-4.535-8.878-6.45-12.276a271.67 271.67 0 0 0-2.367-4.119l-.076-.131c-.368.62-.838 1.421-1.38 2.363a242.283 242.283 0 0 0-4.93 8.962c-1.793 3.442-3.577 7.119-4.91 10.424-1.35 3.35-2.177 6.176-2.177 7.978 0 7.503 6.072 13.4 13.4 13.4 4.643 0 8.94-2.508 11.258-6.073l1.676 1.09c-2.674 4.115-7.593 6.983-12.934 6.983-8.416 0-15.4-6.775-15.4-15.4 0-2.23.973-5.38 2.323-8.726 1.367-3.39 3.183-7.13 4.99-10.6a244.123 244.123 0 0 1 4.97-9.038A240.135 240.135 0 0 1 14.464.51l.043-.07.854.521Z" fill="url(#b)"/><path d="m21.651 35.82-.005.004c-.273.17-.524.327-.79.456-.446.214-.938.352-1.656.352-1.203 0-1.746-.314-2.511-.755l-.098-.057a14.683 14.683 0 0 0-.784-.426l-.894 1.788c.19.095.385.21.595.333.21.123.435.255.68.382a6.231 6.231 0 0 0 3.012.735c.68 0 1.241-.093 1.722-.238.741-.222 1.29-.565 1.779-.87l.005-.004c.455-.284.848-.529 1.359-.672a3.963 3.963 0 0 1 1.087-.136c.642 0 1.086.11 1.477.286.208.094.4.206.6.331l.251.161.034.022c.348.225.772.498 1.307.713a5.224 5.224 0 0 0 .338.123c.546.178 1.176.284 1.945.284.86 0 1.52-.15 2.062-.363.538-.21.96-.483 1.346-.732l.038-.025c.373-.24.671-.426 1.038-.564.355-.135.811-.236 1.468-.236.53 0 .921.047 1.245.131.374.097.658.244.962.425l.25.151c.26.16.553.34.936.531l.894-1.788a3.467 3.467 0 0 1-.145-.077c-.147-.081-.296-.174-.453-.271a12.233 12.233 0 0 0-.639-.377c-.699-.378-1.617-.725-3.05-.725-.879 0-1.576.138-2.174.364-.587.222-1.045.516-1.416.756l-.034.021c-.43.278-.794.513-1.28.65a3.817 3.817 0 0 1-1.048.129c-.572 0-.991-.077-1.324-.185a3.321 3.321 0 0 1-.144-.05l-.013-.005a3.035 3.035 0 0 1-.188-.079 6.429 6.429 0 0 1-.837-.481l-.038-.025c-.484-.312-1.025-.662-1.782-.88a5.797 5.797 0 0 0-1.626-.215c-1.727 0-2.694.604-3.5 1.109Z" fill="url(#c)"/><path d="M21.651 29.293c.807-.505 1.774-1.109 3.501-1.109 1.712 0 2.634.595 3.408 1.095l.038.025c.373.24.671.426 1.038.564.355.135.811.236 1.468.236 1.122 0 1.64-.334 2.328-.778l.034-.022c.371-.24.829-.534 1.416-.756.598-.225 1.295-.364 2.174-.364 1.91 0 2.906.617 3.688 1.101.21.13.406.252.6.349l-.895 1.788c-.383-.19-.675-.37-.936-.53-.688-.423-1.153-.708-2.457-.708-.657 0-1.112.101-1.468.236-.367.138-.665.324-1.038.564l-.038.025c-.774.5-1.696 1.095-3.408 1.095-.879 0-1.576-.139-2.174-.364-.587-.222-1.045-.516-1.416-.756l-.034-.022c-.689-.444-1.206-.778-2.328-.778-1.15 0-1.718.353-2.446.808l-.005.003c-.807.505-1.774 1.109-3.501 1.109-1.785 0-2.851-.624-3.692-1.117-.21-.123-.406-.238-.595-.333l.894-1.788c.342.17.624.334.882.482.765.442 1.308.756 2.511.756 1.15 0 1.718-.353 2.446-.808l.005-.003Z" fill="url(#d)"/><path d="M25.152 21.656c-1.727 0-2.694.605-3.5 1.109l-.006.003c-.728.455-1.297.808-2.446.808-1.203 0-1.747-.314-2.511-.756-.258-.148-.54-.312-.882-.482l-.894 1.788c.19.095.385.21.595.333.84.492 1.907 1.117 3.692 1.117 1.727 0 2.694-.605 3.5-1.109l.006-.003c.728-.455 1.297-.808 2.446-.808 1.122 0 1.64.334 2.328.779l.034.021c.371.24.829.534 1.416.756.598.226 1.295.364 2.174.364 1.712 0 2.634-.596 3.408-1.095l.038-.025c.373-.24.671-.426 1.038-.564.355-.134.811-.236 1.468-.236 1.304 0 1.769.285 2.457.707.26.16.553.34.936.531l.894-1.788a7.778 7.778 0 0 1-.6-.349c-.781-.484-1.776-1.101-3.687-1.101-.879 0-1.576.139-2.174.364-.587.222-1.045.516-1.416.756l-.034.021c-.689.445-1.206.779-2.328.779-.657 0-1.113-.101-1.468-.236-.367-.138-.665-.324-1.038-.564l-.038-.025c-.774-.5-1.696-1.095-3.408-1.095Z" fill="url(#e)"/><defs><linearGradient id="a" x1="38.757" y1="11.273" x2="-1.557" y2="21.393" gradientUnits="userSpaceOnUse"><stop stop-color="#5CBEDF"/><stop offset=".521" stop-color="#6BA2F3"/><stop offset="1" stop-color="#7593FA"/></linearGradient><linearGradient id="b" x1="38.757" y1="11.273" x2="-1.557" y2="21.393" gradientUnits="userSpaceOnUse"><stop stop-color="#5CBEDF"/><stop offset=".521" stop-color="#6BA2F3"/><stop offset="1" stop-color="#7593FA"/></linearGradient><linearGradient id="c" x1="38.757" y1="11.273" x2="-1.557" y2="21.393" gradientUnits="userSpaceOnUse"><stop stop-color="#5CBEDF"/><stop offset=".521" stop-color="#6BA2F3"/><stop offset="1" stop-color="#7593FA"/></linearGradient><linearGradient id="d" x1="38.757" y1="11.273" x2="-1.557" y2="21.393" gradientUnits="userSpaceOnUse"><stop stop-color="#5CBEDF"/><stop offset=".521" stop-color="#6BA2F3"/><stop offset="1" stop-color="#7593FA"/></linearGradient><linearGradient id="e" x1="38.757" y1="11.273" x2="-1.557" y2="21.393" gradientUnits="userSpaceOnUse"><stop stop-color="#5CBEDF"/><stop offset=".521" stop-color="#6BA2F3"/><stop offset="1" stop-color="#7593FA"/></linearGradient></defs></svg>