<svg width="49" height="49" fill="none" xmlns="http://www.w3.org/2000/svg"><path d="M24.04 2C11.92 2 2 11.92 2 24.04c0 3.867.92 7.354 2.572 10.476l-1.768.936C1.001 32.046 0 28.237 0 24.04 0 10.816 10.816 0 24.04 0c5.015 0 9.624 1.605 13.424 4.203 1.11.74 2.067 1.555 2.948 2.38L40.32 4.5l1.998-.086.192 4.416a1 1 0 0 1-.956 1.042l-4.416.192-.086-1.998 1.924-.084c-.81-.756-1.656-1.47-2.628-2.117l-.01-.007C32.844 3.466 28.623 2 24.04 2Z" fill="url(#a)"/><path d="M46.08 24.04c0-3.867-.92-7.354-2.572-10.476l1.768-.936c1.803 3.406 2.804 7.215 2.804 11.412 0 13.224-10.816 24.04-24.04 24.04-5.015 0-9.624-1.605-13.424-4.203-1.11-.741-2.067-1.555-2.948-2.38l.091 2.084-1.998.086-.192-4.416a1 1 0 0 1 .999-1.043h4.416v2H9.22a20.166 20.166 0 0 0 2.51 2.008l.01.007c3.496 2.391 7.717 3.857 12.3 3.857 12.12 0 22.04-9.92 22.04-22.04Z" fill="url(#b)"/><path d="m11.355 15.927-.023.029c-.371.464-.816 1.02-1.154 1.723-.354.74-.578 1.608-.578 2.713 0 1.044.194 1.868.506 2.57.305.684.707 1.217 1.04 1.657l.018.023c.64.847 1.124 1.486 1.124 2.854 0 .815-.16 1.387-.382 1.847-.23.482-.543.878-.935 1.368l1.562 1.25.023-.029c.371-.464.816-1.02 1.154-1.723.354-.74.578-1.608.578-2.713 0-2.041-.824-3.13-1.512-4.038l-.035-.045c-.338-.448-.608-.815-.807-1.264-.192-.433-.334-.977-.334-1.757 0-.815.16-1.386.382-1.847.23-.482.543-.878.935-1.368l-1.562-1.25Z" fill="url(#c)"/><path d="m17.477 15.956.022-.029 1.562 1.25c-.392.49-.704.886-.936 1.368-.22.46-.381 1.032-.381 1.847 0 .78.142 1.324.334 1.757.2.449.469.816.807 1.264l.035.045c.688.909 1.512 1.997 1.512 4.038 0 1.105-.224 1.974-.578 2.713-.338.703-.783 1.259-1.154 1.723l-.023.029-1.562-1.25c.392-.49.704-.886.936-1.368.22-.46.381-1.032.381-1.847 0-1.368-.483-2.007-1.124-2.854l-.017-.023c-.334-.44-.736-.973-1.04-1.658-.313-.701-.507-1.525-.507-2.569 0-1.105.224-1.973.579-2.713.337-.703.782-1.26 1.154-1.723Z" fill="url(#d)"/><path d="m23.451 15.927-.023.029c-.371.464-.816 1.02-1.154 1.723-.354.74-.578 1.608-.578 2.713 0 1.044.194 1.868.506 2.57.305.684.707 1.217 1.04 1.657l.018.023c.64.847 1.124 1.486 1.124 2.854 0 .815-.16 1.387-.381 1.847-.232.482-.544.878-.936 1.368l1.562 1.25.022-.029c.372-.464.817-1.02 1.154-1.723.355-.74.579-1.608.579-2.713 0-2.041-.824-3.13-1.512-4.038l-.035-.045c-.338-.448-.608-.815-.807-1.264-.192-.433-.334-.977-.334-1.757 0-.815.16-1.386.381-1.847.232-.482.544-.878.936-1.368l-1.562-1.25Z" fill="url(#e)"/><path d="m29.38 15.956.023-.029 1.562 1.25c-.392.49-.704.886-.936 1.368-.22.46-.381 1.032-.381 1.847 0 .78.142 1.324.334 1.757.2.449.469.816.807 1.264l.035.045c.688.909 1.512 1.997 1.512 4.038 0 1.105-.224 1.974-.578 2.713-.338.703-.783 1.26-1.154 1.723l-.023.029-1.562-1.25c.392-.49.704-.886.936-1.368.22-.46.381-1.032.381-1.847 0-1.368-.483-2.007-1.124-2.854l-.017-.023c-.334-.44-.736-.973-1.04-1.658-.313-.701-.507-1.525-.507-2.569 0-1.105.224-1.973.579-2.713.337-.703.782-1.26 1.154-1.723Z" fill="url(#f)"/><path d="m35.355 15.927-.022.029c-.372.464-.817 1.02-1.154 1.723-.355.74-.579 1.608-.579 2.713 0 1.044.194 1.868.506 2.57.305.684.707 1.217 1.04 1.657l.018.023c.64.847 1.124 1.486 1.124 2.854 0 .815-.16 1.387-.381 1.847-.232.482-.544.878-.936 1.368l1.562 1.25.023-.029c.371-.464.816-1.02 1.154-1.723.354-.74.578-1.608.578-2.713 0-2.041-.824-3.13-1.512-4.038l-.035-.045c-.338-.448-.608-.815-.807-1.264-.192-.433-.334-.977-.334-1.757 0-.815.16-1.386.381-1.847.232-.482.544-.878.936-1.368l-1.562-1.25Z" fill="url(#g)"/><defs><linearGradient id="a" x1="45.075" y1="11.313" x2="-.81" y2="24.696" gradientUnits="userSpaceOnUse"><stop stop-color="#5CBEDF"/><stop offset=".521" stop-color="#6BA2F3"/><stop offset="1" stop-color="#7593FA"/></linearGradient><linearGradient id="b" x1="45.075" y1="11.313" x2="-.81" y2="24.696" gradientUnits="userSpaceOnUse"><stop stop-color="#5CBEDF"/><stop offset=".521" stop-color="#6BA2F3"/><stop offset="1" stop-color="#7593FA"/></linearGradient><linearGradient id="c" x1="45.075" y1="11.313" x2="-.81" y2="24.696" gradientUnits="userSpaceOnUse"><stop stop-color="#5CBEDF"/><stop offset=".521" stop-color="#6BA2F3"/><stop offset="1" stop-color="#7593FA"/></linearGradient><linearGradient id="d" x1="45.075" y1="11.313" x2="-.81" y2="24.696" gradientUnits="userSpaceOnUse"><stop stop-color="#5CBEDF"/><stop offset=".521" stop-color="#6BA2F3"/><stop offset="1" stop-color="#7593FA"/></linearGradient><linearGradient id="e" x1="45.075" y1="11.313" x2="-.81" y2="24.696" gradientUnits="userSpaceOnUse"><stop stop-color="#5CBEDF"/><stop offset=".521" stop-color="#6BA2F3"/><stop offset="1" stop-color="#7593FA"/></linearGradient><linearGradient id="f" x1="45.075" y1="11.313" x2="-.81" y2="24.696" gradientUnits="userSpaceOnUse"><stop stop-color="#5CBEDF"/><stop offset=".521" stop-color="#6BA2F3"/><stop offset="1" stop-color="#7593FA"/></linearGradient><linearGradient id="g" x1="45.075" y1="11.313" x2="-.81" y2="24.696" gradientUnits="userSpaceOnUse"><stop stop-color="#5CBEDF"/><stop offset=".521" stop-color="#6BA2F3"/><stop offset="1" stop-color="#7593FA"/></linearGradient></defs></svg>