<svg width="48" height="48" fill="none" xmlns="http://www.w3.org/2000/svg"><path fill-rule="evenodd" clip-rule="evenodd" d="M28.172 21.243c.347.524.598 1.119.728 1.757h9.086l4.107-4.107 1.414 1.414L40.814 23H48v2h-7.186l2.693 2.693-1.414 1.414L37.986 25H28.9a4.972 4.972 0 0 1-.728 1.757l6.442 6.443H40.4v2h-3.786l5.093 5.093-1.414 1.414-5.093-5.093V40.4h-2v-5.786l-6.443-6.442A4.972 4.972 0 0 1 25 28.9v9.086l4.107 4.107-1.414 1.414L25 40.814V48h-2v-7.186l-2.693 2.693-1.414-1.414L23 37.986V28.9a4.972 4.972 0 0 1-1.757-.728L14.8 34.614V40.4h-2v-3.786l-5.093 5.093-1.414-1.414 5.093-5.093H7.6v-2h5.786l6.442-6.443A4.972 4.972 0 0 1 19.1 25h-9.086l-4.107 4.107-1.414-1.414L7.186 25H0v-2h7.186l-2.693-2.693 1.414-1.414L10.014 23H19.1c.13-.638.38-1.233.728-1.757L13.386 14.8H7.6v-2h3.786L6.293 7.707l1.414-1.414 5.093 5.093V7.6h2v5.786l6.443 6.442A4.972 4.972 0 0 1 23 19.1v-9.086l-4.107-4.107 1.414-1.414L23 7.186V0h2v7.186l2.693-2.693 1.414 1.414L25 10.014V19.1c.638.13 1.233.38 1.757.728l6.443-6.442V7.6h2v3.786l5.093-5.093 1.414 1.414-5.093 5.093H40.4v2h-5.786l-6.442 6.443ZM24 21a3 3 0 1 0 0 6 3 3 0 0 0 0-6Z" fill="url(#a)"/><defs><linearGradient id="a" x1="45" y1="11.294" x2="-.809" y2="24.655" gradientUnits="userSpaceOnUse"><stop stop-color="#5CBEDF"/><stop offset=".521" stop-color="#6BA2F3"/><stop offset="1" stop-color="#7593FA"/></linearGradient></defs></svg>