<svg width="49" height="50" fill="none" xmlns="http://www.w3.org/2000/svg"><path fill-rule="evenodd" clip-rule="evenodd" d="M26.273.98a3.174 3.174 0 0 0-3.155 3.155v8.012H4.394l1.623-1.623-1.414-1.415-3.33 3.33a1 1 0 0 0 0 1.415l3.33 3.33 1.414-1.414-1.623-1.623h18.724V24.49H4.394l1.623-1.624-1.414-1.414-3.33 3.33a1 1 0 0 0 0 1.415l3.33 3.33 1.414-1.414-1.623-1.623h18.724v10.343H4.394l1.623-1.624-1.414-1.414-3.33 3.33a1 1 0 0 0 0 1.415l3.33 3.33 1.414-1.414-1.623-1.623h18.724v8.012A3.174 3.174 0 0 0 26.273 50c1.786 0 3.416-1.33 3.156-3.23V4.135A3.174 3.174 0 0 0 26.274.98Zm-1.155 3.155c0-.624.532-1.155 1.155-1.155.624 0 1.156.531 1.156 1.155v42.71c0 .055.004.11.013.164.068.404-.239.991-1.169.991a1.175 1.175 0 0 1-1.155-1.155V4.135Z" fill="url(#a)"/><path d="M34.894 14.147h-2.743v-2h2.743v2Z" fill="url(#b)"/><path d="M39.204 14.147h2.743v-2h-2.743v2Z" fill="url(#c)"/><path d="M49 14.147h-2.743v-2H49v2Z" fill="url(#d)"/><path d="M32.151 26.49h2.743v-2h-2.743v2Z" fill="url(#e)"/><path d="M41.947 26.49h-2.743v-2h2.743v2Z" fill="url(#f)"/><path d="M46.257 26.49H49v-2h-2.743v2Z" fill="url(#g)"/><path d="M34.894 38.833h-2.743v-2h2.743v2Z" fill="url(#h)"/><path d="M39.204 38.833h2.743v-2h-2.743v2Z" fill="url(#i)"/><path d="M49 38.833h-2.743v-2H49v2Z" fill="url(#j)"/><defs><linearGradient id="a" x1="45.999" y1="12.514" x2=".025" y2="25.649" gradientUnits="userSpaceOnUse"><stop stop-color="#5CBEDF"/><stop offset=".521" stop-color="#6BA2F3"/><stop offset="1" stop-color="#7593FA"/></linearGradient><linearGradient id="b" x1="45.999" y1="12.514" x2=".025" y2="25.649" gradientUnits="userSpaceOnUse"><stop stop-color="#5CBEDF"/><stop offset=".521" stop-color="#6BA2F3"/><stop offset="1" stop-color="#7593FA"/></linearGradient><linearGradient id="c" x1="45.999" y1="12.514" x2=".025" y2="25.649" gradientUnits="userSpaceOnUse"><stop stop-color="#5CBEDF"/><stop offset=".521" stop-color="#6BA2F3"/><stop offset="1" stop-color="#7593FA"/></linearGradient><linearGradient id="d" x1="45.999" y1="12.514" x2=".025" y2="25.649" gradientUnits="userSpaceOnUse"><stop stop-color="#5CBEDF"/><stop offset=".521" stop-color="#6BA2F3"/><stop offset="1" stop-color="#7593FA"/></linearGradient><linearGradient id="e" x1="45.999" y1="12.514" x2=".025" y2="25.649" gradientUnits="userSpaceOnUse"><stop stop-color="#5CBEDF"/><stop offset=".521" stop-color="#6BA2F3"/><stop offset="1" stop-color="#7593FA"/></linearGradient><linearGradient id="f" x1="45.999" y1="12.514" x2=".025" y2="25.649" gradientUnits="userSpaceOnUse"><stop stop-color="#5CBEDF"/><stop offset=".521" stop-color="#6BA2F3"/><stop offset="1" stop-color="#7593FA"/></linearGradient><linearGradient id="g" x1="45.999" y1="12.514" x2=".025" y2="25.649" gradientUnits="userSpaceOnUse"><stop stop-color="#5CBEDF"/><stop offset=".521" stop-color="#6BA2F3"/><stop offset="1" stop-color="#7593FA"/></linearGradient><linearGradient id="h" x1="45.999" y1="12.514" x2=".025" y2="25.649" gradientUnits="userSpaceOnUse"><stop stop-color="#5CBEDF"/><stop offset=".521" stop-color="#6BA2F3"/><stop offset="1" stop-color="#7593FA"/></linearGradient><linearGradient id="i" x1="45.999" y1="12.514" x2=".025" y2="25.649" gradientUnits="userSpaceOnUse"><stop stop-color="#5CBEDF"/><stop offset=".521" stop-color="#6BA2F3"/><stop offset="1" stop-color="#7593FA"/></linearGradient><linearGradient id="j" x1="45.999" y1="12.514" x2=".025" y2="25.649" gradientUnits="userSpaceOnUse"><stop stop-color="#5CBEDF"/><stop offset=".521" stop-color="#6BA2F3"/><stop offset="1" stop-color="#7593FA"/></linearGradient></defs></svg>