<svg width="24" height="24" fill="none" xmlns="http://www.w3.org/2000/svg"><path d="m0 24 1.696-6.16a11.778 11.778 0 0 1-1.593-5.948C.103 5.332 5.467 0 12.052 0c3.197 0 6.2 1.238 8.452 3.485A11.764 11.764 0 0 1 24 11.898c0 6.558-5.364 11.891-11.954 11.891h-.006c-2 0-3.966-.502-5.713-1.448L0 24Zm6.63-3.81.361.217a9.996 9.996 0 0 0 5.055 1.38h.006c5.472 0 9.93-4.431 9.93-9.884a9.813 9.813 0 0 0-2.905-6.992 9.88 9.88 0 0 0-7.025-2.897C6.579 2.008 2.12 6.439 2.12 11.892c0 1.865.522 3.684 1.519 5.258l.235.377L2.87 21.17l3.76-.98Z" fill="#1D1D1F"/><path d="m.418 23.584 1.639-5.949A11.386 11.386 0 0 1 .51 11.897C.515 5.568 5.69.418 12.05.418c3.089 0 5.983 1.197 8.16 3.365a11.383 11.383 0 0 1 3.376 8.121c0 6.331-5.18 11.481-11.536 11.481h-.005c-1.932 0-3.829-.485-5.513-1.397L.418 23.584Z" fill="#1D1D1F"/><path d="m0 24 1.696-6.16a11.778 11.778 0 0 1-1.593-5.948C.103 5.332 5.467 0 12.052 0c3.197 0 6.2 1.238 8.452 3.485A11.764 11.764 0 0 1 24 11.898c0 6.558-5.364 11.891-11.954 11.891h-.006c-2 0-3.966-.502-5.713-1.448L0 24Zm6.63-3.81.361.217a9.996 9.996 0 0 0 5.055 1.38h.006c5.472 0 9.93-4.431 9.93-9.884a9.813 9.813 0 0 0-2.905-6.992 9.88 9.88 0 0 0-7.025-2.897C6.579 2.008 2.12 6.439 2.12 11.892c0 1.865.522 3.684 1.519 5.258l.235.377L2.87 21.17l3.76-.98Z" fill="#1D1D1F"/><path fill-rule="evenodd" clip-rule="evenodd" d="M9.066 6.918c-.224-.496-.459-.507-.671-.513-.172-.006-.372-.006-.573-.006-.2 0-.522.075-.797.371-.275.297-1.043 1.015-1.043 2.481 0 1.46 1.072 2.875 1.221 3.074.149.2 2.069 3.297 5.1 4.489 2.522.992 3.038.793 3.582.741.544-.051 1.765-.718 2.017-1.414.247-.696.247-1.29.172-1.415-.074-.125-.275-.2-.573-.348-.298-.148-1.765-.866-2.04-.97-.275-.096-.476-.147-.67.15-.201.296-.774.963-.946 1.163-.172.2-.35.222-.648.074-.298-.148-1.26-.462-2.4-1.477-.89-.787-1.49-1.763-1.663-2.06-.172-.296-.017-.455.132-.604.132-.131.298-.348.447-.519.15-.17.2-.296.298-.496.098-.2.052-.37-.023-.519-.074-.143-.659-1.614-.922-2.202Z" fill="#fff"/></svg>