<svg width="24" height="24" fill="none" xmlns="http://www.w3.org/2000/svg"><path d="M8.024 9.652c.064 3.12 1.624 4.992 4.36 4.992h.16V12.86c1.004.1 1.764.836 2.068 1.784h1.42a3.947 3.947 0 0 0-2.052-2.504 3.81 3.81 0 0 0 1.752-2.492h-1.288c-.28.992-1.112 1.892-1.9 1.976V9.652h-1.292v3.456c-.8-.2-1.808-1.168-1.852-3.456H8.024Z" fill="#1D1D1F"/><path fill-rule="evenodd" clip-rule="evenodd" d="M12 0c6.627 0 12 5.373 12 12s-5.373 12-12 12S0 18.627 0 12 5.373 0 12 0ZM6 11.76c0-2.716 0-4.072.84-4.92C7.692 6 9.048 6 11.76 6h.48c2.716 0 4.072 0 4.92.84.84.852.84 2.208.84 4.92v.48c0 2.716 0 4.072-.84 4.92-.852.84-2.208.84-4.92.84h-.48c-2.716 0-4.072 0-4.92-.84C6 16.308 6 14.952 6 12.24v-.48Z" fill="#1D1D1F"/></svg>