<svg width="236" height="120" fill="none" xmlns="http://www.w3.org/2000/svg"><path d="M92.36 55V41h1.46v11.6l8.96-11.6h1.34v14h-1.46V43.42L93.7 55h-1.34Zm18.484 0V41h1.22l6.4 10.92h-.64l6.34-10.92h1.22v14h-1.42V43.22h.34l-5.84 10h-.7l-5.88-10h.38V55h-1.42Zm21.258 0V41h11.78v14h-1.46V41.88l.38.4h-9.62l.38-.4V55h-1.46Zm19.824-7.74h7.4v1.26h-7.4v-1.26Zm.16 6.46h8.42V55h-9.9V41h9.6v1.28h-8.12v11.44ZM165.79 55V41h5.24c1.186 0 2.206.193 3.06.58.853.373 1.506.92 1.96 1.64.466.707.7 1.567.7 2.58 0 .987-.234 1.84-.7 2.56-.454.707-1.107 1.253-1.96 1.64-.854.387-1.874.58-3.06.58h-4.42l.66-.7V55h-1.48Zm1.48-5-.66-.72h4.38c1.4 0 2.46-.3 3.18-.9.733-.613 1.1-1.473 1.1-2.58 0-1.12-.367-1.987-1.1-2.6-.72-.613-1.78-.92-3.18-.92h-4.38l.66-.7V50Zm14.504 5V41h1.46v11.6l8.96-11.6h1.34v14h-1.46V43.42L183.114 55h-1.34Zm26.944 0v-4.64l.4.4h-4.58c-1.12 0-2.08-.193-2.88-.58-.786-.387-1.393-.933-1.82-1.64-.413-.72-.62-1.58-.62-2.58 0-1.067.227-1.967.68-2.7a4.223 4.223 0 0 1 1.92-1.68c.84-.387 1.814-.58 2.92-.58h5.44v14h-1.46Zm-9.5 0 3.44-4.92h1.52l-3.38 4.92h-1.58Zm9.5-5.06v-8.08l.4.42h-4.32c-1.306 0-2.32.313-3.04.94-.706.613-1.06 1.513-1.06 2.7 0 1.147.334 2.033 1 2.66.667.613 1.654.92 2.96.92h4.46l-.4.44ZM101.94 79l-5.38-6.98 1.2-.72 5.88 7.7h-1.7Zm-9.58 0V65h1.44v14h-1.44Zm1-6.42v-1.3h4.38v1.3h-4.38Zm4.52-.42-1.36-.24 5.22-6.92h1.6l-5.46 7.16Zm9.288 6.96a3.5 3.5 0 0 1-.54-.04 3.533 3.533 0 0 1-.58-.1l.12-1.32a2.9 2.9 0 0 0 .66.08c.6 0 1.08-.233 1.44-.7.373-.48.653-1.213.84-2.2.187-1 .307-2.28.36-3.84l.2-6h9.5v14h-1.46V65.88l.38.4h-7.48l.36-.42-.18 5.1c-.053 1.4-.153 2.613-.3 3.64-.147 1.013-.36 1.86-.64 2.54-.28.667-.64 1.167-1.08 1.5-.44.32-.973.48-1.6.48Zm18.723-.12V65h1.46v11.6l8.96-11.6h1.34v14h-1.46V67.42L127.231 79h-1.34Zm18.485 0V65h1.22l6.4 10.92h-.64l6.34-10.92h1.22v14h-1.42V67.22h.34l-5.84 10h-.7l-5.88-10h.38V79h-1.42Zm19.197 0 6.4-14h1.46l6.4 14h-1.56l-5.88-13.14h.6L165.113 79h-1.54Zm2.52-3.74.44-1.2h8.14l.44 1.2h-9.02Zm18.5 3.74V65.88l.4.4h-5.32V65h11.3v1.28h-5.3l.38-.4V79h-1.46Zm8.215 0 6.4-14h1.46l6.4 14h-1.56l-5.88-13.14h.6L194.348 79h-1.54Zm2.52-3.74.44-1.2h8.14l.44 1.2h-9.02ZM64.904 27.075a1.375 1.375 0 0 0-.45.444c-.02.04-.093.148-.164.239-.144.189-.463.69-.803 1.256-.665 1.113-3.168 4.892-4.102 6.194-.438.61-1.087 1.4-2.296 2.794l-1.196 1.385c-1.135 1.322-2.316 2.558-2.653 2.78-.08.053-.2.113-.265.133-.257.08-.906-.02-1.513-.236-.173-.06-.423-.151-.554-.197-.534-.191-2.06-.579-3.11-.79-1.026-.207-2.877-.35-4.153-.323-1.16.026-3.178.24-3.99.426-.85.191-2.536.672-3.063.874-1.135.428-1.812.732-2.648 1.19-1.863 1.018-2.294 1.307-3.472 2.317a36.374 36.374 0 0 0-2.15 1.981c-.69.692-.695.698-1.3 1.5-.332.444-.765 1.01-.959 1.262-.337.433-.36.458-.508.524-.287.128-.904.322-2.631.82-1.486.431-2.14.627-2.908.87-1.959.621-2.946 1.077-2.946 1.359 0 .128.154.153.707.113a16.495 16.495 0 0 0 2.44-.355c.499-.113 2.581-.65 3.175-.816.353-.1 1.385-.413 1.49-.455.026-.01-.005.062-.085.196-.34.559-.881 1.84-1.269 2.99-.574 1.708-.964 4.004-1.035 6.094-.022.677.05 2.928.104 3.165.014.06-.033.078-.567.231-.838.24-1.425.368-2.92.642a61.555 61.555 0 0 1-3.94.62c-2.224.292-3.218.382-5.955.554-3.062.189-3.402.2-6.234.2-2.598.004-2.462-.007-2.775.19-.085.053-.206.267-.206.36 0 .186.287.433.632.544.246.078.413.108.879.15 2.059.2 4.19.19 8.157-.034 2.276-.129 2.639-.157 4.52-.355 1.341-.142 4.483-.489 5.085-.564 2.178-.275 5.388-.778 8.185-1.284 1.8-.328 2.178-.416 2.528-.592.433-.22.47-.393.438-2.002a60.53 60.53 0 0 1-.018-1.35c.013-.649.335-2.457.6-3.355.16-.552.914-2.442 1.23-3.105.232-.476.303-.584.93-1.425.954-1.286 1.498-2.102 1.863-2.787.343-.647.436-1.08.29-1.367-.124-.25-.61-.28-1.569-.103-.179.032-.944.201-1.7.375-1.702.393-2.026.466-2.643.58-.584.107-.843.17-1.448.351a32.2 32.2 0 0 1-1.407.39c-.141.03-.277 0-.317-.075-.036-.068.03-.264.153-.453.214-.332.567-.637.917-.793.418-.186 1.457-.569 3.109-1.14l1.8-.628c1.184-.415 2.84-.979 3.022-1.027.34-.093.725-.229 1.057-.378.78-.347 1.309-.5 1.712-.498.41 0 .62.103 1.035.504.342.332.561.74.667 1.253.07.345.063.572-.028.826-.179.491-.803 1.478-1.732 2.737-.65.879-1.344 2.012-1.634 2.656-.267.594-.531 1.768-.614 2.732-.033.373-.018 1.057.028 1.297.193 1.034 1.057 1.838 2.308 2.145.365.088.695.093.977.01.765-.222 2.286-.977 2.878-1.43.763-.584 2.296-2.082 3.14-3.067.57-.667 1.643-2.195 2.22-3.16.27-.45.383-.657.927-1.686.526-.998.639-1.196 1.04-1.838.569-.912 1.009-1.549 1.42-2.047.961-1.169 1.656-1.929 3.016-3.304 3.598-3.635 5.516-5.645 6.938-7.263a125.85 125.85 0 0 0 2.815-3.41c.486-.608 1.75-2.472 2.03-2.996.208-.384.395-.989.453-1.46.032-.274.038-1.052.005-1.115a.705.705 0 0 1-.043-.159c-.025-.158-.159-.503-.222-.573-.073-.079-.485-.333-.541-.333a.887.887 0 0 0-.184.075Zm.708 9.359c-.226.038-.564.194-.881.413-.46.315-.831.685-1.523 1.52-1.256 1.519-1.48 1.77-2.057 2.3-.511.47-.708.631-1.209.991-.5.36-.677.516-.846.743-.357.483-.51.942-.516 1.518 0 .368.03.489.133.541.273.142.874-.115 1.776-.755.18-.126.468-.32.639-.428.174-.108.536-.365.806-.569.559-.418 2.475-1.986 2.719-2.22.342-.333.69-.794.866-1.144.357-.705.473-1.238.48-2.172.003-.423-.002-.474-.047-.552-.083-.14-.207-.209-.34-.186Zm-1.209 8.754c-.489.139-1.174.514-2.004 1.1-1.204.851-1.39.962-1.886 1.131a5.34 5.34 0 0 0-.554.221c-.224.124-.388.313-.708.826-.13.21-.3.464-.377.567-.26.347-.363.645-.287.828a.316.316 0 0 0 .276.201c.237 0 .95-.178 1.587-.395.775-.264 2.208-.977 2.92-1.45.645-.43 1.247-.947 1.513-1.3.225-.299.3-.697.202-1.084-.063-.257-.207-.557-.297-.63-.076-.058-.21-.063-.385-.015Z" fill="#1D1D1F"/><path d="M36.731 47.93c-.237.088-.529.367-.58.551a.683.683 0 0 0 .222.642c.08.06.114.07.257.07.191-.002.355-.05.657-.198.378-.184.499-.358.428-.62-.035-.133-.199-.312-.365-.397-.154-.078-.47-.104-.619-.048Zm25.319 5.015c-.848.154-2.193.7-2.558 1.04-.317.292-.692.957-1.898 3.354-.967 1.92-1.191 2.339-1.453 2.706-1.372 1.916-2.91 3.877-3.568 4.542-.342.35-.551.474-1.18.698-.464.166-.663.27-.831.425-.161.149-.335.433-.277.453.017.005.191.06.385.124 2.518.8 5.373 2.125 6.591 3.056.08.06.142.116.136.121a.793.793 0 0 1-.19-.066c-.512-.209-.85-.289-1.67-.39a37.932 37.932 0 0 1-1.027-.138c-.74-.109-.965-.101-1.136.043l-.08.068.015.254c.022.41.133.66.34.765.214.109.78.234 1.663.368a24.45 24.45 0 0 1 2.005.388c.41.095.694.153 1.46.29.582.105.566.097.896.435.388.398.755.876.917 1.188l.043.086-.061-.015c-.262-.066-2.404-.378-3.72-.547-1.867-.236-2.46-.287-2.647-.221-.327.11-.577.509-.577.911.003.275.139.46.451.62.292.145.4.165 2.432.44 1.158.156 1.354.194 2.39.443 1.072.26 1.42.325 1.767.343.282.012.317.01.42-.04.335-.162 1.073-1.481 2.233-3.994.4-.868.63-1.48.882-2.374.486-1.71.687-3.072.805-5.491.064-1.259.02-1.936-.229-3.628-.234-1.596-.52-3.009-.753-3.706-.301-.904-.813-1.934-1.175-2.377-.166-.207-.378-.252-.801-.174ZM32.242 70.27c-.07.18.083.589.393 1.047.458.685 1.558 1.803 2.65 2.692.711.581 1.501 1.105 1.851 1.228l.129.045-.12.015a98.24 98.24 0 0 1-2.275.232l-1.623.154c-2.468.236-3.684.322-5.061.352l-.715.018.038.088c.211.509 2.041 2.195 3.85 3.552 1.676 1.254 4 2.425 6.28 3.163 1.338.43 2.6.627 4.634.72.73.033 2.827.018 3.449-.025 1.765-.124 2.925-.305 4.053-.632.426-.126.68-.22 1.712-.635a26.8 26.8 0 0 1 .91-.347l.317-.11.45.311a31.595 31.595 0 0 1 3.157 2.455c.51.453 1.526 1.475 2.153 2.165.292.317.992 1.083 1.561 1.7 2.22 2.41 3.054 3.336 3.875 4.315.23.272.254.292.284.252.07-.096.096-.252.091-.577-.005-.463-.043-.72-.136-.916-.217-.463-1.11-1.785-2.183-3.225-2.666-3.578-5.352-6.61-6.672-7.523a2.998 2.998 0 0 0-.302-.192l-.108-.055.194-.123c.231-.147.677-.469 1.054-.763a62.614 62.614 0 0 0 2.193-1.846c.05-.048.058-.048.353.015.164.033.566.114.891.177 1.617.317 2.203.513 3.827 1.278.698.328 1.282.57 1.5.622.316.071.494-.093.494-.453.003-.506-.423-1.264-.916-1.636-.665-.504-2.281-1.158-4.19-1.697-1.18-.335-1.767-.461-2.968-.63-2.133-.302-3.394-.425-4.368-.425-.527-.003-.635.005-.982.066-.214.035-.572.095-.793.13-.713.114-1.047.232-1.292.454-.184.166-.242.286-.224.46.015.146.138.43.272.627.322.478 1.18 1.377 1.747 1.83.194.157.552.441.793.632.504.403.992.877 1.083 1.048l.06.118-.063.12c-.075.147-.216.263-.418.34-.193.077-.632.087-.83.016-.162-.055-.602-.31-2.01-1.15-3.003-1.796-2.897-1.738-4.833-2.606-.61-.275-1.453-.66-1.876-.856l-.768-.358-.302-.043c-1.342-.194-2.676-.64-4.24-1.425-1.017-.508-1.984-1.193-3.679-2.603-1.185-.987-1.669-1.35-2.019-1.513-.236-.109-.312-.126-.332-.073Zm-19.15 21.954c0 .033.146.174.163.16.006-.008-.027-.054-.075-.099-.048-.048-.088-.073-.088-.06Z" fill="#1D1D1F"/></svg>