<svg width="45" height="48" fill="none" xmlns="http://www.w3.org/2000/svg"><path d="M15.36 42.816c-5.568 0-10.176-4.608-10.176-10.176m21.696-9.792c2.88-5.376 5.76-9.984 5.76-9.984S43.392 30.528 43.392 36.48c0 5.952-4.8 10.752-10.752 10.752-3.072 0-5.952-1.344-7.872-3.456M29.76 32.64c0 8.064-6.528 14.4-14.4 14.4-8.064 0-14.4-6.528-14.4-14.4C.96 24.576 15.36.96 15.36.96s14.4 23.616 14.4 31.68Z" stroke="url(#a)" stroke-width="2" stroke-miterlimit="10" stroke-linejoin="round"/><defs><linearGradient id="a" x1="40.74" y1="11.848" x2="-.267" y2="22.815" gradientUnits="userSpaceOnUse"><stop stop-color="#5CBEDF"/><stop offset=".521" stop-color="#6BA2F3"/><stop offset="1" stop-color="#7593FA"/></linearGradient></defs></svg>