<svg width="49" height="49" fill="none" xmlns="http://www.w3.org/2000/svg"><path d="M17.896 16.128a1 1 0 0 0-1 1v17.856h2v-7.832h6.872v-2h-6.872v-7.024h9.944v-2H17.896Z" fill="url(#a)"/><path fill-rule="evenodd" clip-rule="evenodd" d="M32.68 9.984a3.112 3.112 0 1 0 0 6.224 3.112 3.112 0 0 0 0-6.224Zm-1.112 3.112a1.112 1.112 0 1 1 2.224 0 1.112 1.112 0 0 1-2.224 0Z" fill="url(#b)"/><path fill-rule="evenodd" clip-rule="evenodd" d="M17.512 0C7.736 0 0 7.943 0 17.512v13.056C0 40.344 7.943 48.08 17.512 48.08h13.056c9.765 0 17.5-7.736 17.704-17.299V17.512C48.272 7.736 40.329 0 30.76 0H17.512ZM2 17.512C2 9.032 8.856 2 17.512 2H30.76c8.48 0 15.512 6.856 15.512 15.512v13.237A15.638 15.638 0 0 1 30.568 46.08H17.512C9.032 46.08 2 39.224 2 30.568V17.512Z" fill="url(#c)"/><defs><linearGradient id="a" x1="45.255" y1="11.313" x2="-.785" y2="24.795" gradientUnits="userSpaceOnUse"><stop stop-color="#5CBEDF"/><stop offset=".521" stop-color="#6BA2F3"/><stop offset="1" stop-color="#7593FA"/></linearGradient><linearGradient id="b" x1="45.255" y1="11.313" x2="-.785" y2="24.795" gradientUnits="userSpaceOnUse"><stop stop-color="#5CBEDF"/><stop offset=".521" stop-color="#6BA2F3"/><stop offset="1" stop-color="#7593FA"/></linearGradient><linearGradient id="c" x1="45.255" y1="11.313" x2="-.785" y2="24.795" gradientUnits="userSpaceOnUse"><stop stop-color="#5CBEDF"/><stop offset=".521" stop-color="#6BA2F3"/><stop offset="1" stop-color="#7593FA"/></linearGradient></defs></svg>