<svg width="32" height="32" fill="none" xmlns="http://www.w3.org/2000/svg"><path d="M16 29.333c7.364 0 13.333-5.97 13.333-13.333 0-7.364-5.97-13.333-13.333-13.333C8.636 2.667 2.666 8.637 2.666 16c0 7.364 5.97 13.333 13.334 13.333Z" stroke="url(#a)" stroke-width="2" stroke-linecap="round" stroke-linejoin="round"/><path d="M10.666 4H12a37.898 37.898 0 0 0 0 24h-1.334" stroke="url(#b)" stroke-width="2" stroke-linecap="round" stroke-linejoin="round"/><path d="M20 4a37.898 37.898 0 0 1 0 24" stroke="url(#c)" stroke-width="2" stroke-linecap="round" stroke-linejoin="round"/><path d="M4 21.333V20a37.898 37.898 0 0 0 24 0v1.333" stroke="url(#d)" stroke-width="2" stroke-linecap="round" stroke-linejoin="round"/><path d="M4 12a37.899 37.899 0 0 1 24 0" stroke="url(#e)" stroke-width="2" stroke-linecap="round" stroke-linejoin="round"/><defs><linearGradient id="a" x1="27.666" y1="8.941" x2="2.217" y2="16.364" gradientUnits="userSpaceOnUse"><stop stop-color="#5CBEDF"/><stop offset=".521" stop-color="#6BA2F3"/><stop offset="1" stop-color="#7593FA"/></linearGradient><linearGradient id="b" x1="11.878" y1="9.647" x2="9.86" y2="9.695" gradientUnits="userSpaceOnUse"><stop stop-color="#5CBEDF"/><stop offset=".521" stop-color="#6BA2F3"/><stop offset="1" stop-color="#7593FA"/></linearGradient><linearGradient id="c" x1="21.828" y1="9.647" x2="19.81" y2="9.695" gradientUnits="userSpaceOnUse"><stop stop-color="#5CBEDF"/><stop offset=".521" stop-color="#6BA2F3"/><stop offset="1" stop-color="#7593FA"/></linearGradient><linearGradient id="d" x1="26.5" y1="20.459" x2="24.71" y2="26.884" gradientUnits="userSpaceOnUse"><stop stop-color="#5CBEDF"/><stop offset=".521" stop-color="#6BA2F3"/><stop offset="1" stop-color="#7593FA"/></linearGradient><linearGradient id="e" x1="26.5" y1="10.509" x2="24.71" y2="16.934" gradientUnits="userSpaceOnUse"><stop stop-color="#5CBEDF"/><stop offset=".521" stop-color="#6BA2F3"/><stop offset="1" stop-color="#7593FA"/></linearGradient></defs></svg>