<svg width="24" height="24" fill="none" xmlns="http://www.w3.org/2000/svg"><path fill-rule="evenodd" clip-rule="evenodd" d="M12 24C5.373 24 0 18.628 0 12 0 5.373 5.373 0 12 0s12 5.373 12 12c0 6.628-5.373 12-12 12Zm.519-14.994a524.534 524.534 0 0 0-6.444 2.775c-.523.208-.797.412-.822.61-.042.337.379.47.952.65l.242.077c.564.183 1.323.398 1.718.406.358.008.757-.14 1.198-.442 3.01-2.032 4.563-3.059 4.66-3.081.07-.016.165-.035.23.022.064.058.058.166.05.196-.04.177-1.694 1.714-2.55 2.51-.266.247-.455.423-.494.463-.086.09-.175.175-.26.257-.524.506-.917.885.022 1.503.451.298.813.543 1.173.789.393.268.785.535 1.293.868.13.084.253.172.373.258.458.327.87.62 1.378.573.295-.027.6-.305.755-1.133.366-1.957 1.085-6.197 1.252-7.944a1.954 1.954 0 0 0-.019-.435.465.465 0 0 0-.157-.3c-.133-.107-.337-.13-.428-.128-.416.008-1.053.23-4.122 1.506Z" fill="#1D1D1F"/></svg>