<svg width="40" height="21" fill="none" xmlns="http://www.w3.org/2000/svg"><path d="M32.075 8.776c1.465 0 2.752.77 3.49 1.93V5.777a7.8 7.8 0 0 0-3.49-.821 7.863 7.863 0 0 0-5.55 2.29 8.856 8.856 0 0 1 1.855 3.801 4.143 4.143 0 0 1 3.695-2.272Z" fill="#6C6C77"/><path d="M36.226 3.85v9.128c0 2.321-1.858 4.202-4.15 4.202-2.294 0-4.152-1.901-4.152-4.222 0-1.977-.7-3.799-1.86-5.213C24.61 5.969 22.432 4.833 20 4.833c-.222 0-.442.01-.66.029-2.149.182-4.056 1.241-5.377 2.826-1.454-1.747-3.62-2.855-6.038-2.855C3.554 4.833 0 8.459 0 12.916v4.235C0 19.277 1.69 21 3.774 21v-8.084c0-2.338 1.858-4.234 4.15-4.234 2.294 0 4.152 1.896 4.152 4.234v4.235c0 2.126 1.689 3.849 3.773 3.849v-8.084c0-2.109 1.512-3.858 3.49-4.18.216-.035.437-.054.661-.054 2.293 0 4.151 1.937 4.151 4.275 0 4.424 3.555 8.043 7.924 8.043C36.445 21 40 17.401 40 12.978V0c-2.083 0-3.773 1.723-3.773 3.85Z" fill="#6C6C77"/></svg>