<svg width="179" height="51" fill="none" xmlns="http://www.w3.org/2000/svg"><path d="M71.744 9.8h1.584v8.64l6.624-8.64h1.472V21h-1.568v-8.624L73.216 21h-1.472V9.8ZM96.9 21l-.016-8.16-4.048 6.8H92.1l-4.048-6.752V21h-1.536V9.8h1.312l4.672 7.872L97.108 9.8h1.312l.016 11.2H96.9Zm16.27-11.2V21h-1.568v-9.808h-6.496V21h-1.584V9.8h9.648Zm13.221 9.808V21h-8.128V9.8h7.904v1.392h-6.304v3.44h5.616v1.36h-5.616v3.616h6.528Zm8.48-9.808c1.451 0 2.592.347 3.424 1.04.832.693 1.248 1.648 1.248 2.864s-.416 2.17-1.248 2.864c-.832.693-1.973 1.04-3.424 1.04h-2.768V21h-1.6V9.8h4.368Zm-.048 6.416c1.014 0 1.787-.213 2.32-.64.534-.437.8-1.061.8-1.872 0-.81-.266-1.43-.8-1.856-.533-.437-1.306-.656-2.32-.656h-2.72v5.024h2.72Zm8.546-6.416h1.584v8.64l6.624-8.64h1.472V21h-1.568v-8.624L144.841 21h-1.472V9.8Zm22.98 0V21h-1.568v-3.264h-3.088c-.192 0-.336-.005-.432-.016l-2.24 3.28h-1.696l2.48-3.552c-.8-.267-1.413-.71-1.84-1.328-.427-.63-.64-1.392-.64-2.288 0-1.27.405-2.256 1.216-2.96.821-.715 1.925-1.072 3.312-1.072h4.496Zm-7.408 4.016c0 .832.24 1.472.72 1.92.491.437 1.211.656 2.16.656h2.96v-5.2h-2.864c-.96 0-1.696.224-2.208.672-.512.448-.768 1.099-.768 1.952ZM75.648 36.072h-2.336V41h-1.568V29.8h1.568v4.864h2.368L79.2 29.8h1.712l-4 5.424L81.104 41H79.28l-3.632-4.928ZM93.73 29.8V41h-1.568v-9.808h-4.96l-.112 3.28c-.053 1.547-.181 2.8-.384 3.76-.192.96-.501 1.685-.928 2.176-.426.48-1.002.72-1.728.72A4.17 4.17 0 0 1 83.042 41l.112-1.424c.171.043.342.064.512.064a1.32 1.32 0 0 0 1.104-.544c.278-.373.486-.928.624-1.664.139-.736.23-1.707.272-2.912l.176-4.72h7.888Zm5.089 0h1.584v8.64l6.624-8.64h1.472V41h-1.568v-8.624L100.291 41h-1.472V29.8ZM123.975 41l-.016-8.16-4.048 6.8h-.736l-4.048-6.752V41h-1.536V29.8h1.312l4.672 7.872 4.608-7.872h1.312l.016 11.2h-1.536Zm13.902-2.8h-5.952l-1.232 2.8h-1.648l5.072-11.2h1.584l5.088 11.2h-1.68l-1.232-2.8Zm-.56-1.28-2.416-5.488-2.416 5.488h4.832Zm14.139-5.728h-3.84V41h-1.568v-9.808h-3.824V29.8h9.232v1.392Zm10.262 7.008h-5.952l-1.232 2.8h-1.648l5.072-11.2h1.584L164.63 41h-1.68l-1.232-2.8Zm-.56-1.28-2.416-5.488-2.416 5.488h4.832ZM49.143.057c-.11.055-.29.233-.341.336-.016.03-.07.112-.124.181-.11.143-.351.522-.609.951-.503.843-2.398 3.704-3.105 4.69-.332.461-.823 1.06-1.739 2.115-.304.351-.71.824-.905 1.05-.86 1-1.754 1.936-2.01 2.104a.987.987 0 0 1-.2.1c-.194.062-.685-.015-1.145-.179-.132-.045-.32-.114-.42-.148-.404-.145-1.559-.439-2.354-.599-.778-.156-2.179-.265-3.145-.244-.879.02-2.406.181-3.022.322-.642.145-1.92.51-2.318.662-.86.324-1.372.555-2.005.902-1.41.77-1.737.989-2.63 1.753-.62.532-1.095.97-1.627 1.5-.522.525-.526.529-.984 1.137a108.8 108.8 0 0 1-.726.955c-.255.328-.273.347-.385.396-.217.097-.684.244-1.992.622-1.125.326-1.62.474-2.202.657-1.483.471-2.23.816-2.23 1.03 0 .097.116.116.535.086a12.433 12.433 0 0 0 1.848-.269 99.858 99.858 0 0 0 2.403-.618 36.04 36.04 0 0 0 1.129-.345c.019-.008-.004.048-.065.149-.257.423-.667 1.393-.96 2.264-.435 1.293-.73 3.032-.784 4.614-.017.513.038 2.217.078 2.396.011.046-.025.06-.429.175-.635.182-1.079.279-2.211.486-1.32.24-1.681.298-2.983.47-1.684.22-2.437.29-4.509.419-2.318.143-2.575.152-4.72.152-1.967.002-1.864-.005-2.1.143a.474.474 0 0 0-.157.273c0 .14.217.328.478.412.187.059.313.082.666.114 1.559.15 3.172.143 6.176-.026 1.724-.098 1.998-.119 3.422-.27a411.79 411.79 0 0 0 3.85-.426c1.65-.208 4.08-.59 6.198-.973 1.363-.247 1.65-.314 1.914-.448.328-.165.357-.297.332-1.515a46.2 46.2 0 0 1-.014-1.022c.01-.492.254-1.86.454-2.54.122-.419.692-1.85.932-2.351.176-.36.229-.443.704-1.08.722-.974 1.134-1.591 1.41-2.11.26-.49.33-.817.22-1.035-.094-.189-.462-.212-1.188-.078-.135.025-.715.152-1.287.284-1.289.297-1.534.353-2.001.439-.443.081-.639.13-1.096.266-.367.11-.914.262-1.066.296-.107.023-.21 0-.24-.057-.027-.052.023-.2.116-.343.162-.252.429-.483.694-.601.316-.141 1.104-.43 2.354-.863l1.363-.475a93.79 93.79 0 0 1 2.288-.778c.257-.07.549-.173.8-.286.591-.263.992-.38 1.297-.377.31 0 .469.078.783.38.26.253.425.561.505.95.054.261.048.433-.02.626-.136.371-.609 1.119-1.312 2.072-.492.665-1.018 1.523-1.237 2.01-.203.45-.403 1.339-.466 2.07-.024.281-.013.8.022.981.146.783.8 1.392 1.748 1.624.276.067.526.07.74.008.579-.168 1.73-.74 2.178-1.083.578-.442 1.739-1.576 2.377-2.322.433-.505 1.245-1.662 1.682-2.392.204-.342.29-.498.701-1.277.399-.755.484-.906.788-1.392.43-.69.764-1.173 1.075-1.55.728-.885 1.254-1.46 2.283-2.501 2.725-2.753 4.177-4.274 5.254-5.5.43-.49 1.373-1.632 2.131-2.58.368-.462 1.325-1.873 1.537-2.27.158-.291.3-.749.343-1.105.025-.208.029-.797.004-.845a.531.531 0 0 1-.032-.12c-.02-.12-.12-.381-.168-.434-.055-.06-.368-.252-.41-.252a.675.675 0 0 0-.14.057Zm.535 7.086c-.172.028-.427.147-.667.313-.35.238-.63.518-1.154 1.15-.95 1.15-1.12 1.341-1.557 1.741a7.76 7.76 0 0 1-.915.751c-.38.273-.513.391-.64.563a1.837 1.837 0 0 0-.392 1.15c0 .278.023.37.102.41.206.106.661-.088 1.344-.573.137-.095.354-.242.484-.324.131-.082.406-.276.61-.43.423-.317 1.874-1.505 2.059-1.682.259-.252.522-.6.655-.865.271-.534.359-.938.364-1.646.002-.32-.001-.358-.036-.417-.063-.107-.156-.158-.257-.141Zm-.914 6.628c-.37.105-.889.389-1.518.833-.911.645-1.052.728-1.428.856-.156.053-.345.13-.419.168-.17.093-.294.236-.536.625a7.31 7.31 0 0 1-.286.429c-.196.263-.274.488-.217.627a.24.24 0 0 0 .21.153c.179 0 .718-.136 1.2-.3.588-.2 1.672-.74 2.212-1.098.488-.325.944-.716 1.146-.983a.97.97 0 0 0 .152-.822c-.047-.194-.156-.421-.225-.476-.057-.044-.158-.048-.291-.012Z" fill="#1D1D1F"/><path d="M27.811 15.847c-.18.067-.4.278-.438.418a.517.517 0 0 0 .168.486c.06.046.085.053.194.053.145-.002.269-.038.497-.15.287-.14.378-.271.324-.47-.026-.1-.15-.236-.276-.3a.754.754 0 0 0-.469-.037Zm19.17 3.798c-.642.116-1.66.53-1.937.787-.24.221-.524.725-1.437 2.54-.732 1.454-.901 1.77-1.1 2.049-1.039 1.45-2.204 2.935-2.701 3.438-.26.266-.418.359-.894.529-.35.125-.502.204-.63.322-.121.112-.253.328-.209.343l.292.093c1.906.606 4.068 1.61 4.99 2.315a.427.427 0 0 1 .103.091.598.598 0 0 1-.145-.05c-.387-.158-.642-.219-1.264-.295a29.096 29.096 0 0 1-.777-.105c-.56-.082-.73-.076-.86.032l-.06.052.01.192c.018.311.102.5.258.58.162.082.59.177 1.26.279.486.072 1.02.175 1.517.293.311.072.526.116 1.106.22.44.08.429.074.678.329.294.301.572.663.695.9l.032.065-.046-.012c-.198-.05-1.82-.286-2.817-.413-1.413-.18-1.863-.218-2.004-.168-.248.084-.436.385-.436.69.001.208.105.349.341.469.221.11.303.126 1.841.333.877.119 1.026.147 1.81.336.811.196 1.075.246 1.338.26.213.009.24.007.318-.031.254-.122.812-1.121 1.69-3.024a10.95 10.95 0 0 0 .668-1.797c.368-1.295.52-2.326.61-4.158.048-.953.015-1.466-.173-2.747-.178-1.209-.395-2.278-.57-2.806-.229-.685-.616-1.464-.89-1.8-.126-.156-.287-.19-.607-.131Zm-22.57 13.117c-.053.137.063.446.298.793.347.519 1.18 1.365 2.007 2.038.538.44 1.136.837 1.401.93l.098.034-.092.012a75.11 75.11 0 0 1-1.722.175c-.404.038-.956.09-1.229.117-1.868.179-2.789.244-3.832.267l-.541.013.029.067c.16.385 1.546 1.662 2.914 2.69 1.27.949 3.03 1.835 4.756 2.394 1.013.326 1.968.474 3.508.545a39.4 39.4 0 0 0 2.612-.02c1.336-.093 2.215-.23 3.069-.478.322-.095.515-.166 1.296-.48.246-.1.557-.217.688-.263l.24-.084.342.236a23.902 23.902 0 0 1 2.39 1.859 28.209 28.209 0 0 1 1.63 1.64c.221.24.751.82 1.182 1.286 1.681 1.825 2.313 2.526 2.934 3.268.173.205.193.22.215.19.054-.072.073-.19.069-.436-.004-.351-.032-.545-.103-.694-.164-.35-.84-1.352-1.653-2.442-2.018-2.709-4.052-5.004-5.051-5.696a2.26 2.26 0 0 0-.23-.145l-.081-.042.147-.093c.175-.111.513-.355.798-.578.382-.3 1.272-1.049 1.66-1.398.039-.036.045-.036.268.012.124.025.428.086.675.134 1.223.24 1.668.388 2.897.968.528.248.97.43 1.136.47.238.054.374-.07.374-.342.002-.384-.32-.957-.694-1.24-.503-.38-1.727-.876-3.172-1.285a13.947 13.947 0 0 0-2.248-.476c-1.614-.229-2.57-.322-3.307-.322-.399-.002-.48.004-.743.05l-.601.099c-.54.085-.793.175-.978.343-.14.126-.183.217-.17.349.012.11.105.326.206.474.244.362.894 1.043 1.323 1.386l.6.478c.382.306.752.664.82.794l.046.09-.047.09a.57.57 0 0 1-.317.258 1.212 1.212 0 0 1-.629.012c-.122-.042-.456-.235-1.521-.872-2.274-1.359-2.194-1.315-3.66-1.973-.462-.207-1.1-.5-1.42-.648l-.582-.27-.229-.033c-1.016-.147-2.026-.484-3.21-1.079-.77-.385-1.502-.903-2.785-1.971-.898-.747-1.264-1.022-1.529-1.146-.18-.082-.236-.095-.252-.055ZM9.912 49.385c0 .025.11.132.124.12.004-.006-.02-.04-.057-.074-.036-.036-.067-.055-.067-.046Z" fill="#1D1D1F"/></svg>