<svg width="24" height="19" fill="none" xmlns="http://www.w3.org/2000/svg"><g clip-path="url(#a)"><path d="M0 .5h24v18H0V.5Z" fill="#DE2910"/><path d="M2.88 7.16 4.5 2.3l1.62 4.86L1.8 4.19h5.4L2.88 7.16Zm7.026-4.767-1.667.37 1.112-1.296-.109 1.744-.925-1.544 1.59.726Zm1.684 2.132L9.91 4.22l1.527-.763-.777 1.565-.254-1.782 1.183 1.286Zm-.246 2.992-1.41-.965 1.707-.073-1.348 1.112.495-1.73.556 1.656Zm-2.12 1.954-.927-1.434 1.602.591-1.672.506 1.125-1.405-.128 1.742Z" fill="#FFDE00"/></g><defs><clipPath id="a"><path fill="#fff" transform="translate(0 .5)" d="M0 0h24v18H0z"/></clipPath></defs></svg>