<svg width="32" height="32" viewBox="0 0 32 32" fill="none" xmlns="http://www.w3.org/2000/svg">
<path d="M11.3332 25.3334H10.6665C5.33317 25.3334 2.6665 24.0001 2.6665 17.3334V10.6667C2.6665 5.33341 5.33317 2.66675 10.6665 2.66675H21.3332C26.6665 2.66675 29.3332 5.33341 29.3332 10.6667V17.3334C29.3332 22.6667 26.6665 25.3334 21.3332 25.3334H20.6665C20.2532 25.3334 19.8532 25.5334 19.5998 25.8667L17.5998 28.5334C16.7198 29.7067 15.2798 29.7067 14.3998 28.5334L12.3998 25.8667C12.1865 25.5734 11.6932 25.3334 11.3332 25.3334Z" stroke="url(#paint0_linear_302_600)" stroke-width="2" stroke-miterlimit="10" stroke-linecap="round" stroke-linejoin="round"/>
<path d="M21.3288 14.6667H21.3408" stroke="url(#paint1_linear_302_600)" stroke-width="2" stroke-linecap="round" stroke-linejoin="round"/>
<path d="M15.9938 14.6667H16.0058" stroke="url(#paint2_linear_302_600)" stroke-width="2" stroke-linecap="round" stroke-linejoin="round"/>
<path d="M10.6593 14.6667H10.6713" stroke="url(#paint3_linear_302_600)" stroke-width="2" stroke-linecap="round" stroke-linejoin="round"/>
<defs>
<linearGradient id="paint0_linear_302_600" x1="27.6665" y1="8.96008" x2="2.20517" y2="16.3641" gradientUnits="userSpaceOnUse">
<stop stop-color="#5CBEDF"/>
<stop offset="0.520833" stop-color="#6BA2F3"/>
<stop offset="1" stop-color="#7593FA"/>
</linearGradient>
<linearGradient id="paint1_linear_302_600" x1="21.9169" y1="14.3137" x2="20.6466" y2="14.6835" gradientUnits="userSpaceOnUse">
<stop stop-color="#5CBEDF"/>
<stop offset="0.520833" stop-color="#6BA2F3"/>
<stop offset="1" stop-color="#7593FA"/>
</linearGradient>
<linearGradient id="paint2_linear_302_600" x1="16.582" y1="14.3137" x2="15.3116" y2="14.6835" gradientUnits="userSpaceOnUse">
<stop stop-color="#5CBEDF"/>
<stop offset="0.520833" stop-color="#6BA2F3"/>
<stop offset="1" stop-color="#7593FA"/>
</linearGradient>
<linearGradient id="paint3_linear_302_600" x1="11.2475" y1="14.3137" x2="9.97718" y2="14.6835" gradientUnits="userSpaceOnUse">
<stop stop-color="#5CBEDF"/>
<stop offset="0.520833" stop-color="#6BA2F3"/>
<stop offset="1" stop-color="#7593FA"/>
</linearGradient>
</defs>
</svg>
