<svg width="171" height="95" viewBox="0 0 171 95" fill="none" xmlns="http://www.w3.org/2000/svg">
<g clip-path="url(#clip0_690_7106)">
<path d="M170.868 27.4793L169.426 24.9931L168.508 25.9091L127.987 2.61707L88.5156 35.5923L130.872 60.062C137.167 63.595 173.884 33.106 170.868 27.4793Z" fill="url(#paint0_linear_690_7106)"/>
<path d="M136.905 71.4463V63.0717L111.858 56.2672L87.0736 42.135L44.9793 17.927C41.1764 15.7025 35.4064 15.4408 32.1281 17.4036L11.671 29.1805L0 26.04V38.0785C0.131135 39.5179 1.18022 40.9573 3.14724 42.0042L43.0123 65.0345L94.0238 94.4766C100.712 98.4022 135.725 78.905 136.774 72.1006C136.905 71.8389 136.905 71.708 136.905 71.4463Z" fill="url(#paint1_linear_690_7106)"/>
<path d="M168.902 24.4697C175.328 28.1336 135.988 61.2397 129.431 57.4449L87.0742 32.9752L126.546 0L168.902 24.4697Z" fill="url(#paint2_linear_690_7106)"/>
<path d="M130.741 56.7907C130.347 56.7907 130.085 56.7907 129.823 56.6598L88.6465 32.8444L126.676 1.04688L168.508 25.124C168.639 25.2549 168.901 25.3857 168.639 26.3017C167.721 29.573 160.902 37.0317 151.854 44.3596C142.674 51.8182 134.15 56.7907 130.741 56.7907Z" fill="url(#paint3_linear_690_7106)"/>
<path d="M130.742 56.3981C130.479 56.3981 130.348 56.3981 130.348 56.3981L90.0898 33.2369L126.677 2.61707L167.853 26.3016C167.853 26.3016 167.853 26.4325 167.853 26.5633C167.197 29.1804 161.296 36.1157 151.33 44.0978C142.413 51.4256 133.889 56.3981 130.742 56.3981Z" fill="url(#paint4_linear_690_7106)"/>
<path d="M87.0733 29.7039L45.2413 53.9119L3.14696 29.7039C-0.655953 27.4794 -1.04936 24.0771 2.22902 22.2452L32.1278 4.97246C35.4062 3.00965 41.1761 3.27136 44.979 5.49588L87.0733 29.7039Z" fill="url(#paint5_linear_690_7106)"/>
<path d="M64.5176 25.124C64.5176 24.6006 64.2553 23.9463 63.4685 23.5537L38.8151 9.29064C37.5038 8.50552 35.5368 8.50552 34.3566 9.15979L12.3259 21.8526C11.8013 22.1143 11.5391 22.5069 11.5391 22.8995V24.8623L13.375 24.9931L37.3727 38.8636C38.684 39.6488 40.651 39.6488 41.8312 38.9945L62.6817 26.9559L64.5176 27.0868V25.124Z" fill="url(#paint6_linear_690_7106)"/>
<path d="M135.988 61.2397C143.462 65.5579 101.499 89.635 94.1555 85.3168L45.2422 57.1832L87.0742 33.1061L135.988 61.2397Z" fill="url(#paint7_linear_690_7106)"/>
<path d="M63.8626 27.872L41.832 40.5648C40.6517 41.2191 38.6847 41.0882 37.3734 40.4339L12.5889 26.1709C11.2775 25.3857 11.1464 24.208 12.3266 23.5538L34.3573 10.8609C35.5375 10.2067 37.5045 10.3375 38.8159 10.9918L63.6004 25.2549C64.7806 26.04 64.9117 27.2177 63.8626 27.872Z" fill="url(#paint8_linear_690_7106)"/>
<path d="M121.956 56.1363L85.3698 77.2038L47.8652 55.6129L84.4519 34.5454L121.956 56.1363Z" fill="url(#paint9_linear_690_7106)"/>
<path d="M121.956 56.1363L109.76 63.2024L72.2559 41.4807L84.4514 34.5454L121.956 56.1363Z" fill="url(#paint10_linear_690_7106)"/>
<path d="M47.9957 16.3568L21.7687 31.405L21.2441 31.1433L47.34 15.9642L47.9957 16.3568Z" fill="#647E62"/>
<path d="M52.4535 34.4146L51.9289 34.6763L33.7012 24.208L34.2257 23.9463L52.4535 34.4146Z" fill="#647E62"/>
<path d="M60.9772 29.5731L60.3215 29.8348L42.0938 19.3664L42.7494 19.1047L60.9772 29.5731Z" fill="#647E62"/>
<path d="M25.3084 26.956L23.6036 27.872L17.0469 24.2081L18.7516 23.1613L25.3084 26.956Z" fill="url(#paint11_linear_690_7106)"/>
<path d="M28.5877 24.9931L26.8829 26.04L20.3262 22.2452L22.0309 21.1984L28.5877 24.9931Z" fill="url(#paint12_linear_690_7106)"/>
<path d="M32.1267 23.0304L30.422 23.9463L23.8652 20.2824L25.57 19.2356L32.1267 23.0304Z" fill="url(#paint13_linear_690_7106)"/>
<path d="M39.7342 18.5813L38.0294 19.6281L31.4727 15.8333L33.3085 14.7865L39.7342 18.5813Z" fill="url(#paint14_linear_690_7106)"/>
<path d="M43.0112 16.6185L41.3065 17.6653L34.8809 13.8706L36.5856 12.9546L43.0112 16.6185Z" fill="url(#paint15_linear_690_7106)"/>
<path d="M37.767 30.3582L32.7839 33.2369L27.8008 30.3582L32.7839 27.3485L37.767 30.3582Z" fill="url(#paint16_linear_690_7106)"/>
<path d="M87.0742 29.7039V32.9752L45.2422 57.1832V53.9118L87.0742 29.7039Z" fill="url(#paint17_linear_690_7106)"/>
<path d="M73.961 32.8444V31.0124L73.1742 31.2741C72.9119 31.0124 72.6497 30.8816 72.3874 30.7507H72.2563C70.2892 29.573 67.2731 29.4422 65.5684 30.489L49.4388 39.7796L45.1113 41.3499V43.1818V43.3127C45.1113 44.0978 45.6359 44.8829 46.6849 45.4064H46.8161C48.7831 46.584 51.7992 46.7149 53.504 45.6681L72.7808 34.5455C73.5676 34.1529 73.961 33.4986 73.961 32.8444Z" fill="url(#paint18_linear_690_7106)"/>
<path d="M46.947 43.5744C44.8489 42.3968 44.7177 40.6957 46.4225 39.6488L65.5682 28.5262C67.2729 27.4794 70.289 27.6103 72.2561 28.7879H72.3872C74.3542 29.9656 74.6165 31.6667 72.9117 32.5827L53.6349 43.7053C51.9301 44.7521 48.914 44.6213 46.947 43.5744Z" fill="url(#paint19_linear_690_7106)"/>
<path d="M65.305 52.4725L62.9445 52.865L62.2889 52.4725C61.7643 52.2108 60.9775 52.0799 60.5841 52.3416L58.8794 53.2576L54.9453 53.781V55.7438C54.9453 56.0055 55.0764 56.1364 55.3387 56.2672L57.9614 57.7066C58.486 57.9683 59.2728 58.0992 59.6662 57.8375L65.0427 54.697C65.305 54.5661 65.305 54.4353 65.305 54.3044V52.4725Z" fill="url(#paint20_linear_690_7106)"/>
<path d="M64.9124 52.9959L59.5359 56.1364C59.1425 56.3981 58.3557 56.3981 57.8311 56.0055L55.2084 54.5661C54.6839 54.3044 54.6839 53.781 55.0773 53.5193L60.4538 50.3788C60.8472 50.1171 61.6341 50.1171 62.1586 50.5097L64.7813 51.9491C65.3058 52.2108 65.437 52.7342 64.9124 52.9959Z" fill="url(#paint21_linear_690_7106)"/>
<path d="M89.6953 38.4711L87.3348 38.7328L86.6792 38.3403C86.1546 38.0786 85.3678 37.9477 84.9744 38.2094L83.2697 39.2563L77.6309 40.9574V42.9202C77.6309 43.1819 77.762 43.3127 78.0243 43.4436L80.647 44.883C81.1715 45.1447 81.9583 45.2755 82.3517 45.0138L89.433 40.8265C89.6953 40.6957 89.6953 40.5648 89.6953 40.4339V38.4711Z" fill="url(#paint22_linear_690_7106)"/>
<path d="M89.4336 38.8637L82.3523 43.051C81.9589 43.3127 81.1721 43.3127 80.6475 42.9202L78.0248 41.4808C77.5003 41.2191 77.5003 40.6956 77.8937 40.4339L84.975 36.2466C85.3684 35.9849 86.1552 35.9849 86.6797 36.3775L89.3024 37.8169C89.827 38.2094 89.827 38.602 89.4336 38.8637Z" fill="url(#paint23_linear_690_7106)"/>
<path d="M97.6956 43.051L95.3351 43.3127L94.6794 42.9201C94.1549 42.6584 93.3681 42.5276 92.9747 42.7893L91.2699 43.7052L85.5 45.4063V47.3692C85.5 47.6309 85.6311 47.7617 85.8934 47.8926L88.5161 49.332C89.0406 49.5937 89.8275 49.7245 90.2209 49.4628L97.3021 45.2755C97.5644 45.1446 97.5644 45.0138 97.5644 44.8829V43.051H97.6956Z" fill="url(#paint24_linear_690_7106)"/>
<path d="M97.4336 43.4435L90.3523 47.6308C89.9589 47.8926 89.1721 47.8926 88.6475 47.5L86.0248 46.0606C85.5003 45.7989 85.5003 45.2755 85.8937 45.0138L92.975 40.8264C93.3684 40.5647 94.1552 40.5647 94.6797 40.9573L97.3024 42.3967C97.827 42.6584 97.827 43.1818 97.4336 43.4435Z" fill="url(#paint25_linear_690_7106)"/>
<path d="M105.693 47.6309L103.333 47.8926L102.677 47.5001C102.153 47.2384 101.366 47.1075 100.972 47.3692L99.2677 48.416L93.6289 50.1171V52.08C93.6289 52.3417 93.76 52.4725 94.0223 52.6034L96.645 54.0428C97.1695 54.3045 97.9564 54.4353 98.3498 54.1736L105.431 49.9863C105.693 49.8554 105.693 49.7246 105.693 49.5937V47.6309Z" fill="url(#paint26_linear_690_7106)"/>
<path d="M105.432 48.0235L98.3503 52.2108C97.9569 52.4725 97.1701 52.4725 96.6456 52.0799L94.0229 50.6406C93.4983 50.3788 93.4983 49.8554 93.8918 49.5937L100.973 45.4064C101.366 45.1447 102.153 45.1447 102.678 45.5372L105.301 46.9766C105.825 47.2384 105.825 47.7618 105.432 48.0235Z" fill="url(#paint27_linear_690_7106)"/>
<path d="M113.693 52.0799L111.333 52.3416L110.677 51.949C110.153 51.6873 109.366 51.5565 108.972 51.8182L107.268 52.7342L101.629 54.4353V56.3981C101.629 56.6598 101.76 56.7906 102.022 56.9215L104.645 58.3609C105.17 58.6226 105.956 58.7535 106.35 58.4917L113.431 54.3044C113.693 54.1736 113.693 54.0427 113.693 53.9119V52.0799Z" fill="url(#paint28_linear_690_7106)"/>
<path d="M113.432 52.4724L106.35 56.6598C105.957 56.9215 105.17 56.9215 104.646 56.5289L102.023 55.0895C101.498 54.8278 101.498 54.3044 101.892 54.0427L108.973 49.8554C109.366 49.5937 110.153 49.5937 110.678 49.9862L113.3 51.4256C113.825 51.8182 113.825 52.3416 113.432 52.4724Z" fill="url(#paint29_linear_690_7106)"/>
<path d="M73.303 57.1832L70.9426 57.4449L70.2869 57.0523C69.7624 56.7906 68.9756 56.6598 68.5822 56.9215L66.8774 57.9683L62.9434 58.4917V60.4545C62.9434 60.7162 63.0745 60.8471 63.3368 60.9779L65.9595 62.4173C66.484 62.679 67.2708 62.8099 67.6642 62.5482L73.0408 59.4077C73.303 59.2768 73.303 59.146 73.303 59.0151V57.1832Z" fill="url(#paint30_linear_690_7106)"/>
<path d="M72.9105 57.5757L67.5339 60.7162C67.1405 60.9779 66.3537 60.9779 65.8292 60.5854L63.2065 59.146C62.6819 58.8843 62.6819 58.3608 63.0753 58.0991L68.4519 54.9586C68.8453 54.6969 69.6321 54.6969 70.1566 55.0895L72.7793 56.5289C73.3039 56.7906 73.435 57.314 72.9105 57.5757Z" fill="url(#paint31_linear_690_7106)"/>
<path d="M81.303 61.7631L78.9426 62.0248L78.2869 61.6323C77.7624 61.3706 76.9756 61.2397 76.5822 61.5014L74.8774 62.4174L70.9434 62.9408V64.9036C70.9434 65.1653 71.0745 65.2962 71.3368 65.427L73.9595 66.8664C74.484 67.1281 75.2708 67.259 75.6642 66.9973L81.0408 63.8568C81.303 63.7259 81.303 63.5951 81.303 63.4642V61.7631Z" fill="url(#paint32_linear_690_7106)"/>
<path d="M80.9105 62.1557L75.5339 65.2962C75.1405 65.5579 74.3537 65.5579 73.8292 65.1653L71.2065 63.7259C70.6819 63.4642 70.6819 62.9408 71.0753 62.6791L76.4519 59.5386C76.8453 59.2769 77.6321 59.2769 78.1566 59.6694L80.7793 61.1088C81.3039 61.3706 81.435 61.894 80.9105 62.1557Z" fill="url(#paint33_linear_690_7106)"/>
<path d="M89.1722 66.343L86.8117 66.6047L86.1561 66.2121C85.6315 65.9504 84.8447 65.8195 84.4513 66.0813L82.7465 66.9972L78.8125 67.5206V69.4835C78.8125 69.7452 78.9436 69.876 79.2059 70.0069L81.8286 71.4463C82.3531 71.708 83.14 71.8388 83.5334 71.5771L88.9099 68.4366C89.1722 68.3058 89.1722 68.1749 89.1722 68.0441V66.343Z" fill="url(#paint34_linear_690_7106)"/>
<path d="M88.9105 66.7355L83.5339 69.876C83.1405 70.1377 82.3537 70.1377 81.8292 69.7452L79.2065 68.3058C78.6819 68.0441 78.6819 67.5206 79.0753 67.2589L84.4519 64.1184C84.8453 63.8567 85.6321 63.8567 86.1566 64.2493L88.7793 65.6887C89.3039 66.0812 89.435 66.4738 88.9105 66.7355Z" fill="url(#paint35_linear_690_7106)"/>
<path d="M99.7939 60.062L95.8599 59.2769L89.6965 55.7438C88.9097 55.2204 87.5984 55.2204 86.9427 55.613L84.5823 56.9215L82.6152 56.5289V58.4917C82.6152 58.7535 82.8775 59.146 83.2709 59.4077L92.7126 64.7727C93.4994 65.2962 94.8108 65.2961 95.4665 64.9036L99.2694 62.6791C99.5316 62.5482 99.7939 62.2865 99.7939 62.0248V60.062Z" fill="url(#paint36_linear_690_7106)"/>
<path d="M92.7117 62.9408L83.27 57.5758C82.4832 57.0524 82.352 56.3981 83.0077 56.0056L86.8106 53.781C87.4663 53.3885 88.7776 53.3885 89.5645 53.9119L99.0062 59.2769C99.793 59.8003 99.9241 60.4546 99.2684 60.8472L95.4655 63.0717C94.6787 63.4642 93.4985 63.3334 92.7117 62.9408Z" fill="url(#paint37_linear_690_7106)"/>
<path d="M74.4848 46.1915L67.7969 47.6309V49.4629C67.7969 49.5937 67.7969 49.7246 68.0591 49.8554L69.2394 50.5097C69.5016 50.6406 70.0262 50.7714 70.2884 50.5097L74.2225 48.2852C74.3536 48.1543 74.3536 48.1543 74.3536 48.0235V46.1915H74.4848Z" fill="url(#paint38_linear_690_7106)"/>
<path d="M74.3535 46.4532L70.4194 48.6777C70.1571 48.8086 69.6326 48.8086 69.3703 48.6777L68.1901 48.0234C67.9278 47.8926 67.7967 47.6309 68.059 47.3692L71.993 45.1446C72.2553 45.0138 72.7798 45.0138 73.0421 45.1446L74.2223 45.7989C74.6157 45.9298 74.6157 46.1915 74.3535 46.4532Z" fill="url(#paint39_linear_690_7106)"/>
<path d="M136.905 68.6983C135.856 75.6336 100.974 95 94.1549 91.0743L43.0123 61.7631L3.14724 38.7327C1.18022 37.5551 0.131135 36.1157 0 34.8071V35.9848C0.131135 37.4242 1.18022 38.8636 3.14724 39.9104L43.0123 62.8099L94.0238 92.252C100.712 96.1777 135.725 76.6804 136.774 69.876C136.774 69.7451 136.774 69.4834 136.774 69.3526L136.905 68.6983Z" fill="url(#paint40_linear_690_7106)"/>
</g>
<defs>
<linearGradient id="paint0_linear_690_7106" x1="121.989" y1="31.4191" x2="170.135" y2="31.4191" gradientUnits="userSpaceOnUse">
<stop stop-color="#9CA0A7"/>
<stop offset="0.063848" stop-color="#ACB0B6"/>
<stop offset="0.1917" stop-color="#C6C9CE"/>
<stop offset="0.3328" stop-color="#DBDCE1"/>
<stop offset="0.4919" stop-color="#E9EAEF"/>
<stop offset="0.6842" stop-color="#F1F3F7"/>
<stop offset="1" stop-color="#F4F5F9"/>
</linearGradient>
<linearGradient id="paint1_linear_690_7106" x1="137.144" y1="55.5015" x2="1.10914" y2="55.5015" gradientUnits="userSpaceOnUse">
<stop stop-color="#FBFBFB"/>
<stop offset="0.0959626" stop-color="#F4F4F4"/>
<stop offset="0.1544" stop-color="#F0F0F0"/>
<stop offset="0.2027" stop-color="#DFDFDF"/>
<stop offset="0.2456" stop-color="#D0D0D0"/>
<stop offset="0.2844" stop-color="#B9B9B9"/>
<stop offset="0.3038" stop-color="#D0D0D0"/>
<stop offset="0.4884" stop-color="#C8C8C8"/>
<stop offset="0.6796" stop-color="#CACACA"/>
<stop offset="0.8732" stop-color="#CECECE"/>
<stop offset="1" stop-color="#DBDBDB"/>
</linearGradient>
<linearGradient id="paint2_linear_690_7106" x1="110.679" y1="46.6063" x2="134.779" y2="4.7757" gradientUnits="userSpaceOnUse">
<stop stop-color="#ECECEC"/>
<stop offset="1" stop-color="#D7D7D7"/>
</linearGradient>
<linearGradient id="paint3_linear_690_7106" x1="88.8854" y1="28.951" x2="168.319" y2="28.951" gradientUnits="userSpaceOnUse">
<stop stop-color="#9DA4AC"/>
<stop offset="0.0604161" stop-color="#99A0A7"/>
<stop offset="0.3799" stop-color="#888D93"/>
<stop offset="0.6954" stop-color="#7E8286"/>
<stop offset="1" stop-color="#7B7E82"/>
</linearGradient>
<linearGradient id="paint4_linear_690_7106" x1="112.099" y1="45.865" x2="134.462" y2="7.04903" gradientUnits="userSpaceOnUse">
<stop stop-color="#F2F2F2"/>
<stop offset="1" stop-color="#E6E6E6"/>
</linearGradient>
<linearGradient id="paint5_linear_690_7106" x1="20.7233" y1="39.7761" x2="41.5962" y2="3.54854" gradientUnits="userSpaceOnUse">
<stop stop-color="#F0F0F0"/>
<stop offset="1" stop-color="#E8E8E8"/>
</linearGradient>
<linearGradient id="paint6_linear_690_7106" x1="11.5092" y1="23.9971" x2="64.9412" y2="23.9971" gradientUnits="userSpaceOnUse">
<stop stop-color="#A4A4A4"/>
<stop offset="0.2488" stop-color="#ACACAC"/>
<stop offset="0.3399" stop-color="#AEAEAE"/>
<stop offset="0.4051" stop-color="#9B9B9B"/>
<stop offset="0.4576" stop-color="#999999"/>
<stop offset="0.4875" stop-color="#848484"/>
</linearGradient>
<linearGradient id="paint7_linear_690_7106" x1="72.4567" y1="72.8365" x2="93.3298" y2="36.6086" gradientUnits="userSpaceOnUse">
<stop stop-color="#EAEAEA"/>
<stop offset="1" stop-color="#DDDDDD"/>
</linearGradient>
<linearGradient id="paint8_linear_690_7106" x1="24.9681" y1="33.2378" x2="38.0058" y2="10.6092" gradientUnits="userSpaceOnUse">
<stop stop-color="#A3C79B"/>
<stop offset="1" stop-color="#85C7A3"/>
</linearGradient>
<linearGradient id="paint9_linear_690_7106" x1="66.6258" y1="66.4135" x2="84.8485" y2="34.7857" gradientUnits="userSpaceOnUse">
<stop stop-color="#222431"/>
<stop offset="1" stop-color="#64666F"/>
</linearGradient>
<linearGradient id="paint10_linear_690_7106" x1="91.0328" y1="52.3519" x2="97.09" y2="41.839" gradientUnits="userSpaceOnUse">
<stop stop-color="#AEAEAE"/>
<stop offset="1" stop-color="#979797"/>
</linearGradient>
<linearGradient id="paint11_linear_690_7106" x1="20.3144" y1="26.0345" x2="21.1764" y2="24.5384" gradientUnits="userSpaceOnUse">
<stop stop-color="#647E62"/>
<stop offset="1" stop-color="#538067"/>
</linearGradient>
<linearGradient id="paint12_linear_690_7106" x1="23.6163" y1="24.1328" x2="24.4783" y2="22.6366" gradientUnits="userSpaceOnUse">
<stop stop-color="#647E62"/>
<stop offset="1" stop-color="#538067"/>
</linearGradient>
<linearGradient id="paint13_linear_690_7106" x1="27.1044" y1="22.1223" x2="27.9664" y2="20.6263" gradientUnits="userSpaceOnUse">
<stop stop-color="#647E62"/>
<stop offset="1" stop-color="#538067"/>
</linearGradient>
<linearGradient id="paint14_linear_690_7106" x1="34.7827" y1="17.6995" x2="35.6446" y2="16.2035" gradientUnits="userSpaceOnUse">
<stop stop-color="#647E62"/>
<stop offset="1" stop-color="#538067"/>
</linearGradient>
<linearGradient id="paint15_linear_690_7106" x1="38.0824" y1="15.7979" x2="38.9443" y2="14.3019" gradientUnits="userSpaceOnUse">
<stop stop-color="#647E62"/>
<stop offset="1" stop-color="#538067"/>
</linearGradient>
<linearGradient id="paint16_linear_690_7106" x1="30.2518" y1="31.7588" x2="32.759" y2="27.4073" gradientUnits="userSpaceOnUse">
<stop stop-color="#647E62"/>
<stop offset="1" stop-color="#538067"/>
</linearGradient>
<linearGradient id="paint17_linear_690_7106" x1="45.1954" y1="43.4391" x2="87.0706" y2="43.4391" gradientUnits="userSpaceOnUse">
<stop stop-color="#F2F3F6"/>
<stop offset="1" stop-color="#D7DFE8"/>
</linearGradient>
<linearGradient id="paint18_linear_690_7106" x1="67.7275" y1="29.6806" x2="50.7519" y2="45.9464" gradientUnits="userSpaceOnUse">
<stop stop-color="#5D5D61"/>
<stop offset="1" stop-color="#1E2021"/>
</linearGradient>
<linearGradient id="paint19_linear_690_7106" x1="67.5355" y1="28.6352" x2="51.0161" y2="44.4641" gradientUnits="userSpaceOnUse">
<stop stop-color="#222431"/>
<stop offset="1" stop-color="#64666F"/>
</linearGradient>
<linearGradient id="paint20_linear_690_7106" x1="55.0347" y1="55.2703" x2="65.3237" y2="55.2703" gradientUnits="userSpaceOnUse">
<stop offset="0.1172" stop-color="#848484"/>
<stop offset="0.1971" stop-color="#939393"/>
<stop offset="0.3315" stop-color="#AAAAAA"/>
<stop offset="0.5029" stop-color="#CACACA"/>
<stop offset="0.5949" stop-color="#DBDBDB"/>
</linearGradient>
<linearGradient id="paint21_linear_690_7106" x1="56.6045" y1="55.1957" x2="60.0675" y2="49.1851" gradientUnits="userSpaceOnUse">
<stop stop-color="#B9B9B9"/>
<stop offset="1" stop-color="#9D9D9D"/>
</linearGradient>
<linearGradient id="paint22_linear_690_7106" x1="77.735" y1="41.8333" x2="89.717" y2="41.8333" gradientUnits="userSpaceOnUse">
<stop offset="0.1172" stop-color="#848484"/>
<stop offset="0.1971" stop-color="#939393"/>
<stop offset="0.3315" stop-color="#AAAAAA"/>
<stop offset="0.5029" stop-color="#CACACA"/>
<stop offset="0.5949" stop-color="#DBDBDB"/>
</linearGradient>
<linearGradient id="paint23_linear_690_7106" x1="79.2481" y1="42.2262" x2="83.6378" y2="34.6075" gradientUnits="userSpaceOnUse">
<stop stop-color="#E1E1E1"/>
<stop offset="1" stop-color="#CACACA"/>
</linearGradient>
<linearGradient id="paint24_linear_690_7106" x1="85.6053" y1="46.3436" x2="97.7176" y2="46.3436" gradientUnits="userSpaceOnUse">
<stop offset="0.1172" stop-color="#848484"/>
<stop offset="0.1971" stop-color="#939393"/>
<stop offset="0.3315" stop-color="#AAAAAA"/>
<stop offset="0.5029" stop-color="#CACACA"/>
<stop offset="0.5949" stop-color="#DBDBDB"/>
</linearGradient>
<linearGradient id="paint25_linear_690_7106" x1="87.256" y1="46.7838" x2="91.6456" y2="39.1651" gradientUnits="userSpaceOnUse">
<stop stop-color="#E2E2E2"/>
<stop offset="1" stop-color="#CACACA"/>
</linearGradient>
<linearGradient id="paint26_linear_690_7106" x1="93.733" y1="50.9931" x2="105.715" y2="50.9931" gradientUnits="userSpaceOnUse">
<stop offset="0.1172" stop-color="#848484"/>
<stop offset="0.1971" stop-color="#939393"/>
<stop offset="0.3315" stop-color="#AAAAAA"/>
<stop offset="0.5029" stop-color="#CACACA"/>
<stop offset="0.5949" stop-color="#DBDBDB"/>
</linearGradient>
<linearGradient id="paint27_linear_690_7106" x1="95.2618" y1="51.3416" x2="99.6514" y2="43.7228" gradientUnits="userSpaceOnUse">
<stop stop-color="#E2E2E2"/>
<stop offset="1" stop-color="#CBCBCB"/>
</linearGradient>
<linearGradient id="paint28_linear_690_7106" x1="101.733" y1="55.3726" x2="113.715" y2="55.3726" gradientUnits="userSpaceOnUse">
<stop offset="0.1172" stop-color="#848484"/>
<stop offset="0.1971" stop-color="#939393"/>
<stop offset="0.3315" stop-color="#AAAAAA"/>
<stop offset="0.5029" stop-color="#CACACA"/>
<stop offset="0.5949" stop-color="#DBDBDB"/>
</linearGradient>
<linearGradient id="paint29_linear_690_7106" x1="103.269" y1="55.8991" x2="107.659" y2="48.2803" gradientUnits="userSpaceOnUse">
<stop stop-color="#E6E6E6"/>
<stop offset="1" stop-color="#C8C8C8"/>
</linearGradient>
<linearGradient id="paint30_linear_690_7106" x1="63.0328" y1="59.9197" x2="73.3217" y2="59.9197" gradientUnits="userSpaceOnUse">
<stop offset="0.1172" stop-color="#848484"/>
<stop offset="0.1971" stop-color="#939393"/>
<stop offset="0.3315" stop-color="#AAAAAA"/>
<stop offset="0.5029" stop-color="#CACACA"/>
<stop offset="0.5949" stop-color="#DBDBDB"/>
</linearGradient>
<linearGradient id="paint31_linear_690_7106" x1="64.5908" y1="59.7974" x2="68.0538" y2="53.7869" gradientUnits="userSpaceOnUse">
<stop stop-color="#BDBDBD"/>
<stop offset="1" stop-color="#A4A4A4"/>
</linearGradient>
<linearGradient id="paint32_linear_690_7106" x1="71.0328" y1="64.4301" x2="81.3217" y2="64.4301" gradientUnits="userSpaceOnUse">
<stop offset="0.1172" stop-color="#848484"/>
<stop offset="0.1971" stop-color="#939393"/>
<stop offset="0.3315" stop-color="#AAAAAA"/>
<stop offset="0.5029" stop-color="#CACACA"/>
<stop offset="0.5949" stop-color="#DBDBDB"/>
</linearGradient>
<linearGradient id="paint33_linear_690_7106" x1="72.5789" y1="64.3992" x2="76.0421" y2="58.3884" gradientUnits="userSpaceOnUse">
<stop stop-color="#BFBFBF"/>
<stop offset="1" stop-color="#A6A6A6"/>
</linearGradient>
<linearGradient id="paint34_linear_690_7106" x1="78.9019" y1="69.01" x2="89.1909" y2="69.01" gradientUnits="userSpaceOnUse">
<stop offset="0.1172" stop-color="#848484"/>
<stop offset="0.1971" stop-color="#939393"/>
<stop offset="0.3315" stop-color="#AAAAAA"/>
<stop offset="0.5029" stop-color="#CACACA"/>
<stop offset="0.5949" stop-color="#DBDBDB"/>
</linearGradient>
<linearGradient id="paint35_linear_690_7106" x1="80.5672" y1="69.0009" x2="84.0304" y2="62.9902" gradientUnits="userSpaceOnUse">
<stop stop-color="#BDBDBD"/>
<stop offset="1" stop-color="#A4A4A4"/>
</linearGradient>
<linearGradient id="paint36_linear_690_7106" x1="82.5508" y1="60.2974" x2="99.8002" y2="60.2974" gradientUnits="userSpaceOnUse">
<stop offset="0.5967" stop-color="#848484"/>
<stop offset="0.6227" stop-color="#959595"/>
<stop offset="0.6665" stop-color="#A8A8A8"/>
<stop offset="0.7225" stop-color="#BAC2CC"/>
<stop offset="0.7293" stop-color="#CECECE"/>
</linearGradient>
<linearGradient id="paint37_linear_690_7106" x1="84.9647" y1="54.7529" x2="91.1553" y2="65.4981" gradientUnits="userSpaceOnUse">
<stop stop-color="#BFBFBF"/>
<stop offset="1" stop-color="#B0B0B0"/>
</linearGradient>
<linearGradient id="paint38_linear_690_7106" x1="67.8546" y1="48.5659" x2="74.4968" y2="48.5659" gradientUnits="userSpaceOnUse">
<stop offset="0.1172" stop-color="#848484"/>
<stop offset="0.1971" stop-color="#939393"/>
<stop offset="0.3315" stop-color="#AAAAAA"/>
<stop offset="0.5029" stop-color="#CACACA"/>
<stop offset="0.5949" stop-color="#DBDBDB"/>
</linearGradient>
<linearGradient id="paint39_linear_690_7106" x1="68.7306" y1="48.3059" x2="71.1989" y2="44.022" gradientUnits="userSpaceOnUse">
<stop stop-color="#BBBBBB"/>
<stop offset="1" stop-color="#999999"/>
</linearGradient>
<linearGradient id="paint40_linear_690_7106" x1="3.69771e-05" y1="63.7827" x2="136.89" y2="63.7827" gradientUnits="userSpaceOnUse">
<stop stop-color="#3C3F40"/>
<stop offset="1" stop-color="#5D5D61"/>
</linearGradient>
<clipPath id="clip0_690_7106">
<rect width="171" height="95" fill="white"/>
</clipPath>
</defs>
</svg>
