<svg width="89" height="137" viewBox="0 0 89 137" fill="none" xmlns="http://www.w3.org/2000/svg">
<path d="M58.5139 35.2481L27.6563 17.7377C27.1991 17.5103 26.5134 17.5103 26.0562 17.7377L12.5703 25.4695L45.028 43.8895L58.5139 36.1577C58.7424 35.9303 58.7424 35.4755 58.5139 35.2481Z" fill="#C8C8CA"/>
<path d="M47.086 30.9273L35.4287 24.3325H35.2001L31.7715 26.3792V26.6066L43.4288 33.2014H43.6574L47.086 30.9273Z" fill="#64666F"/>
<path d="M44.3425 29.7904C44.5711 29.7904 44.5711 30.0178 44.3425 29.7904L41.5996 31.6096H41.371L34.0566 27.5163V27.2889L36.7995 25.697H37.0281L44.3425 29.7904Z" fill="#222431"/>
<path d="M88.9148 29.563V115.296L78.6289 121.436V35.703L88.9148 29.563Z" fill="#222431"/>
<path d="M88.9146 29.5629L78.6287 35.7029L73.6 32.7466L31.5423 8.86888L26.7422 6.14L37.2566 0L88.9146 29.5629Z" fill="#64666F"/>
<path d="M24.0001 27.0614L19.4286 24.5599H19.2L16.2285 26.3792V26.6066L20.8 29.1081H21.0286L24.0001 27.0614C24.2286 27.2888 24.2286 27.2888 24.0001 27.0614Z" fill="url(#paint0_linear_690_6648)"/>
<path d="M31.543 31.3821L26.9715 28.8806H26.743L23.7715 30.6999V30.9273L28.343 33.4288H28.5716L31.543 31.3821C31.543 31.6095 31.543 31.3821 31.543 31.3821Z" fill="url(#paint1_linear_690_6648)"/>
<path d="M39.086 35.7029L34.5145 33.2014H34.2859L31.3145 34.7933V35.0207L35.886 37.5222H36.1145L39.086 35.7029C39.086 35.9303 39.086 35.7029 39.086 35.7029Z" fill="url(#paint2_linear_690_6648)"/>
<path d="M46.629 40.0237L42.0575 37.5222H41.8289L38.8574 39.3415V39.5689L43.4289 42.0704H43.6575L46.629 40.0237Z" fill="url(#paint3_linear_690_6648)"/>
<path d="M2.9707 20.0118V105.744L54.8572 135.307V49.5748L2.9707 20.0118Z" fill="#E3E4E4"/>
<path d="M2.9707 20.4667V105.29L54.4001 134.625V49.8022L2.9707 20.4667Z" fill="#9A9B9D"/>
<path d="M78.6292 35.703V121.436L54.8574 135.307V49.5748L78.6292 35.703Z" fill="url(#paint4_linear_690_6648)"/>
<path d="M73.6003 32.7467L78.4004 35.4756L54.6286 49.3474L49.8286 46.6185L45.0285 43.8896L58.5144 36.1578C58.9715 35.9304 58.9715 35.4756 58.5144 35.2481L27.6568 17.7378C27.1996 17.5104 26.5139 17.5104 26.0568 17.7378L12.5708 25.4696L7.77078 22.7407L2.9707 20.0119L26.7425 6.14001L31.5426 8.8689L73.6003 32.7467Z" fill="url(#paint5_linear_690_6648)"/>
<path d="M5.94295 68.4496L3.42862 110.975L0 107.336V65.0385L5.94295 68.4496Z" fill="#EDEDED"/>
<path d="M51.8871 94.6015V136.899L45.487 135.08L42.9727 89.5985L51.8871 94.6015Z" fill="#E3E4E4"/>
<path d="M45.4855 92.5548V135.08L3.42773 110.975V68.677L45.4855 92.5548Z" fill="url(#paint6_linear_690_6648)"/>
<path d="M53.9439 93.2371V135.535L51.8867 136.899V94.6015L53.9439 93.2371Z" fill="url(#paint7_linear_690_6648)"/>
<path d="M53.9437 93.237L51.8865 94.6015L45.4864 92.5548L3.42862 68.677L0 65.0385L2.28575 63.6741L7.08582 66.403L49.1436 90.5081L53.9437 93.237Z" fill="url(#paint8_linear_690_6648)"/>
<path d="M53.4864 93.0096L51.8864 93.9192L45.4863 92.1L3.42851 67.9948L0.457031 65.0385L2.51421 63.9015L53.4864 93.0096Z" fill="#B6B6B8"/>
<path d="M5.94295 25.0149L3.42862 67.54L0 63.9015V21.6038L5.94295 25.0149Z" fill="#EDEDED"/>
<path d="M51.8871 51.1667V93.4644L45.487 91.6452L42.9727 46.1637L51.8871 51.1667Z" fill="#E3E4E4"/>
<path d="M45.4855 49.3474V91.6451L3.42773 67.5399V25.2422L45.4855 49.3474Z" fill="url(#paint9_linear_690_6648)"/>
<path d="M53.9439 50.0297V92.3274L51.8867 93.4644V51.1667L53.9439 50.0297Z" fill="url(#paint10_linear_690_6648)"/>
<path d="M53.9437 50.0296L51.8865 51.1666L45.4864 49.3474L3.42862 25.2422L0 21.6037L2.28575 20.2393L7.08582 23.1956L49.1436 47.0733L53.9437 50.0296Z" fill="url(#paint11_linear_690_6648)"/>
<defs>
<linearGradient id="paint0_linear_690_6648" x1="16.1876" y1="26.7956" x2="24.0974" y2="26.7956" gradientUnits="userSpaceOnUse">
<stop offset="0.2" stop-color="#F5F5F5"/>
<stop offset="0.6775" stop-color="#ECECED"/>
<stop offset="1" stop-color="#E3E3E4"/>
</linearGradient>
<linearGradient id="paint1_linear_690_6648" x1="23.6997" y1="31.0828" x2="31.6036" y2="31.0828" gradientUnits="userSpaceOnUse">
<stop offset="0.2" stop-color="#F5F5F5"/>
<stop offset="0.6775" stop-color="#ECECED"/>
<stop offset="1" stop-color="#E3E3E4"/>
</linearGradient>
<linearGradient id="paint2_linear_690_6648" x1="31.2153" y1="35.3675" x2="39.1146" y2="35.3675" gradientUnits="userSpaceOnUse">
<stop offset="0.2" stop-color="#F5F5F5"/>
<stop offset="0.6775" stop-color="#ECECED"/>
<stop offset="1" stop-color="#E3E3E4"/>
</linearGradient>
<linearGradient id="paint3_linear_690_6648" x1="38.7198" y1="39.6546" x2="46.6313" y2="39.6546" gradientUnits="userSpaceOnUse">
<stop offset="0.2" stop-color="#F5F5F5"/>
<stop offset="0.6775" stop-color="#ECECED"/>
<stop offset="1" stop-color="#E3E3E4"/>
</linearGradient>
<linearGradient id="paint4_linear_690_6648" x1="85.4228" y1="117.496" x2="48.243" y2="53.1847" gradientUnits="userSpaceOnUse">
<stop stop-color="#E3E3E4"/>
<stop offset="0.3561" stop-color="#DFDFE0"/>
<stop offset="0.7245" stop-color="#D2D3D4"/>
<stop offset="1" stop-color="#C4C5C6"/>
</linearGradient>
<linearGradient id="paint5_linear_690_6648" x1="36.4145" y1="35.3487" x2="47.7694" y2="15.4518" gradientUnits="userSpaceOnUse">
<stop offset="0.2" stop-color="#F5F5F5"/>
<stop offset="0.6775" stop-color="#ECECED"/>
<stop offset="1" stop-color="#E3E3E4"/>
</linearGradient>
<linearGradient id="paint6_linear_690_6648" x1="-1.68663" y1="97.2328" x2="50.4968" y2="106.481" gradientUnits="userSpaceOnUse">
<stop stop-color="#E3E4E4"/>
<stop offset="0.3579" stop-color="#EAEBEB"/>
<stop offset="1" stop-color="#EDEDED"/>
</linearGradient>
<linearGradient id="paint7_linear_690_6648" x1="52.7496" y1="50.4828" x2="52.9875" y2="135.899" gradientUnits="userSpaceOnUse">
<stop stop-color="#C4C5C6"/>
<stop offset="0.2755" stop-color="#D2D3D4"/>
<stop offset="0.6439" stop-color="#DFDFE0"/>
<stop offset="1" stop-color="#E3E3E4"/>
</linearGradient>
<linearGradient id="paint8_linear_690_6648" x1="26.3462" y1="80.2637" x2="29.4577" y2="74.8116" gradientUnits="userSpaceOnUse">
<stop offset="0.2" stop-color="#F5F5F5"/>
<stop offset="0.6775" stop-color="#ECECED"/>
<stop offset="1" stop-color="#E3E3E4"/>
</linearGradient>
<linearGradient id="paint9_linear_690_6648" x1="-1.6784" y1="53.8769" x2="50.4886" y2="63.1225" gradientUnits="userSpaceOnUse">
<stop stop-color="#E3E4E4"/>
<stop offset="0.3579" stop-color="#EAEBEB"/>
<stop offset="1" stop-color="#EDEDED"/>
</linearGradient>
<linearGradient id="paint10_linear_690_6648" x1="52.8717" y1="50.4872" x2="53.1096" y2="135.89" gradientUnits="userSpaceOnUse">
<stop stop-color="#C4C5C6"/>
<stop offset="0.2755" stop-color="#D2D3D4"/>
<stop offset="0.6439" stop-color="#DFDFE0"/>
<stop offset="1" stop-color="#E3E3E4"/>
</linearGradient>
<linearGradient id="paint11_linear_690_6648" x1="26.347" y1="36.9516" x2="29.4588" y2="31.4988" gradientUnits="userSpaceOnUse">
<stop offset="0.2" stop-color="#F5F5F5"/>
<stop offset="0.6775" stop-color="#ECECED"/>
<stop offset="1" stop-color="#E3E3E4"/>
</linearGradient>
</defs>
</svg>
