<svg width="48" height="48" viewBox="0 0 48 48" fill="none" xmlns="http://www.w3.org/2000/svg">
<path fill-rule="evenodd" clip-rule="evenodd" d="M28.1716 21.2426C28.5192 21.7674 28.7704 22.3616 28.9 23H37.9858L42.0929 18.8929L43.5071 20.3071L40.8142 23H48V25H40.8142L43.5071 27.6929L42.0929 29.1071L37.9858 25H28.9C28.7704 25.6384 28.5192 26.2326 28.1716 26.7574L34.6143 33.2H40.4V35.2H36.6143L41.7072 40.2929L40.2929 41.7071L35.2 36.6141V40.4H33.2V34.6141L26.7574 28.1716C26.2326 28.5192 25.6384 28.7704 25 28.9V37.9858L29.1071 42.0929L27.6929 43.5071L25 40.8142V48H23V40.8142L20.3071 43.5071L18.8929 42.0929L23 37.9858V28.9C22.3616 28.7704 21.7674 28.5192 21.2426 28.1716L14.8 34.6142V40.4H12.8V36.6142L7.70711 41.7071L6.29289 40.2929L11.3858 35.2H7.59998V33.2H13.3858L19.8284 26.7574C19.4808 26.2326 19.2296 25.6384 19.1 25H10.0142L5.90706 29.1071L4.49284 27.6929L7.18574 25H0V23H7.18573L4.49284 20.3071L5.90706 18.8929L10.0142 23H19.1C19.2296 22.3616 19.4808 21.7674 19.8284 21.2426L13.3858 14.8H7.59998V12.8H11.3858L6.29289 7.70711L7.70711 6.29289L12.8 11.3858V7.60001H14.8V13.3858L21.2426 19.8284C21.7674 19.4808 22.3616 19.2296 23 19.1V10.0143L18.8929 5.90712L20.3071 4.49291L23 7.18582V0H25V7.18577L27.6929 4.49291L29.1071 5.90712L25 10.0142V19.1C25.6384 19.2296 26.2326 19.4808 26.7574 19.8284L33.2 13.3858V7.60001H35.2V11.3858L40.2929 6.29289L41.7071 7.70711L36.6142 12.8H40.4V14.8H34.6142L28.1716 21.2426ZM24 21C22.3431 21 21 22.3431 21 24C21 25.6569 22.3431 27 24 27C25.6569 27 27 25.6569 27 24C27 22.3431 25.6569 21 24 21Z" fill="url(#paint0_linear_235_608)"/>
<defs>
<linearGradient id="paint0_linear_235_608" x1="45" y1="11.2941" x2="-0.808941" y2="24.6551" gradientUnits="userSpaceOnUse">
<stop stop-color="#5CBEDF"/>
<stop offset="0.520833" stop-color="#6BA2F3"/>
<stop offset="1" stop-color="#7593FA"/>
</linearGradient>
</defs>
</svg>
