<svg width="49" height="49" viewBox="0 0 49 49" fill="none" xmlns="http://www.w3.org/2000/svg">
<path d="M24.04 2C11.9203 2 2 11.9203 2 24.04C2 27.9068 2.91912 31.3944 4.57179 34.5161L2.80421 35.4519C1.00088 32.0456 0 28.2372 0 24.04C0 10.8157 10.8157 0 24.04 0C29.0554 0 33.6641 1.60488 37.4637 4.20329C38.5739 4.94394 39.5308 5.75827 40.4116 6.58395L40.3209 4.49944L42.3191 4.41256L42.5111 8.82856C42.5226 9.09353 42.4284 9.35222 42.2492 9.54773C42.0699 9.74323 41.8204 9.85954 41.5554 9.87106L37.1394 10.0631L37.0526 8.06494L38.9774 7.98126C38.167 7.22519 37.321 6.51183 36.3493 5.86405L36.3393 5.85737C32.8439 3.46578 28.6225 2 24.04 2Z" fill="url(#paint0_linear_235_611)"/>
<path d="M46.08 24.04C46.08 20.1732 45.1609 16.6856 43.5082 13.5639L45.2758 12.6281C47.0791 16.0344 48.08 19.8428 48.08 24.04C48.08 37.2643 37.2643 48.08 24.04 48.08C19.0246 48.08 14.4159 46.4751 10.6162 43.8767C9.50609 43.136 8.54914 42.3217 7.66843 41.4961L7.75906 43.5806L5.76094 43.6674L5.56894 39.2514C5.5571 38.9789 5.65707 38.7134 5.8457 38.5164C6.03433 38.3194 6.29525 38.208 6.568 38.208H10.984V40.208H9.22031C9.99504 40.9236 10.806 41.5995 11.7307 42.216L11.7407 42.2226C15.2361 44.6142 19.4575 46.08 24.04 46.08C36.1597 46.08 46.08 36.1597 46.08 24.04Z" fill="url(#paint1_linear_235_611)"/>
<path d="M11.3551 15.9273L11.3325 15.9556C10.9609 16.4199 10.5162 16.9757 10.1785 17.6793C9.82366 18.4185 9.6 19.2869 9.6 20.392C9.6 21.4364 9.79439 22.2596 10.1062 22.9611C10.4106 23.6461 10.8135 24.1793 11.1466 24.6194L11.1636 24.6419C11.8048 25.4891 12.288 26.1275 12.288 27.496C12.288 28.3109 12.1277 28.8825 11.9065 29.3433C11.6751 29.8254 11.3631 30.2213 10.9711 30.7113L12.5329 31.9607L12.5555 31.9324C12.9271 31.4681 13.3718 30.9123 13.7095 30.2087C14.0643 29.4695 14.288 28.6011 14.288 27.496C14.288 25.455 13.4638 24.3665 12.7761 23.4584L12.7414 23.4126C12.4025 22.9647 12.1334 22.5979 11.9338 22.1489C11.7416 21.7164 11.6 21.1716 11.6 20.392C11.6 19.5771 11.7603 19.0055 11.9815 18.5447C12.2129 18.0626 12.5249 17.6667 12.9169 17.1767L11.3551 15.9273Z" fill="url(#paint2_linear_235_611)"/>
<path d="M17.4765 15.9556L17.4991 15.9273L19.0609 17.1767C18.6689 17.6667 18.3569 18.0626 18.1255 18.5447C17.9043 19.0055 17.744 19.5771 17.744 20.392C17.744 21.1716 17.8856 21.7164 18.0778 22.1489C18.2774 22.5979 18.5465 22.9647 18.8854 23.4126L18.9201 23.4584C19.6078 24.3665 20.432 25.455 20.432 27.496C20.432 28.6011 20.2083 29.4695 19.8535 30.2087C19.5158 30.9122 19.0711 31.468 18.6996 31.9323L18.6769 31.9607L17.1151 30.7113C17.5071 30.2213 17.8191 29.8254 18.0505 29.3433C18.2717 28.8825 18.432 28.3109 18.432 27.496C18.432 26.1275 17.9488 25.4891 17.3076 24.6419L17.2906 24.6194C16.9575 24.1793 16.5546 23.6461 16.2502 22.9611C15.9384 22.2596 15.744 21.4364 15.744 20.392C15.744 19.2869 15.9677 18.4185 16.3225 17.6793C16.6602 16.9757 17.1049 16.4199 17.4765 15.9556Z" fill="url(#paint3_linear_235_611)"/>
<path d="M23.4511 15.9273L23.4285 15.9556C23.0569 16.4199 22.6122 16.9757 22.2745 17.6793C21.9197 18.4185 21.696 19.2869 21.696 20.392C21.696 21.4364 21.8904 22.2596 22.2022 22.9611C22.5066 23.6461 22.9095 24.1793 23.2426 24.6194L23.2596 24.6419C23.9008 25.4891 24.384 26.1275 24.384 27.496C24.384 28.3109 24.2237 28.8825 24.0025 29.3433C23.7711 29.8254 23.4591 30.2213 23.0671 30.7113L24.6289 31.9607L24.6515 31.9324C25.0231 31.4681 25.4678 30.9123 25.8055 30.2087C26.1603 29.4695 26.384 28.6011 26.384 27.496C26.384 25.455 25.5598 24.3665 24.8721 23.4584L24.8374 23.4126C24.4985 22.9647 24.2294 22.5979 24.0298 22.1489C23.8376 21.7164 23.696 21.1716 23.696 20.392C23.696 19.5771 23.8563 19.0055 24.0775 18.5447C24.3089 18.0626 24.6209 17.6667 25.0129 17.1767L23.4511 15.9273Z" fill="url(#paint4_linear_235_611)"/>
<path d="M29.3805 15.9556L29.4031 15.9273L30.9649 17.1767C30.5729 17.6667 30.2609 18.0626 30.0295 18.5447C29.8083 19.0055 29.648 19.5771 29.648 20.392C29.648 21.1716 29.7896 21.7164 29.9818 22.1489C30.1814 22.5979 30.4505 22.9647 30.7894 23.4126L30.8241 23.4584C31.5118 24.3665 32.336 25.455 32.336 27.496C32.336 28.6011 32.1123 29.4695 31.7575 30.2087C31.4198 30.9123 30.9751 31.4681 30.6036 31.9323L30.5809 31.9607L29.0191 30.7113C29.4111 30.2213 29.7231 29.8254 29.9545 29.3433C30.1757 28.8825 30.336 28.3109 30.336 27.496C30.336 26.1275 29.8528 25.4891 29.2116 24.6419L29.1946 24.6194C28.8615 24.1793 28.4586 23.6461 28.1542 22.9611C27.8424 22.2596 27.648 21.4364 27.648 20.392C27.648 19.2869 27.8717 18.4185 28.2265 17.6793C28.5642 16.9757 29.0089 16.4199 29.3805 15.9556Z" fill="url(#paint5_linear_235_611)"/>
<path d="M35.3551 15.9273L35.3325 15.9556C34.9609 16.4199 34.5162 16.9757 34.1785 17.6793C33.8237 18.4185 33.6 19.2869 33.6 20.392C33.6 21.4364 33.7944 22.2596 34.1062 22.9611C34.4106 23.6461 34.8135 24.1793 35.1466 24.6194L35.1636 24.6419C35.8048 25.4891 36.288 26.1275 36.288 27.496C36.288 28.3109 36.1277 28.8825 35.9065 29.3433C35.6751 29.8254 35.3631 30.2213 34.9711 30.7113L36.5329 31.9607L36.5555 31.9324C36.9271 31.4681 37.3718 30.9123 37.7095 30.2087C38.0643 29.4695 38.288 28.6011 38.288 27.496C38.288 25.455 37.4638 24.3665 36.7761 23.4584L36.7414 23.4126C36.4025 22.9647 36.1334 22.5979 35.9338 22.1489C35.7416 21.7164 35.6 21.1716 35.6 20.392C35.6 19.5771 35.7603 19.0055 35.9815 18.5447C36.2129 18.0626 36.5249 17.6667 36.9169 17.1767L35.3551 15.9273Z" fill="url(#paint6_linear_235_611)"/>
<defs>
<linearGradient id="paint0_linear_235_611" x1="45.075" y1="11.3129" x2="-0.810289" y2="24.6961" gradientUnits="userSpaceOnUse">
<stop stop-color="#5CBEDF"/>
<stop offset="0.520833" stop-color="#6BA2F3"/>
<stop offset="1" stop-color="#7593FA"/>
</linearGradient>
<linearGradient id="paint1_linear_235_611" x1="45.075" y1="11.3129" x2="-0.810289" y2="24.6961" gradientUnits="userSpaceOnUse">
<stop stop-color="#5CBEDF"/>
<stop offset="0.520833" stop-color="#6BA2F3"/>
<stop offset="1" stop-color="#7593FA"/>
</linearGradient>
<linearGradient id="paint2_linear_235_611" x1="45.075" y1="11.3129" x2="-0.810289" y2="24.6961" gradientUnits="userSpaceOnUse">
<stop stop-color="#5CBEDF"/>
<stop offset="0.520833" stop-color="#6BA2F3"/>
<stop offset="1" stop-color="#7593FA"/>
</linearGradient>
<linearGradient id="paint3_linear_235_611" x1="45.075" y1="11.3129" x2="-0.810289" y2="24.6961" gradientUnits="userSpaceOnUse">
<stop stop-color="#5CBEDF"/>
<stop offset="0.520833" stop-color="#6BA2F3"/>
<stop offset="1" stop-color="#7593FA"/>
</linearGradient>
<linearGradient id="paint4_linear_235_611" x1="45.075" y1="11.3129" x2="-0.810289" y2="24.6961" gradientUnits="userSpaceOnUse">
<stop stop-color="#5CBEDF"/>
<stop offset="0.520833" stop-color="#6BA2F3"/>
<stop offset="1" stop-color="#7593FA"/>
</linearGradient>
<linearGradient id="paint5_linear_235_611" x1="45.075" y1="11.3129" x2="-0.810289" y2="24.6961" gradientUnits="userSpaceOnUse">
<stop stop-color="#5CBEDF"/>
<stop offset="0.520833" stop-color="#6BA2F3"/>
<stop offset="1" stop-color="#7593FA"/>
</linearGradient>
<linearGradient id="paint6_linear_235_611" x1="45.075" y1="11.3129" x2="-0.810289" y2="24.6961" gradientUnits="userSpaceOnUse">
<stop stop-color="#5CBEDF"/>
<stop offset="0.520833" stop-color="#6BA2F3"/>
<stop offset="1" stop-color="#7593FA"/>
</linearGradient>
</defs>
</svg>
