<svg width="42" height="48" viewBox="0 0 42 48" fill="none" xmlns="http://www.w3.org/2000/svg">
<path d="M15.36 0.960022L16.2159 0.442906C16.0352 0.143811 15.7114 -0.0392623 15.362 -0.0399759C15.0126 -0.0406896 14.6881 0.14106 14.5062 0.439415L15.36 0.960022Z" fill="url(#paint0_linear_235_610)"/>
<path d="M15.36 0.960022C16.2159 0.442906 16.2158 0.442799 16.2159 0.442906L16.2327 0.470817L16.2809 0.551013C16.3232 0.621515 16.3856 0.725706 16.4664 0.861241C16.628 1.13231 16.8632 1.52878 17.1584 2.0319C17.7489 3.03806 18.5799 4.47122 19.5432 6.18118C21.4685 9.59863 23.9285 14.1322 26.0541 18.5766L24.2498 19.4395C22.1514 15.0518 19.7154 10.5614 17.8007 7.16287C16.8441 5.46482 16.0191 4.04198 15.4335 3.04414L15.3565 2.91304C14.9894 3.53308 14.5194 4.33407 13.9761 5.27574C12.6308 7.60766 10.8383 10.7985 9.04688 14.238C7.25389 17.6805 5.47028 21.3565 4.1374 24.662C2.78686 28.0113 1.95996 30.8378 1.95996 32.64C1.95996 40.1431 8.03154 46.04 15.36 46.04C20.003 46.04 24.3002 43.5321 26.6175 39.967L28.2944 41.057C25.6197 45.1719 20.7009 48.04 15.36 48.04C6.94439 48.04 -0.0400391 41.265 -0.0400391 32.64C-0.0400391 30.4103 0.93306 27.2607 2.28252 23.9141C3.64964 20.5236 5.46603 16.7836 7.27305 13.3141C9.08166 9.84155 10.8891 6.62439 12.2438 4.2763C12.9213 3.10187 13.4862 2.14392 13.8819 1.47904C14.0798 1.14658 14.2355 0.887341 14.3418 0.710893C14.395 0.622667 14.4359 0.555134 14.4636 0.50949L14.5062 0.439415C14.5063 0.439171 14.5062 0.439415 15.36 0.960022Z" fill="url(#paint1_linear_235_610)"/>
<path d="M21.6511 35.8208L21.646 35.824C21.3729 35.9947 21.1224 36.151 20.8552 36.2796C20.4099 36.4941 19.9184 36.632 19.2 36.632C17.9966 36.632 17.4536 36.3182 16.6889 35.8765L16.591 35.8199C16.3597 35.6867 16.106 35.543 15.8072 35.3936L14.9128 37.1824C15.1023 37.2772 15.2982 37.392 15.5081 37.515C15.7182 37.6381 15.9425 37.7695 16.1885 37.8973C16.9266 38.2807 17.8609 38.632 19.2 38.632C19.8793 38.632 20.4411 38.5385 20.9218 38.3943C21.663 38.1719 22.2114 37.8291 22.7008 37.5232L22.706 37.52C23.1611 37.2356 23.5537 36.9911 24.0649 36.8477C24.3716 36.7616 24.7209 36.712 25.152 36.712C25.794 36.712 26.2381 36.8213 26.6295 36.9982C26.8366 37.0918 27.029 37.2042 27.2283 37.3294C27.3105 37.3811 27.394 37.4349 27.4801 37.4905L27.5139 37.5123C27.8621 37.737 28.286 38.0095 28.8214 38.2253C28.857 38.2396 28.8932 38.2538 28.9299 38.2676C29.0047 38.2958 29.0811 38.3227 29.1591 38.3481C29.7054 38.5259 30.3349 38.632 31.104 38.632C31.9632 38.632 32.6236 38.4819 33.1662 38.2693C33.7043 38.0583 34.1266 37.7857 34.512 37.5369L34.5501 37.5123C34.9227 37.2719 35.2211 37.0861 35.588 36.9476C35.9435 36.8135 36.399 36.712 37.056 36.712C37.5858 36.712 37.977 36.7591 38.301 36.8433C38.6748 36.9404 38.959 37.087 39.2632 37.2678C39.3443 37.3161 39.4268 37.3667 39.5128 37.4195C39.7734 37.5794 40.0663 37.7592 40.4488 37.9504L41.3432 36.1616C41.3128 36.1464 41.2823 36.1306 41.2518 36.1142C41.2338 36.1046 41.2157 36.0948 41.1976 36.0848C41.0514 36.0039 40.9024 35.9115 40.7446 35.8137C40.5492 35.6926 40.3395 35.5627 40.1064 35.4367C39.4071 35.0589 38.4892 34.712 37.056 34.712C36.177 34.712 35.4804 34.8505 34.8819 35.0764C34.2948 35.2979 33.8373 35.5921 33.4659 35.8317L33.4321 35.8535C33.0015 36.1314 32.638 36.3661 32.152 36.5029C31.8604 36.5851 31.5247 36.632 31.104 36.632C30.5322 36.632 30.113 36.5551 29.7796 36.4468C29.7299 36.4306 29.6821 36.4138 29.636 36.3964L29.6234 36.3916C29.6048 36.3845 29.5863 36.3773 29.568 36.3699C29.5228 36.3517 29.4786 36.3328 29.435 36.313C29.1541 36.186 28.9005 36.0268 28.5981 35.8317L28.56 35.8071C28.0763 35.4948 27.5346 35.1451 26.7784 34.9268C26.3247 34.7957 25.7938 34.712 25.152 34.712C23.4252 34.712 22.458 35.3165 21.6511 35.8208Z" fill="url(#paint2_linear_235_610)"/>
<path d="M21.6511 29.2928C22.458 28.7885 23.4252 28.184 25.152 28.184C26.8636 28.184 27.786 28.7795 28.56 29.2791L28.5981 29.3037C28.9707 29.5441 29.2692 29.73 29.636 29.8684C29.9915 30.0026 30.447 30.104 31.104 30.104C32.2259 30.104 32.7431 29.7702 33.4321 29.3255L33.4659 29.3037C33.8373 29.0641 34.2948 28.77 34.8819 28.5484C35.4804 28.3226 36.177 28.184 37.056 28.184C38.9669 28.184 39.9619 28.8007 40.7438 29.2853C40.9545 29.4158 41.1497 29.5368 41.3432 29.6336L40.4488 31.4224C40.0662 31.2311 39.7735 31.0515 39.5128 30.8915C38.8248 30.4692 38.3601 30.184 37.056 30.184C36.399 30.184 35.9435 30.2855 35.588 30.4196C35.2211 30.5581 34.9227 30.7439 34.5501 30.9843L34.512 31.0089C33.738 31.5085 32.8156 32.104 31.104 32.104C30.225 32.104 29.5284 31.9655 28.9299 31.7396C28.3428 31.5181 27.8853 31.2239 27.5139 30.9843L27.4801 30.9625C26.7911 30.5178 26.2739 30.184 25.152 30.184C24.0025 30.184 23.4341 30.5369 22.706 30.992L22.7008 30.9952C21.894 31.4995 20.9268 32.104 19.2 32.104C17.4145 32.104 16.3487 31.4795 15.5081 30.987C15.2982 30.864 15.1023 30.7492 14.9128 30.6544L15.8072 28.8656C16.1487 29.0363 16.4314 29.1996 16.6889 29.3484C17.4536 29.7902 17.9966 30.104 19.2 30.104C20.3495 30.104 20.9179 29.7511 21.646 29.296L21.6511 29.2928Z" fill="url(#paint3_linear_235_610)"/>
<path d="M25.152 21.656C23.4252 21.656 22.458 22.2605 21.6511 22.7648L21.646 22.768C20.9179 23.2231 20.3495 23.576 19.2 23.576C17.9966 23.576 17.4535 23.2622 16.6889 22.8204C16.4314 22.6716 16.1487 22.5083 15.8072 22.3376L14.9128 24.1264C15.1023 24.2212 15.2982 24.336 15.5081 24.459C16.3487 24.9515 17.4145 25.576 19.2 25.576C20.9268 25.576 21.894 24.9715 22.7008 24.4672L22.706 24.464C23.4341 24.0089 24.0025 23.656 25.152 23.656C26.2739 23.656 26.7911 23.9898 27.4801 24.4345L27.5139 24.4563C27.8853 24.6959 28.3428 24.9901 28.9299 25.2116C29.5284 25.4375 30.225 25.576 31.104 25.576C32.8156 25.576 33.738 24.9805 34.512 24.4809L34.5501 24.4563C34.9227 24.2159 35.2212 24.0301 35.588 23.8916C35.9435 23.7575 36.399 23.656 37.056 23.656C38.3601 23.656 38.8248 23.9412 39.5128 24.3635C39.5128 24.3635 39.5128 24.3635 39.5128 24.3635C39.7734 24.5235 40.0662 24.7032 40.4488 24.8944L41.3432 23.1056C41.1497 23.0088 40.9545 22.8879 40.7438 22.7573C39.9619 22.2727 38.9669 21.656 37.056 21.656C36.177 21.656 35.4804 21.7946 34.8819 22.0204C34.2948 22.242 33.8373 22.5361 33.4659 22.7757L33.4321 22.7975C32.7431 23.2422 32.2259 23.576 31.104 23.576C30.447 23.576 29.9915 23.4746 29.636 23.3404C29.2692 23.202 28.9707 23.0161 28.5981 22.7757L28.56 22.7511C27.786 22.2515 26.8636 21.656 25.152 21.656Z" fill="url(#paint4_linear_235_610)"/>
<defs>
<linearGradient id="paint0_linear_235_610" x1="38.7567" y1="11.273" x2="-1.55658" y2="21.3933" gradientUnits="userSpaceOnUse">
<stop stop-color="#5CBEDF"/>
<stop offset="0.520833" stop-color="#6BA2F3"/>
<stop offset="1" stop-color="#7593FA"/>
</linearGradient>
<linearGradient id="paint1_linear_235_610" x1="38.7567" y1="11.273" x2="-1.55658" y2="21.3933" gradientUnits="userSpaceOnUse">
<stop stop-color="#5CBEDF"/>
<stop offset="0.520833" stop-color="#6BA2F3"/>
<stop offset="1" stop-color="#7593FA"/>
</linearGradient>
<linearGradient id="paint2_linear_235_610" x1="38.7567" y1="11.273" x2="-1.55658" y2="21.3933" gradientUnits="userSpaceOnUse">
<stop stop-color="#5CBEDF"/>
<stop offset="0.520833" stop-color="#6BA2F3"/>
<stop offset="1" stop-color="#7593FA"/>
</linearGradient>
<linearGradient id="paint3_linear_235_610" x1="38.7567" y1="11.273" x2="-1.55658" y2="21.3933" gradientUnits="userSpaceOnUse">
<stop stop-color="#5CBEDF"/>
<stop offset="0.520833" stop-color="#6BA2F3"/>
<stop offset="1" stop-color="#7593FA"/>
</linearGradient>
<linearGradient id="paint4_linear_235_610" x1="38.7567" y1="11.273" x2="-1.55658" y2="21.3933" gradientUnits="userSpaceOnUse">
<stop stop-color="#5CBEDF"/>
<stop offset="0.520833" stop-color="#6BA2F3"/>
<stop offset="1" stop-color="#7593FA"/>
</linearGradient>
</defs>
</svg>
