<svg width="20" height="21" viewBox="0 0 20 21" fill="none" xmlns="http://www.w3.org/2000/svg">
<path d="M5.41699 2.16675L5.41699 7.16675" stroke="#292D32" stroke-width="1.5" stroke-miterlimit="10" stroke-linecap="round" stroke-linejoin="round"/>
<path d="M5.41699 15.4999L5.41699 18.8333" stroke="#292D32" stroke-width="1.5" stroke-miterlimit="10" stroke-linecap="round" stroke-linejoin="round"/>
<path d="M8.33333 12.1666C8.33333 10.5558 7.0275 9.24992 5.41667 9.24992C3.80584 9.24992 2.5 10.5558 2.5 12.1666C2.5 13.7774 3.80584 15.0833 5.41667 15.0833C7.0275 15.0833 8.33333 13.7774 8.33333 12.1666Z" stroke="#292D32" stroke-width="1.5" stroke-miterlimit="10" stroke-linecap="round" stroke-linejoin="round"/>
<path d="M14.583 2.16667L14.583 5.5" stroke="#292D32" stroke-width="1.5" stroke-miterlimit="10" stroke-linecap="round" stroke-linejoin="round"/>
<path d="M14.583 13.8333L14.583 18.8333" stroke="#292D32" stroke-width="1.5" stroke-miterlimit="10" stroke-linecap="round" stroke-linejoin="round"/>
<path d="M17.5003 8.83333C17.5003 7.2225 16.1945 5.91667 14.5837 5.91667C12.9728 5.91667 11.667 7.2225 11.667 8.83333C11.667 10.4442 12.9728 11.75 14.5837 11.75C16.1945 11.75 17.5003 10.4442 17.5003 8.83333Z" stroke="#292D32" stroke-width="1.5" stroke-miterlimit="10" stroke-linecap="round" stroke-linejoin="round"/>
</svg>
