<svg width="40" height="21" viewBox="0 0 40 21" fill="none" xmlns="http://www.w3.org/2000/svg">
<path d="M32.075 8.77607C33.5403 8.77607 34.8266 9.54537 35.5656 10.7054V5.77771C34.5117 5.25227 33.327 4.95654 32.075 4.95654C29.9163 4.95654 27.9564 5.83025 26.5254 7.24759C27.4221 8.32271 28.0706 9.62014 28.3797 11.0483C29.0684 9.69626 30.4637 8.77607 32.075 8.77607Z" fill="#6C6C77"/>
<path d="M36.2261 3.84917V6.14762V12.9776V12.9783C36.2261 15.299 34.3679 17.1805 32.0751 17.1805C29.7824 17.1805 27.9242 15.2788 27.9242 12.9581C27.9242 10.981 27.2242 9.15946 26.0646 7.74482C24.6099 5.96911 22.4307 4.83335 19.9993 4.83335C19.7768 4.83335 19.5569 4.84346 19.339 4.86165C17.1902 5.04353 15.2825 6.10316 13.9618 7.68756C12.5077 5.94149 10.3411 4.83268 7.92419 4.83268C3.55466 4.83268 0 8.45888 0 12.9163V17.1508C0 19.2768 1.68917 21 3.7739 21V12.9163C3.7739 10.5775 5.63212 8.68185 7.92485 8.68185C10.2176 8.68185 12.0758 10.5775 12.0758 12.9163V17.1508C12.0758 19.2768 13.765 21 15.849 21V12.9163C15.849 10.8072 17.3612 9.05841 19.3397 8.73574C19.5549 8.70071 19.7755 8.68185 20 8.68185C22.2927 8.68185 24.151 10.6192 24.151 12.9574C24.151 17.3805 27.7056 21 32.0751 21C36.4447 21 39.9993 17.4014 39.9993 12.9783V12.9776V0C37.9159 0 36.2261 1.72317 36.2261 3.84917Z" fill="#6C6C77"/>
</svg>
