<svg width="24" height="24" viewBox="0 0 24 24" fill="none" xmlns="http://www.w3.org/2000/svg">
<path fill-rule="evenodd" clip-rule="evenodd" d="M12 24.0002C5.37258 24.0002 0 18.6277 0 12.0002C0 5.37283 5.37258 0.000244141 12 0.000244141C18.6274 0.000244141 24 5.37283 24 12.0002C24 18.6277 18.6274 24.0002 12 24.0002ZM12.5189 9.00578C11.4441 9.4528 9.29616 10.378 6.07494 11.7815C5.55186 11.9895 5.27785 12.193 5.25291 12.3919C5.21075 12.7282 5.63186 12.8606 6.2053 13.041C6.28331 13.0655 6.36413 13.0909 6.44699 13.1178C7.01117 13.3012 7.77009 13.5158 8.16462 13.5243C8.5225 13.532 8.92193 13.3845 9.36292 13.0817C12.3726 11.05 13.9262 10.0232 14.0238 10.001C14.0926 9.98541 14.1879 9.96577 14.2525 10.0232C14.3171 10.0806 14.3108 10.1894 14.3039 10.2186C14.2622 10.3964 12.6092 11.9332 11.7538 12.7285C11.4871 12.9764 11.2979 13.1523 11.2593 13.1924C11.1726 13.2824 11.0844 13.3675 10.9995 13.4493C10.4754 13.9546 10.0823 14.3335 11.0213 14.9522C11.4725 15.2496 11.8336 15.4955 12.1938 15.7408C12.5872 16.0087 12.9795 16.2759 13.4872 16.6087C13.6165 16.6935 13.7401 16.7815 13.8604 16.8673C14.3182 17.1937 14.7295 17.4869 15.2376 17.4401C15.5329 17.413 15.8379 17.1353 15.9928 16.3073C16.3588 14.3504 17.0784 10.1103 17.2447 8.36309C17.2592 8.21001 17.2409 8.0141 17.2262 7.9281C17.2115 7.8421 17.1807 7.71957 17.0689 7.62886C16.9365 7.52144 16.7322 7.49878 16.6407 7.50031C16.2251 7.50771 15.5875 7.72943 12.5189 9.00578Z" fill="#1D1D1F"/>
</svg>
