<svg width="179" height="51" viewBox="0 0 179 51" fill="none" xmlns="http://www.w3.org/2000/svg">
<path d="M71.744 9.8H73.328V18.44L79.952 9.8H81.424V21H79.856V12.376L73.216 21H71.744V9.8ZM96.8999 21L96.8839 12.84L92.8359 19.64H92.0999L88.0519 12.888V21H86.5159V9.8H87.8279L92.4999 17.672L97.1079 9.8H98.4199L98.4359 21H96.8999ZM113.17 9.8V21H111.602V11.192H105.106V21H103.522V9.8H113.17ZM126.391 19.608V21H118.263V9.8H126.167V11.192H119.863V14.632H125.479V15.992H119.863V19.608H126.391ZM134.871 9.8C136.322 9.8 137.463 10.1467 138.295 10.84C139.127 11.5333 139.543 12.488 139.543 13.704C139.543 14.92 139.127 15.8747 138.295 16.568C137.463 17.2613 136.322 17.608 134.871 17.608H132.103V21H130.503V9.8H134.871ZM134.823 16.216C135.837 16.216 136.61 16.0027 137.143 15.576C137.677 15.1387 137.943 14.5147 137.943 13.704C137.943 12.8933 137.677 12.2747 137.143 11.848C136.61 11.4107 135.837 11.192 134.823 11.192H132.103V16.216H134.823ZM143.369 9.8H144.953V18.44L151.577 9.8H153.049V21H151.481V12.376L144.841 21H143.369V9.8ZM166.349 9.8V21H164.781V17.736H161.693C161.501 17.736 161.357 17.7307 161.261 17.72L159.021 21H157.325L159.805 17.448C159.005 17.1813 158.392 16.7387 157.965 16.12C157.538 15.4907 157.325 14.728 157.325 13.832C157.325 12.5627 157.73 11.576 158.541 10.872C159.362 10.1573 160.466 9.8 161.853 9.8H166.349ZM158.941 13.816C158.941 14.648 159.181 15.288 159.661 15.736C160.152 16.1733 160.872 16.392 161.821 16.392H164.781V11.192H161.917C160.957 11.192 160.221 11.416 159.709 11.864C159.197 12.312 158.941 12.9627 158.941 13.816ZM75.648 36.072H73.312V41H71.744V29.8H73.312V34.664H75.68L79.2 29.8H80.912L76.912 35.224L81.104 41H79.28L75.648 36.072ZM93.7304 29.8V41H92.1624V31.192H87.2024L87.0904 34.472C87.037 36.0187 86.909 37.272 86.7064 38.232C86.5144 39.192 86.205 39.9173 85.7784 40.408C85.3517 40.888 84.7757 41.128 84.0504 41.128C83.7197 41.128 83.3837 41.0853 83.0424 41L83.1544 39.576C83.325 39.6187 83.4957 39.64 83.6664 39.64C84.125 39.64 84.493 39.4587 84.7704 39.096C85.0477 38.7227 85.2557 38.168 85.3944 37.432C85.533 36.696 85.6237 35.7253 85.6664 34.52L85.8424 29.8H93.7304ZM98.819 29.8H100.403V38.44L107.027 29.8H108.499V41H106.931V32.376L100.291 41H98.819V29.8ZM123.975 41L123.959 32.84L119.911 39.64H119.175L115.127 32.888V41H113.591V29.8H114.903L119.575 37.672L124.183 29.8H125.495L125.511 41H123.975ZM137.877 38.2H131.925L130.693 41H129.045L134.117 29.8H135.701L140.789 41H139.109L137.877 38.2ZM137.317 36.92L134.901 31.432L132.485 36.92H137.317ZM151.456 31.192H147.616V41H146.048V31.192H142.224V29.8H151.456V31.192ZM161.718 38.2H155.766L154.534 41H152.886L157.958 29.8H159.542L164.63 41H162.95L161.718 38.2ZM161.158 36.92L158.742 31.432L156.326 36.92H161.158Z" fill="#1D1D1F"/>
<path d="M49.1426 0.05706C49.0339 0.112312 48.853 0.289687 48.8016 0.392704C48.7863 0.42317 48.7311 0.505273 48.6776 0.573951C48.5689 0.716729 48.3268 1.09601 48.0694 1.52511C47.5662 2.36758 45.6713 5.22907 44.9641 6.21457C44.6324 6.67595 44.1405 7.27443 43.2255 8.33042C42.9206 8.6813 42.5145 9.15404 42.32 9.37918C41.4603 10.3799 40.5662 11.3158 40.3108 11.4837C40.2499 11.5237 40.16 11.5694 40.1107 11.5846C39.916 11.6455 39.4245 11.5694 38.9649 11.4054C38.8335 11.3597 38.6447 11.2911 38.5456 11.2567C38.1413 11.1119 36.9861 10.8183 36.1912 10.6582C35.4135 10.5018 34.0123 10.3931 33.0459 10.4143C32.1671 10.4334 30.6401 10.5952 30.0244 10.7362C29.382 10.8813 28.1047 11.2454 27.7061 11.3979C26.8466 11.722 26.3336 11.9525 25.7008 12.2995C24.2903 13.0697 23.9642 13.2889 23.0719 14.0534C22.4504 14.5853 21.9759 15.0237 21.444 15.5535C20.9217 16.0779 20.9178 16.0817 20.4603 16.6898C20.2086 17.0251 19.881 17.4543 19.734 17.6448C19.4787 17.9727 19.4614 17.9918 19.3491 18.0414C19.1317 18.1384 18.6646 18.2854 17.3569 18.6628C16.232 18.9889 15.7365 19.1374 15.1551 19.3204C13.6721 19.7914 12.9246 20.1363 12.9246 20.3498C12.9246 20.4472 13.0411 20.4663 13.4603 20.4358C14.0761 20.3937 14.751 20.2946 15.3077 20.167C15.6852 20.0811 17.2616 19.6749 17.7114 19.5492C17.9784 19.473 18.7599 19.2365 18.8399 19.2042C18.859 19.1965 18.8361 19.2518 18.7751 19.353C18.5177 19.7761 18.108 20.7464 17.8144 21.6175C17.3796 22.91 17.0843 24.6486 17.0308 26.2308C17.0138 26.7436 17.069 28.4479 17.1091 28.6271C17.1204 28.673 17.0843 28.6862 16.6802 28.8024C16.0453 28.9836 15.6012 29.081 14.4688 29.2885C13.1495 29.5289 12.7875 29.586 11.4855 29.7577C9.80209 29.9787 9.04922 30.0473 6.977 30.177C4.65899 30.32 4.40158 30.3293 2.25682 30.3293C0.289686 30.3314 0.392703 30.3236 0.156204 30.4723C0.0913985 30.5123 0 30.6745 0 30.745C0 30.8859 0.217136 31.0729 0.478421 31.1568C0.665091 31.2159 0.791087 31.2386 1.14377 31.2712C2.70297 31.4217 4.31586 31.4142 7.32013 31.2446C9.04353 31.1472 9.31799 31.1263 10.7419 30.9758C11.7581 30.8689 14.1371 30.6058 14.5928 30.5487C16.2418 30.3409 18.6724 29.9596 20.79 29.5764C22.1533 29.3286 22.4391 29.2619 22.704 29.1285C23.0319 28.9627 23.0605 28.831 23.0357 27.6129C23.0262 27.1724 23.0205 26.7131 23.0223 26.5912C23.0319 26.0994 23.2761 24.7305 23.4762 24.0502C23.5981 23.6324 24.1682 22.201 24.4083 21.6996C24.5836 21.3392 24.637 21.2574 25.1118 20.6207C25.8342 19.6465 26.2461 19.0287 26.5223 18.5102C26.7818 18.0202 26.8523 17.6926 26.7415 17.4752C26.6483 17.2864 26.2804 17.2635 25.5541 17.3969C25.4186 17.4217 24.8392 17.5495 24.2673 17.6809C22.9784 17.9784 22.7326 18.0336 22.2656 18.1196C21.8233 18.2014 21.6271 18.2492 21.1696 18.3863C20.8035 18.4968 20.2564 18.6476 20.1038 18.6819C19.9971 18.7047 19.8941 18.6819 19.8637 18.6246C19.8371 18.5732 19.8866 18.4245 19.9798 18.2815C20.142 18.03 20.409 17.7992 20.6739 17.6809C20.9904 17.54 21.7776 17.2503 23.028 16.8176C23.421 16.6802 24.0347 16.4667 24.3912 16.3428C25.2871 16.0283 26.5414 15.6012 26.6788 15.5651C26.9359 15.4946 27.2277 15.3916 27.4794 15.279C28.0704 15.0159 28.4706 14.8997 28.7758 14.9016C29.0864 14.9016 29.2446 14.9798 29.5591 15.2829C29.8183 15.5346 29.9844 15.8434 30.0644 16.2323C30.1176 16.4933 30.1119 16.665 30.0432 16.8576C29.9079 17.2294 29.4352 17.9766 28.7319 18.9295C28.24 19.5949 27.7138 20.4528 27.4946 20.9408C27.2925 21.3906 27.0924 22.279 27.0294 23.0092C27.0046 23.2914 27.0162 23.8098 27.0506 23.991C27.1972 24.7744 27.8512 25.3827 28.7985 25.615C29.075 25.6819 29.3247 25.6858 29.5382 25.6228C30.1176 25.455 31.2691 24.8831 31.717 24.54C32.2946 24.0977 33.4557 22.9635 34.0942 22.2181C34.5269 21.7128 35.3392 20.5559 35.7758 19.8257C35.9797 19.4844 36.0654 19.3282 36.4772 18.5485C36.8756 17.7935 36.9614 17.643 37.2645 17.1568C37.6954 16.4667 38.029 15.9844 38.3396 15.6069C39.0679 14.7224 39.5941 14.1469 40.6235 13.1059C43.3476 10.3533 44.8002 8.83182 45.8771 7.6062C46.3062 7.11616 47.2496 5.97446 48.0084 5.0251C48.3763 4.56372 49.3334 3.15299 49.5449 2.75641C49.7032 2.46492 49.8441 2.00741 49.888 1.65085C49.9128 1.44301 49.9167 0.854085 49.8919 0.80632C49.8823 0.787214 49.8671 0.734028 49.8596 0.686263C49.8405 0.566206 49.7393 0.304919 49.6918 0.251733C49.6366 0.192608 49.3239 0 49.2818 0C49.2648 0.00180731 49.2018 0.0265939 49.1426 0.05706Z" fill="#1D1D1F"/>
<path d="M49.6779 7.14293C49.5064 7.17133 49.2508 7.28958 49.0107 7.4556C48.6619 7.6939 48.3815 7.97404 47.8574 8.60686C46.9062 9.75656 46.7363 9.94711 46.3 10.3473C45.913 10.7039 45.7643 10.826 45.385 11.0984C45.0054 11.371 44.8722 11.4893 44.7444 11.661C44.4736 12.0268 44.3574 12.3738 44.3535 12.8104C44.3535 13.0887 44.3765 13.1801 44.4545 13.2201C44.6605 13.327 45.1162 13.1326 45.7986 12.6483C45.9357 12.553 46.1531 12.4063 46.2827 12.3242C46.4144 12.2424 46.6888 12.0477 46.8928 11.8933C47.316 11.577 48.7667 10.3894 48.9516 10.212C49.2108 9.96027 49.4739 9.61146 49.6074 9.34656C49.878 8.81263 49.9657 8.40857 49.9714 7.70139C49.9732 7.38124 49.9696 7.34303 49.9353 7.2839C49.8723 7.17727 49.7788 7.12563 49.6779 7.14293Z" fill="#1D1D1F"/>
<path d="M48.7637 13.7712C48.394 13.876 47.8753 14.16 47.2463 14.6043C46.3349 15.2485 46.1939 15.3324 45.8185 15.4602C45.6621 15.5134 45.4733 15.5899 45.399 15.6278C45.2294 15.7213 45.1054 15.8643 44.8632 16.2531C44.7644 16.4114 44.6366 16.604 44.5774 16.682C44.381 16.9451 44.303 17.1702 44.36 17.3094C44.3964 17.399 44.484 17.4617 44.5697 17.4617C44.7489 17.4617 45.2885 17.3264 45.7708 17.1625C46.3579 16.9624 47.4425 16.4228 47.9822 16.0644C48.4701 15.7386 48.9258 15.3477 49.1277 15.0807C49.2974 14.854 49.3547 14.5527 49.2803 14.2592C49.2326 14.0647 49.1239 13.8378 49.0554 13.7825C48.9981 13.7386 48.8972 13.735 48.7637 13.7712Z" fill="#1D1D1F"/>
<path d="M27.8113 15.8469C27.6319 15.9138 27.4109 16.1255 27.3726 16.2647C27.3308 16.4227 27.409 16.6496 27.5405 16.7506C27.6014 16.7965 27.6262 16.804 27.7349 16.804C27.8797 16.8022 28.0037 16.7658 28.2324 16.6535C28.5185 16.5143 28.6099 16.3827 28.5564 16.1844C28.5298 16.0834 28.4059 15.9481 28.2802 15.8833C28.1637 15.8242 27.9236 15.8051 27.8113 15.8469Z" fill="#1D1D1F"/>
<path d="M46.9811 19.6446C46.3387 19.7611 45.3207 20.1747 45.0444 20.4321C44.8043 20.6531 44.52 21.1566 43.6071 22.9711C42.8751 24.4258 42.7055 24.7423 42.5072 25.0206C41.468 26.4711 40.3033 27.9562 39.8058 28.4594C39.5466 28.7246 39.3883 28.818 38.9117 28.9877C38.5611 29.1134 38.4103 29.1916 38.2827 29.3096C38.1606 29.4222 38.0292 29.6378 38.0731 29.6528C38.0863 29.6566 38.2179 29.6987 38.3646 29.7462C40.271 30.3524 42.4326 31.3552 43.3554 32.0606C43.4163 32.1063 43.4622 32.1481 43.4584 32.152C43.4545 32.1559 43.3897 32.135 43.3135 32.1024C42.9265 31.9442 42.6709 31.8832 42.0494 31.8071C41.8362 31.7823 41.4871 31.7345 41.2718 31.7023C40.7113 31.6201 40.5416 31.6258 40.412 31.7345L40.3511 31.7862L40.3624 31.9785C40.3797 32.2894 40.4637 32.4781 40.6199 32.5581C40.782 32.64 41.2108 32.7353 41.8798 32.8365C42.366 32.9088 42.8999 33.0118 43.3972 33.13C43.708 33.2023 43.9234 33.2462 44.503 33.3492C44.9435 33.4293 44.9318 33.4236 45.1815 33.6789C45.4753 33.9802 45.7534 34.3425 45.8755 34.5787L45.9081 34.6435L45.8621 34.6322C45.6638 34.5826 44.0416 34.3461 43.0448 34.2185C41.632 34.0394 41.1822 34.0012 41.0412 34.0507C40.7934 34.1346 40.6046 34.4359 40.6046 34.7409C40.6064 34.9487 40.7095 35.0897 40.946 35.2097C41.167 35.3202 41.2488 35.3355 42.7873 35.5433C43.6641 35.6616 43.8129 35.6902 44.5965 35.879C45.4085 36.0752 45.6716 36.1247 45.9346 36.1382C46.1482 36.1477 46.1748 36.1459 46.253 36.1077C46.5065 35.9856 47.065 34.9867 47.9439 33.0843C48.247 32.4265 48.4205 31.9633 48.611 31.2866C48.9789 29.9923 49.1315 28.9608 49.2211 27.129C49.2689 26.1757 49.2363 25.663 49.0476 24.3819C48.8702 23.1733 48.6531 22.1039 48.4775 21.5759C48.249 20.8914 47.862 20.1117 47.5873 19.7763C47.4616 19.6199 47.3015 19.5855 46.9811 19.6446Z" fill="#1D1D1F"/>
<path d="M24.4114 32.762C24.3579 32.8991 24.4741 33.2082 24.7088 33.5549C25.0556 34.0736 25.8887 34.92 26.716 35.5928C27.2538 36.0333 27.8523 36.4296 28.1172 36.5231L28.2145 36.5574L28.1231 36.5688C27.9057 36.5974 27.0821 36.6813 26.4015 36.7443C25.9974 36.7823 25.4447 36.8339 25.172 36.8605C23.3038 37.0397 22.3831 37.1045 21.3402 37.1275L20.7988 37.1409L20.8275 37.2075C20.9876 37.5927 22.3735 38.8697 23.7422 39.8973C25.0119 40.8467 26.7715 41.733 28.4985 42.2917C29.5108 42.6176 30.4659 42.7663 32.0062 42.8368C32.559 42.8616 34.1469 42.8502 34.6178 42.8179C35.9542 42.7245 36.8328 42.5871 37.6869 42.3393C38.0091 42.244 38.2017 42.1735 38.9832 41.859C39.2293 41.7599 39.5399 41.6416 39.6713 41.5959L39.9117 41.512L40.2527 41.7483C41.1794 42.387 41.9152 42.9607 42.6433 43.6069C43.0285 43.9501 43.7987 44.7241 44.2732 45.2464C44.4945 45.4866 45.0243 46.0662 45.4552 46.5332C47.1365 48.3576 47.7675 49.0591 48.389 49.8006C48.5625 50.0064 48.5816 50.0216 48.6043 49.9912C48.6578 49.9189 48.6769 49.8006 48.673 49.5548C48.6691 49.2039 48.6405 49.0095 48.57 48.8608C48.406 48.5102 47.7293 47.5092 46.9173 46.4189C44.8986 43.71 42.8646 41.4147 41.8656 40.7227C41.7856 40.6654 41.6826 40.6009 41.6369 40.5779L41.5548 40.5361L41.7017 40.4426C41.877 40.3318 42.2145 40.0879 42.5003 39.865C42.8816 39.5655 43.7718 38.8165 44.1607 38.4675C44.1989 38.4313 44.2046 38.4313 44.4276 38.4791C44.5516 38.5039 44.8565 38.5648 45.1025 38.6126C46.3263 38.8527 46.7707 39.0014 48.0002 39.5808C48.5282 39.8286 48.9704 40.0117 49.1362 40.0517C49.3745 40.1052 49.5098 39.9812 49.5098 39.7086C49.5119 39.3254 49.1896 38.7517 48.816 38.4695C48.3128 38.0882 47.0888 37.5927 45.644 37.1845C44.7499 36.931 44.3055 36.8357 43.3964 36.7082C41.7817 36.4794 40.8267 36.386 40.0888 36.386C39.6904 36.3839 39.6086 36.3898 39.3455 36.4355C39.1833 36.4621 38.9127 36.5078 38.7449 36.5347C38.2056 36.6204 37.952 36.71 37.7669 36.8778C37.6277 37.0035 37.5839 37.0949 37.5973 37.2266C37.6089 37.3371 37.7021 37.5525 37.8033 37.7012C38.0473 38.0634 38.6974 38.744 39.1263 39.0871C39.2729 39.2054 39.5438 39.4207 39.7266 39.5655C40.1079 39.8707 40.4779 40.2291 40.5463 40.3587L40.5923 40.4483L40.5445 40.5397C40.4874 40.6504 40.3805 40.738 40.228 40.7971C40.0813 40.8544 39.7495 40.8619 39.599 40.8085C39.4769 40.7666 39.1433 40.574 38.0778 39.9373C35.8037 38.5782 35.8837 38.6219 34.4177 37.9643C33.9563 37.7567 33.3176 37.4649 32.9974 37.3162L32.416 37.0454L32.1872 37.0131C31.1713 36.8662 30.161 36.529 28.9769 35.9341C28.2067 35.5489 27.4748 35.0305 26.1918 33.9629C25.2941 33.2157 24.928 32.9412 24.6631 32.8173C24.4839 32.7352 24.4266 32.722 24.4114 32.762Z" fill="#1D1D1F"/>
<path d="M9.91211 49.3849C9.91211 49.4097 10.0229 49.5166 10.036 49.5052C10.0399 49.4995 10.0151 49.4649 9.97898 49.4309C9.94283 49.3947 9.91211 49.3756 9.91211 49.3849Z" fill="#1D1D1F"/>
</svg>
