<svg width="24" height="24" viewBox="0 0 24 24" fill="none" xmlns="http://www.w3.org/2000/svg">
<path d="M12 14.1002C10.875 14.1002 9.9 13.2002 9.9 12.0002C9.9 10.8752 10.8 9.90024 12 9.90024C13.125 9.90024 14.1 10.8002 14.1 12.0002C14.1 13.1252 13.125 14.1002 12 14.1002Z" fill="#1D1D1F"/>
<path fill-rule="evenodd" clip-rule="evenodd" d="M14.55 6.90024H9.45C8.85 6.97524 8.55 7.05024 8.325 7.12524C8.025 7.20024 7.8 7.35024 7.575 7.57524C7.39696 7.75328 7.31284 7.93132 7.21116 8.14652C7.18437 8.20323 7.15628 8.26269 7.125 8.32524C7.1134 8.36005 7.1 8.39665 7.08564 8.43588C7.00718 8.65024 6.9 8.94306 6.9 9.45024V14.5502C6.975 15.1502 7.05 15.4502 7.125 15.6752C7.2 15.9752 7.35 16.2002 7.575 16.4252C7.75304 16.6033 7.93108 16.6874 8.14628 16.7891C8.20304 16.8159 8.26239 16.8439 8.325 16.8752C8.35981 16.8868 8.39641 16.9002 8.43564 16.9146C8.65 16.9931 8.94282 17.1002 9.45 17.1002H14.55C15.15 17.0252 15.45 16.9502 15.675 16.8752C15.975 16.8002 16.2 16.6502 16.425 16.4252C16.603 16.2472 16.6872 16.0692 16.7888 15.854C16.8156 15.7972 16.8437 15.7378 16.875 15.6752C16.8866 15.6404 16.9 15.6038 16.9144 15.5646C16.9928 15.3502 17.1 15.0574 17.1 14.5502V9.45024C17.025 8.85024 16.95 8.55024 16.875 8.32524C16.8 8.02524 16.65 7.80024 16.425 7.57524C16.247 7.3972 16.0689 7.31308 15.8537 7.21141C15.797 7.18463 15.7375 7.1565 15.675 7.12524C15.6402 7.11364 15.6036 7.10024 15.5644 7.08588C15.35 7.00742 15.0572 6.90024 14.55 6.90024ZM12 8.77524C10.2 8.77524 8.775 10.2002 8.775 12.0002C8.775 13.8002 10.2 15.2252 12 15.2252C13.8 15.2252 15.225 13.8002 15.225 12.0002C15.225 10.2002 13.8 8.77524 12 8.77524ZM16.05 8.70024C16.05 9.11446 15.7142 9.45024 15.3 9.45024C14.8858 9.45024 14.55 9.11446 14.55 8.70024C14.55 8.28603 14.8858 7.95024 15.3 7.95024C15.7142 7.95024 16.05 8.28603 16.05 8.70024Z" fill="#1D1D1F"/>
<path fill-rule="evenodd" clip-rule="evenodd" d="M0 12.0002C0 5.37283 5.37258 0.000244141 12 0.000244141C18.6274 0.000244141 24 5.37283 24 12.0002C24 18.6277 18.6274 24.0002 12 24.0002C5.37258 24.0002 0 18.6277 0 12.0002ZM9.45 5.77524H14.55C15.225 5.85024 15.675 5.92524 16.05 6.07524C16.5 6.30024 16.8 6.45024 17.175 6.82524C17.55 7.20024 17.775 7.57524 17.925 7.95024C18.075 8.32524 18.225 8.77524 18.225 9.45024V14.5502C18.15 15.2252 18.075 15.6752 17.925 16.0502C17.7 16.5002 17.55 16.8002 17.175 17.1752C16.8 17.5502 16.425 17.7752 16.05 17.9252C15.675 18.0752 15.225 18.2252 14.55 18.2252H9.45C8.775 18.1502 8.325 18.0752 7.95 17.9252C7.5 17.7002 7.2 17.5502 6.825 17.1752C6.45 16.8002 6.225 16.4252 6.075 16.0502C5.925 15.6752 5.775 15.2252 5.775 14.5502V9.45024C5.85 8.77524 5.925 8.32524 6.075 7.95024C6.3 7.50024 6.45 7.20024 6.825 6.82524C7.2 6.45024 7.575 6.22524 7.95 6.07524C8.325 5.92524 8.775 5.77524 9.45 5.77524Z" fill="#1D1D1F"/>
</svg>
