<svg width="236" height="120" viewBox="0 0 236 120" fill="none" xmlns="http://www.w3.org/2000/svg">
<path d="M92.36 55V41H93.82V52.6L102.78 41H104.12V55H102.66V43.42L93.7 55H92.36ZM110.844 55V41H112.064L118.464 51.92H117.824L124.164 41H125.384V55H123.964V43.22H124.304L118.464 53.22H117.764L111.884 43.22H112.264V55H110.844ZM132.102 55V41H143.882V55H142.422V41.88L142.802 42.28H133.182L133.562 41.88V55H132.102ZM151.926 47.26H159.326V48.52H151.926V47.26ZM152.086 53.72H160.506V55H150.606V41H160.206V42.28H152.086V53.72ZM165.79 55V41H171.03C172.216 41 173.236 41.1933 174.09 41.58C174.943 41.9533 175.596 42.5 176.05 43.22C176.516 43.9267 176.75 44.7867 176.75 45.8C176.75 46.7867 176.516 47.64 176.05 48.36C175.596 49.0667 174.943 49.6133 174.09 50C173.236 50.3867 172.216 50.58 171.03 50.58H166.61L167.27 49.88V55H165.79ZM167.27 50L166.61 49.28H170.99C172.39 49.28 173.45 48.98 174.17 48.38C174.903 47.7667 175.27 46.9067 175.27 45.8C175.27 44.68 174.903 43.8133 174.17 43.2C173.45 42.5867 172.39 42.28 170.99 42.28H166.61L167.27 41.58V50ZM181.774 55V41H183.234V52.6L192.194 41H193.534V55H192.074V43.42L183.114 55H181.774ZM208.718 55V50.36L209.118 50.76H204.538C203.418 50.76 202.458 50.5667 201.658 50.18C200.872 49.7933 200.265 49.2467 199.838 48.54C199.425 47.82 199.218 46.96 199.218 45.96C199.218 44.8933 199.445 43.9933 199.898 43.26C200.352 42.5133 200.992 41.9533 201.818 41.58C202.658 41.1933 203.632 41 204.738 41H210.178V55H208.718ZM199.218 55L202.658 50.08H204.178L200.798 55H199.218ZM208.718 49.94V41.86L209.118 42.28H204.798C203.492 42.28 202.478 42.5933 201.758 43.22C201.052 43.8333 200.698 44.7333 200.698 45.92C200.698 47.0667 201.032 47.9533 201.698 48.58C202.365 49.1933 203.352 49.5 204.658 49.5H209.118L208.718 49.94ZM101.94 79L96.56 72.02L97.76 71.3L103.64 79H101.94ZM92.36 79V65H93.8V79H92.36ZM93.36 72.58V71.28H97.74V72.58H93.36ZM97.88 72.16L96.52 71.92L101.74 65H103.34L97.88 72.16ZM107.168 79.12C106.981 79.12 106.801 79.1067 106.628 79.08C106.455 79.0667 106.261 79.0333 106.048 78.98L106.168 77.66C106.395 77.7133 106.615 77.74 106.828 77.74C107.428 77.74 107.908 77.5067 108.268 77.04C108.641 76.56 108.921 75.8267 109.108 74.84C109.295 73.84 109.415 72.56 109.468 71L109.668 65H119.168V79H117.708V65.88L118.088 66.28H110.608L110.968 65.86L110.788 70.96C110.735 72.36 110.635 73.5733 110.488 74.6C110.341 75.6133 110.128 76.46 109.848 77.14C109.568 77.8067 109.208 78.3067 108.768 78.64C108.328 78.96 107.795 79.12 107.168 79.12ZM125.891 79V65H127.351V76.6L136.311 65H137.651V79H136.191V67.42L127.231 79H125.891ZM144.376 79V65H145.596L151.996 75.92H151.356L157.696 65H158.916V79H157.496V67.22H157.836L151.996 77.22H151.296L145.416 67.22H145.796V79H144.376ZM163.573 79L169.973 65H171.433L177.833 79H176.273L170.393 65.86H170.993L165.113 79H163.573ZM166.093 75.26L166.533 74.06H174.673L175.113 75.26H166.093ZM184.593 79V65.88L184.993 66.28H179.673V65H190.973V66.28H185.673L186.053 65.88V79H184.593ZM192.808 79L199.208 65H200.668L207.068 79H205.508L199.628 65.86H200.228L194.348 79H192.808ZM195.328 75.26L195.768 74.06H203.908L204.348 75.26H195.328Z" fill="#1D1D1F"/>
<path d="M64.9042 27.0754C64.7607 27.1483 64.5216 27.3826 64.4538 27.5187C64.4336 27.5589 64.3607 27.6673 64.2901 27.758C64.1465 27.9466 63.8267 28.4475 63.4867 29.0143C62.8221 30.1269 60.3195 33.9062 59.3855 35.2078C58.9474 35.8171 58.2978 36.6076 57.0893 38.0022C56.6866 38.4657 56.1502 39.09 55.8934 39.3874C54.7579 40.7091 53.577 41.9452 53.2398 42.1668C53.1593 42.2197 53.0406 42.28 52.9755 42.3002C52.7184 42.3806 52.0691 42.28 51.4622 42.0635C51.2886 42.0032 51.0393 41.9125 50.9084 41.8671C50.3744 41.6758 48.8488 41.2881 47.7988 41.0767C46.7717 40.87 44.9212 40.7265 43.6448 40.7544C42.4841 40.7797 40.4674 40.9935 39.6541 41.1797C38.8057 41.3713 37.1188 41.8521 36.5923 42.0536C35.4571 42.4816 34.7796 42.7861 33.9438 43.2444C32.0809 44.2616 31.6503 44.5511 30.4718 45.5608C29.651 46.2632 29.0242 46.8422 28.3218 47.542C27.632 48.2345 27.6268 48.2396 27.0226 49.0427C26.6901 49.4856 26.2574 50.0524 26.0634 50.304C25.7261 50.7371 25.7033 50.7623 25.555 50.8278C25.2678 50.956 24.651 51.15 22.9238 51.6486C21.4381 52.0793 20.7837 52.2753 20.0158 52.5171C18.0571 53.1391 17.0699 53.5946 17.0699 53.8767C17.0699 54.0052 17.2237 54.0304 17.7775 53.9902C18.5908 53.9346 19.4821 53.8037 20.2173 53.6352C20.7159 53.5217 22.798 52.9853 23.392 52.8192C23.7446 52.7186 24.7768 52.4063 24.8825 52.3637C24.9077 52.3534 24.8774 52.4264 24.7969 52.5601C24.4569 53.119 23.9158 54.4004 23.5281 55.5509C22.9538 57.258 22.5637 59.5542 22.4931 61.6439C22.4706 62.3211 22.5436 64.572 22.5965 64.8087C22.6115 64.8694 22.5637 64.8867 22.0301 65.0402C21.1916 65.2796 20.605 65.4081 19.1094 65.6823C17.3669 65.9998 16.8889 66.0751 15.1692 66.3019C12.9459 66.5938 11.9516 66.6845 9.21475 66.8557C6.15328 67.0446 5.81331 67.0568 2.98065 67.0568C0.382598 67.0596 0.518656 67.0493 0.206303 67.2458C0.120713 67.2986 0 67.5128 0 67.6058C0 67.792 0.286778 68.0389 0.631866 68.1497C0.878407 68.2278 1.04481 68.2578 1.51061 68.3008C3.56989 68.4996 5.7001 68.4897 9.66793 68.2657C11.9441 68.1371 12.3066 68.1095 14.1872 67.9107C15.5293 67.7695 18.6713 67.4221 19.2731 67.3467C21.4511 67.0722 24.6612 66.5685 27.4581 66.0625C29.2585 65.7351 29.636 65.6472 29.9859 65.4709C30.4189 65.2519 30.4568 65.078 30.424 63.4692C30.4114 62.8875 30.4039 62.2808 30.4063 62.1199C30.4189 61.4703 30.7415 59.6623 31.0058 58.7638C31.1667 58.2121 31.9196 56.3216 32.2368 55.6594C32.4683 55.1834 32.5389 55.0753 33.166 54.2344C34.1201 52.9478 34.664 52.1318 35.0289 51.4471C35.3716 50.7998 35.4646 50.3671 35.3184 50.08C35.1953 49.8307 34.7093 49.8004 33.7501 49.9767C33.5711 50.0094 32.8059 50.1782 32.0506 50.3518C30.3483 50.7446 30.0237 50.8176 29.4068 50.9311C28.8227 51.0392 28.5636 51.1023 27.9593 51.2834C27.4758 51.4293 26.7532 51.6285 26.5517 51.6738C26.4109 51.7038 26.2748 51.6738 26.2346 51.5981C26.1994 51.5303 26.2649 51.3338 26.388 51.1449C26.6021 50.8128 26.9547 50.5079 27.3046 50.3518C27.7227 50.1656 28.7624 49.783 30.4138 49.2115C30.9328 49.0301 31.7434 48.7481 32.2143 48.5844C33.3975 48.1691 35.0541 47.605 35.2355 47.5573C35.5751 47.4642 35.9605 47.3282 36.2929 47.1795C37.0735 46.832 37.602 46.6786 38.0051 46.6809C38.4153 46.6809 38.6243 46.7843 39.0397 47.1846C39.382 47.5171 39.6013 47.9249 39.707 48.4384C39.7772 48.7832 39.7697 49.01 39.679 49.2643C39.5003 49.7554 38.876 50.7422 37.9471 52.0008C37.2975 52.8796 36.6026 54.0127 36.313 54.6572C36.046 55.2512 35.7818 56.4246 35.6986 57.3889C35.6658 57.7616 35.6812 58.4463 35.7265 58.6857C35.9202 59.7203 36.784 60.5237 38.0351 60.8306C38.4003 60.9189 38.73 60.924 39.012 60.8408C39.7772 60.6192 41.2981 59.8639 41.8897 59.4107C42.6525 58.8266 44.186 57.3286 45.0293 56.3441C45.6008 55.6768 46.6735 54.1488 47.2502 53.1844C47.5196 52.7336 47.6328 52.5273 48.1767 51.4975C48.7028 50.5004 48.816 50.3016 49.2163 49.6595C49.7855 48.7481 50.226 48.1111 50.6363 47.6125C51.5982 46.4443 52.2932 45.6842 53.6527 44.3093C57.2506 40.674 59.169 38.6645 60.5913 37.0458C61.158 36.3985 62.404 34.8907 63.4062 33.6368C63.8922 33.0275 65.1562 31.1642 65.4355 30.6405C65.6445 30.2555 65.8307 29.6512 65.8887 29.1803C65.9214 28.9058 65.9265 28.128 65.8938 28.0649C65.8812 28.0397 65.8611 27.9695 65.8512 27.9064C65.8259 27.7478 65.6923 27.4027 65.6295 27.3325C65.5565 27.2544 65.1436 27 65.088 27C65.0655 27.0024 64.9823 27.0351 64.9042 27.0754Z" fill="#1D1D1F"/>
<path d="M65.6121 36.434C65.3857 36.4715 65.0481 36.6277 64.731 36.847C64.2703 37.1617 63.9 37.5317 63.2077 38.3675C61.9515 39.8859 61.7271 40.1376 61.1508 40.6661C60.6397 41.137 60.4433 41.2983 59.9424 41.6581C59.4411 42.0182 59.2651 42.1744 59.0963 42.4011C58.7386 42.8843 58.5852 43.3426 58.5801 43.9192C58.5801 44.2868 58.6104 44.4075 58.7134 44.4604C58.9855 44.6016 59.5874 44.3448 60.4886 43.7051C60.6697 43.5793 60.9568 43.3856 61.128 43.2771C61.3019 43.169 61.6644 42.9119 61.9338 42.708C62.4927 42.2903 64.4087 40.7217 64.6529 40.4874C64.9952 40.155 65.3427 39.6943 65.519 39.3444C65.8764 38.6392 65.9923 38.1056 65.9998 37.1716C66.0022 36.7488 65.9974 36.6983 65.9521 36.6202C65.8689 36.4794 65.7454 36.4112 65.6121 36.434Z" fill="#1D1D1F"/>
<path d="M64.4026 45.1882C63.9143 45.3267 63.2293 45.7018 62.3986 46.2886C61.1949 47.1394 61.0087 47.2503 60.5129 47.419C60.3062 47.4893 60.057 47.5902 59.9588 47.6404C59.7347 47.7638 59.571 47.9527 59.2512 48.4662C59.1206 48.6753 58.9518 48.9297 58.8737 49.0326C58.6142 49.3801 58.5112 49.6775 58.5866 49.8613C58.6347 49.9796 58.7503 50.0624 58.8635 50.0624C59.1001 50.0624 59.8128 49.8838 60.4498 49.6672C61.2252 49.403 62.6577 48.6903 63.3704 48.217C64.0149 47.7866 64.6168 47.2704 64.8834 46.9178C65.1075 46.6184 65.1832 46.2204 65.085 45.8327C65.0219 45.576 64.8783 45.2762 64.788 45.2033C64.7123 45.1453 64.5789 45.1405 64.4026 45.1882Z" fill="#1D1D1F"/>
<path d="M36.731 47.9296C36.494 48.0179 36.2021 48.2975 36.1517 48.4813C36.0964 48.69 36.1997 48.9897 36.3733 49.1231C36.4538 49.1838 36.4865 49.1936 36.6301 49.1936C36.8214 49.1913 36.9851 49.1432 37.2872 48.9948C37.665 48.811 37.7857 48.6371 37.7151 48.3753C37.68 48.2419 37.5163 48.0632 37.3503 47.9777C37.1965 47.8996 36.8793 47.8743 36.731 47.9296Z" fill="#1D1D1F"/>
<path d="M62.0499 52.9451C61.2015 53.0989 59.857 53.6452 59.4921 53.9851C59.175 54.277 58.7995 54.942 57.5938 57.3385C56.627 59.2597 56.403 59.6777 56.1411 60.0453C54.7686 61.9611 53.2304 63.9225 52.5733 64.5871C52.2309 64.9373 52.0219 65.0607 51.3924 65.2847C50.9293 65.4508 50.7302 65.5541 50.5617 65.71C50.4005 65.8586 50.2269 66.1434 50.2849 66.1632C50.3022 66.1683 50.4762 66.2238 50.6698 66.2866C53.1878 67.0873 56.0426 68.4117 57.2613 69.3433C57.3418 69.4036 57.4025 69.4589 57.3974 69.464C57.3922 69.4691 57.3067 69.4415 57.2061 69.3985C56.6949 69.1895 56.3573 69.109 55.5365 69.0084C55.2549 68.9757 54.7939 68.9126 54.5095 68.87C53.7692 68.7615 53.5451 68.769 53.3739 68.9126L53.2935 68.9808L53.3085 69.2348C53.3313 69.6454 53.4421 69.8947 53.6484 70.0004C53.8626 70.1085 54.429 70.2343 55.3125 70.368C55.9546 70.4635 56.6598 70.5995 57.3165 70.7557C57.7271 70.8512 58.0115 70.9091 58.777 71.0452C59.3588 71.1509 59.3434 71.1434 59.6732 71.4806C60.0612 71.8786 60.4285 72.357 60.5898 72.669L60.6327 72.7546L60.572 72.7396C60.3101 72.6741 58.1677 72.3618 56.8511 72.1933C54.9851 71.9567 54.3911 71.9062 54.2049 71.9717C53.8776 72.0825 53.6283 72.4805 53.6283 72.8832C53.6307 73.1577 53.7668 73.3439 54.0791 73.5024C54.371 73.6484 54.4791 73.6685 56.5111 73.943C57.6691 74.0992 57.8655 74.137 58.9005 74.3863C59.9729 74.6454 60.3204 74.7109 60.6679 74.7286C60.9499 74.7413 60.985 74.7389 61.0883 74.6884C61.4232 74.5271 62.1607 73.2078 63.3215 70.6953C63.7218 69.8265 63.951 69.2147 64.2026 68.321C64.6885 66.6116 64.8901 65.2493 65.0084 62.8299C65.0715 61.571 65.0285 60.8937 64.7792 59.2017C64.545 57.6055 64.2582 56.1931 64.0263 55.4958C63.7245 54.5918 63.2134 53.562 62.8506 53.119C62.6845 52.9124 62.4731 52.867 62.0499 52.9451Z" fill="#1D1D1F"/>
<path d="M32.2419 70.2698C32.1713 70.4508 32.3248 70.859 32.6348 71.317C33.0927 72.002 34.1931 73.1198 35.2857 74.0085C35.996 74.5902 36.7864 75.1136 37.1362 75.2371L37.2648 75.2824L37.1441 75.2974C36.857 75.3353 35.7692 75.4461 34.8703 75.5293C34.3367 75.5794 33.6066 75.6476 33.2465 75.6827C30.7791 75.9194 29.5631 76.005 28.1858 76.0353L27.4707 76.0531L27.5086 76.141C27.72 76.6498 29.5504 78.3364 31.3581 79.6935C33.0351 80.9474 35.359 82.118 37.6399 82.8559C38.9769 83.2863 40.2383 83.4827 42.2727 83.5758C43.0027 83.6085 45.0999 83.5935 45.7219 83.5509C47.4868 83.4275 48.6473 83.246 49.7753 82.9187C50.2008 82.7929 50.4552 82.6998 51.4874 82.2844C51.8124 82.1535 52.2226 81.9973 52.3962 81.937L52.7136 81.8261L53.1641 82.1381C54.3879 82.9818 55.3598 83.7395 56.3214 84.593C56.8301 85.0462 57.8473 86.0685 58.4741 86.7583C58.7663 87.0754 59.4661 87.841 60.0352 88.4578C62.2557 90.8673 63.0891 91.7938 63.9099 92.7731C64.1391 93.0449 64.1643 93.065 64.1943 93.0248C64.2649 92.9293 64.2901 92.7731 64.285 92.4485C64.2799 91.9851 64.242 91.7283 64.149 91.5319C63.9324 91.0688 63.0387 89.7468 61.9662 88.3068C59.3 84.729 56.6136 81.6976 55.2943 80.7837C55.1886 80.708 55.0525 80.6228 54.9922 80.5924L54.8837 80.5372L55.0778 80.4137C55.3093 80.2674 55.755 79.9452 56.1325 79.6509C56.6361 79.2554 57.8119 78.2661 58.3254 77.8051C58.3759 77.7574 58.3834 77.7574 58.678 77.8205C58.8417 77.8532 59.2444 77.9337 59.5694 77.9967C61.1857 78.3139 61.7725 78.5103 63.3964 79.2755C64.0937 79.6028 64.6778 79.8446 64.8968 79.8975C65.2115 79.968 65.3902 79.8044 65.3902 79.4443C65.3929 78.9382 64.9674 78.1805 64.4739 77.8078C63.8093 77.3042 62.1927 76.6498 60.2844 76.1107C59.1036 75.7758 58.5167 75.65 57.3161 75.4816C55.1835 75.1794 53.9221 75.056 52.9476 75.056C52.4214 75.0533 52.3133 75.0611 51.9658 75.1215C51.7517 75.1566 51.3943 75.2169 51.1727 75.2524C50.4603 75.3656 50.1255 75.4839 49.881 75.7056C49.6972 75.8717 49.6392 75.9924 49.657 76.1663C49.6723 76.3122 49.7954 76.5966 49.9291 76.793C50.2513 77.2714 51.1099 78.1703 51.6763 78.6235C51.87 78.7797 52.2277 79.0641 52.4691 79.2554C52.9728 79.6584 53.4614 80.1317 53.5518 80.3029L53.6125 80.4212L53.5494 80.5419C53.4741 80.6882 53.3329 80.8038 53.1314 80.8819C52.9377 80.9576 52.4995 80.9675 52.3007 80.8969C52.1394 80.8417 51.6988 80.5873 50.2915 79.7464C47.288 77.9514 47.3938 78.009 45.4576 77.1405C44.8482 76.8663 44.0046 76.481 43.5818 76.2846L42.8138 75.9269L42.5117 75.8843C41.1699 75.6902 39.8356 75.2449 38.2718 74.4592C37.2546 73.9505 36.2878 73.2658 34.5934 71.8557C33.4078 70.8689 32.9243 70.5064 32.5744 70.3427C32.3377 70.2343 32.262 70.2169 32.2419 70.2698Z" fill="#1D1D1F"/>
<path d="M13.0918 92.2243C13.0918 92.257 13.2381 92.3982 13.2555 92.3832C13.2606 92.3757 13.2279 92.33 13.1801 92.285C13.1324 92.2372 13.0918 92.212 13.0918 92.2243Z" fill="#1D1D1F"/>
</svg>
