<svg width="20" height="21" viewBox="0 0 20 21" fill="none" xmlns="http://www.w3.org/2000/svg">
<path d="M10 13C11.3807 13 12.5 11.8807 12.5 10.5C12.5 9.11929 11.3807 8 10 8C8.61929 8 7.5 9.11929 7.5 10.5C7.5 11.8807 8.61929 13 10 13Z" stroke="#0071E3" stroke-width="1.5" stroke-miterlimit="10" stroke-linecap="round" stroke-linejoin="round"/>
<path d="M1.6665 11.2334V9.76669C1.6665 8.90003 2.37484 8.18336 3.24984 8.18336C4.75817 8.18336 5.37484 7.1167 4.6165 5.80836C4.18317 5.05836 4.4415 4.08336 5.19984 3.65003L6.6415 2.82503C7.29984 2.43336 8.14984 2.6667 8.5415 3.32503L8.63317 3.48336C9.38317 4.7917 10.6165 4.7917 11.3748 3.48336L11.4665 3.32503C11.8582 2.6667 12.7082 2.43336 13.3665 2.82503L14.8082 3.65003C15.5665 4.08336 15.8248 5.05836 15.3915 5.80836C14.6332 7.1167 15.2498 8.18336 16.7582 8.18336C17.6248 8.18336 18.3415 8.89169 18.3415 9.76669V11.2334C18.3415 12.1 17.6332 12.8167 16.7582 12.8167C15.2498 12.8167 14.6332 13.8834 15.3915 15.1917C15.8248 15.95 15.5665 16.9167 14.8082 17.35L13.3665 18.175C12.7082 18.5667 11.8582 18.3334 11.4665 17.675L11.3748 17.5167C10.6248 16.2084 9.3915 16.2084 8.63317 17.5167L8.5415 17.675C8.14984 18.3334 7.29984 18.5667 6.6415 18.175L5.19984 17.35C4.4415 16.9167 4.18317 15.9417 4.6165 15.1917C5.37484 13.8834 4.75817 12.8167 3.24984 12.8167C2.37484 12.8167 1.6665 12.1 1.6665 11.2334Z" stroke="#0071E3" stroke-width="1.5" stroke-miterlimit="10" stroke-linecap="round" stroke-linejoin="round"/>
</svg>
