<svg width="24" height="19" viewBox="0 0 24 19" fill="none" xmlns="http://www.w3.org/2000/svg">
<g clip-path="url(#clip0_200_599)">
<path d="M0 0.5H24V18.5H0V0.5Z" fill="#DE2910"/>
<path d="M2.87979 7.16005L4.49977 2.30005L6.11975 7.16005L1.7998 4.19005H7.19974L2.87979 7.16005Z" fill="#FFDE00"/>
<path d="M9.90624 2.3932L8.23907 2.76265L9.35113 1.46678L9.24206 3.21085L8.31689 1.66682L9.90624 2.3932Z" fill="#FFDE00"/>
<path d="M11.5891 4.52541L9.90917 4.21935L11.4368 3.45621L10.6598 5.02147L10.4059 3.23948L11.5891 4.52541Z" fill="#FFDE00"/>
<path d="M11.3435 7.51705L9.93448 6.55242L11.6405 6.47868L10.2927 7.59095L10.7877 5.86034L11.3435 7.51705Z" fill="#FFDE00"/>
<path d="M9.22448 9.47141L8.29733 8.03741L9.89944 8.62831L8.22667 9.13372L9.3516 7.72855L9.22448 9.47141Z" fill="#FFDE00"/>
</g>
<defs>
<clipPath id="clip0_200_599">
<rect width="24" height="18" fill="white" transform="translate(0 0.5)"/>
</clipPath>
</defs>
</svg>
