<svg width="24" height="24" viewBox="0 0 24 24" fill="none" xmlns="http://www.w3.org/2000/svg">
<circle r="12" transform="matrix(-1 0 0 1 12 12)" fill="#CECED6"/>
<path d="M15.6001 11.25C16.0143 11.25 16.3501 11.5858 16.3501 12C16.3501 12.4142 16.0143 12.75 15.6001 12.75V11.25ZM7.86977 12.5303C7.57687 12.2374 7.57687 11.7626 7.86977 11.4697L12.6427 6.6967C12.9356 6.40381 13.4105 6.40381 13.7034 6.6967C13.9963 6.98959 13.9963 7.46447 13.7034 7.75736L9.46076 12L13.7034 16.2426C13.9963 16.5355 13.9963 17.0104 13.7034 17.3033C13.4105 17.5962 12.9356 17.5962 12.6427 17.3033L7.86977 12.5303ZM15.6001 12.75H8.4001V11.25H15.6001V12.75Z" fill="white"/>
</svg>
