<svg width="40" height="40" viewBox="0 0 40 40" fill="none" xmlns="http://www.w3.org/2000/svg">
<circle r="20" transform="matrix(-1 0 0 1 20 20)" fill="#CECED6"/>
<path d="M26 19.25C26.4142 19.25 26.75 19.5858 26.75 20C26.75 20.4142 26.4142 20.75 26 20.75V19.25ZM13.4697 20.5303C13.1768 20.2374 13.1768 19.7626 13.4697 19.4697L18.2426 14.6967C18.5355 14.4038 19.0104 14.4038 19.3033 14.6967C19.5962 14.9896 19.5962 15.4645 19.3033 15.7574L15.0607 20L19.3033 24.2426C19.5962 24.5355 19.5962 25.0104 19.3033 25.3033C19.0104 25.5962 18.5355 25.5962 18.2426 25.3033L13.4697 20.5303ZM26 20.75H14V19.25H26V20.75Z" fill="white"/>
</svg>
